{"glyphs":{"0":{"ha":957,"x_min":0,"x_max":1099,"o":"m 985 627 q 1030 608 1008 624 q 1068 564 1053 591 q 1091 502 1084 536 q 1097 433 1099 468 q 1081 355 1095 391 q 1044 296 1067 319 q 1039 286 1043 293 q 1031 267 1035 279 q 1023 251 1028 260 q 1015 233 1018 243 q 1001 204 1008 218 q 986 171 994 191 q 980 159 983 165 q 974 147 977 153 l 970 142 q 963 125 967 132 q 953 109 958 118 q 944 90 949 99 q 935 71 939 81 q 909 29 924 54 q 900 17 904 22 q 893 4 896 11 l 890 4 q 881 -9 886 -1 q 865 -24 875 -17 l 865 -28 q 856 -35 861 -29 q 843 -46 850 -41 q 836 -53 840 -46 l 832 -53 l 831 -54 q 815 -61 820 -61 l 814 -65 l 811 -65 q 808 -66 810 -65 q 803 -66 806 -66 l 802 -66 l 799 -66 q 790 -71 798 -71 l 789 -71 q 785 -74 786 -71 l 782 -74 l 772 -74 l 765 -74 l 757 -74 l 755 -74 l 745 -74 q 738 -70 742 -71 q 728 -66 733 -69 q 722 -64 725 -65 q 714 -61 718 -64 q 700 -52 707 -56 q 685 -40 692 -47 q 670 -25 677 -32 q 660 -11 664 -18 l 659 -11 q 657 -8 657 -11 q 640 21 646 1 l 639 22 q 628 47 633 36 q 627 54 627 50 q 624 60 627 58 q 623 71 623 64 q 619 82 620 77 q 615 89 618 86 l 615 92 q 614 105 614 98 q 611 117 614 111 l 611 122 l 610 129 l 610 142 q 607 165 607 155 q 607 184 607 175 q 610 200 610 193 q 610 214 610 207 q 611 234 611 224 q 614 252 611 244 q 623 309 615 278 q 629 359 625 334 q 639 408 633 385 q 642 425 640 418 q 644 441 643 432 q 650 471 647 455 q 656 501 653 488 q 662 543 659 521 q 668 589 665 566 q 669 602 669 591 l 668 602 l 665 599 q 661 597 664 597 q 660 596 661 596 q 638 578 649 588 q 615 558 627 568 q 595 533 606 546 q 574 504 585 521 q 550 471 562 488 q 528 439 539 454 q 504 402 515 419 q 481 371 493 386 q 455 335 469 351 q 432 304 441 318 l 390 252 l 390 248 l 351 197 l 349 197 l 347 196 q 340 183 345 188 q 330 172 335 178 q 327 169 328 171 q 323 164 326 167 q 319 158 321 161 q 314 151 317 154 q 282 112 298 132 q 252 72 267 92 q 226 45 236 56 q 210 26 216 33 q 203 17 207 22 q 197 9 200 12 l 193 8 q 122 -28 161 -28 q 68 -8 94 -28 q 24 47 41 12 q 2 142 4 90 q 18 241 0 195 l 20 248 q 24 260 22 256 q 28 271 26 265 q 42 302 33 281 q 61 346 50 322 q 86 397 73 371 q 114 446 98 422 q 120 457 117 452 q 126 467 123 461 q 127 471 127 469 q 131 476 127 473 l 139 489 l 139 492 l 140 492 l 149 504 l 149 509 q 169 538 158 524 q 189 571 179 553 q 211 603 200 587 q 235 635 222 619 q 261 674 248 657 q 289 708 273 690 q 318 740 302 724 q 351 772 334 757 q 383 803 367 788 q 415 833 399 818 q 447 859 431 847 q 481 885 463 871 l 485 889 q 516 913 500 900 q 547 939 532 926 q 590 968 571 954 q 631 991 610 982 q 640 996 635 996 l 640 997 q 650 1001 646 1000 q 657 1004 654 1002 q 661 1005 659 1004 q 671 1008 664 1006 q 692 1013 677 1010 q 732 1022 707 1017 l 734 1022 q 744 1022 739 1022 q 753 1021 749 1022 q 844 985 800 1021 q 868 965 857 975 q 889 939 879 954 q 924 879 909 912 q 935 850 930 863 q 945 822 940 838 l 945 821 q 957 766 954 795 q 970 672 968 718 l 970 627 l 985 627 l 985 627 z "},"1":{"ha":928,"x_min":-5,"x_max":1117,"o":"m 994 585 q 1057 559 1027 585 q 1101 492 1086 533 q 1114 435 1111 465 q 1114 376 1117 406 q 1103 320 1111 347 q 1080 272 1095 293 q 1072 263 1075 268 q 1065 254 1068 258 l 1061 248 q 1057 242 1060 246 q 1051 233 1054 237 l 1039 216 l 1023 197 q 1010 178 1017 186 q 997 160 1004 170 q 987 148 991 153 q 978 135 983 143 q 975 131 977 134 q 970 126 972 129 l 970 122 l 943 89 l 916 54 l 889 21 q 878 6 884 13 q 868 -8 872 -1 l 861 -16 q 768 -66 821 -67 q 707 -46 736 -66 q 657 9 677 -25 q 635 72 640 41 q 619 52 625 60 l 603 26 l 586 1 q 539 -48 566 -31 q 485 -65 513 -65 q 430 -48 457 -65 q 382 -3 403 -32 q 352 61 362 25 q 340 136 342 97 q 347 213 339 175 q 372 285 355 252 q 380 302 376 294 q 389 317 383 310 l 390 321 l 395 329 q 406 350 400 338 q 415 372 411 361 q 427 395 422 385 q 436 416 432 406 q 448 437 443 426 q 457 460 453 449 q 476 503 468 482 q 493 546 485 524 l 494 547 q 482 531 488 538 q 472 517 476 524 q 460 499 465 507 q 449 484 454 490 q 436 462 442 471 q 427 446 431 453 q 424 441 424 446 q 414 424 420 435 q 401 404 408 414 l 399 401 q 389 383 395 392 q 378 364 383 374 q 368 343 374 355 q 355 321 363 332 l 353 317 q 344 297 349 307 q 332 277 339 288 l 326 264 q 319 250 323 257 q 311 233 314 243 q 307 226 309 231 q 302 216 306 221 q 295 203 298 210 q 289 189 292 196 l 289 184 q 280 172 283 178 q 273 158 277 165 q 270 151 272 155 q 265 142 268 146 l 220 47 l 220 46 q 176 -9 203 10 q 122 -28 150 -28 q 52 8 82 -28 q 7 96 20 40 q 7 210 -5 153 q 15 241 9 225 q 24 277 20 257 q 33 307 29 292 q 40 335 37 321 q 50 367 45 353 q 60 396 54 380 l 61 397 l 61 401 q 71 428 66 417 q 81 454 75 439 q 90 481 85 467 q 102 510 96 496 q 114 542 109 528 q 123 567 119 555 q 149 622 136 595 q 174 676 161 650 q 203 733 189 707 q 232 783 216 760 l 239 796 l 240 796 l 248 808 q 255 822 252 815 q 264 833 258 828 q 281 859 273 847 q 298 884 289 871 l 298 885 q 339 933 319 907 q 360 955 350 944 q 382 977 371 966 l 385 977 q 439 1019 412 1002 q 494 1046 467 1036 q 535 1056 515 1053 q 574 1060 554 1060 q 602 1059 589 1060 q 628 1051 615 1057 q 637 1049 633 1051 q 643 1047 640 1047 l 647 1046 q 656 1042 651 1043 q 664 1039 661 1042 l 665 1039 l 669 1035 q 675 1033 672 1034 q 681 1029 677 1032 l 685 1026 q 692 1021 688 1023 q 703 1010 696 1018 l 707 1008 l 710 1004 q 717 998 714 1002 q 722 991 720 994 l 724 991 l 726 989 q 736 972 733 979 q 739 971 739 972 l 743 964 q 748 957 746 961 q 753 947 750 953 q 760 935 755 943 q 768 917 765 926 l 770 914 q 778 892 775 903 l 781 885 q 783 872 782 878 q 786 860 785 865 l 786 859 q 789 849 789 856 q 793 833 790 843 l 793 827 q 793 824 793 824 q 794 822 794 823 l 794 821 q 796 811 794 815 q 798 804 798 807 q 798 792 798 798 q 799 783 799 787 l 810 783 l 811 783 l 814 783 l 822 783 l 823 779 l 832 779 q 841 778 838 779 q 847 777 844 777 l 851 777 q 857 773 852 774 q 865 771 861 772 q 870 767 868 768 q 873 764 872 766 q 883 759 879 761 q 893 754 888 757 q 898 749 896 751 q 903 746 900 747 q 906 744 905 746 q 909 742 907 742 q 918 733 912 736 q 931 718 925 725 q 940 708 937 710 l 940 704 l 943 704 l 943 701 q 945 699 945 701 q 947 697 945 697 q 953 689 950 694 l 953 685 q 957 679 956 684 q 961 671 961 675 q 964 667 964 671 l 965 664 q 966 661 965 663 q 968 659 966 660 l 970 654 l 974 647 q 977 642 974 646 q 981 633 977 635 q 988 609 985 621 q 994 585 991 597 z "},"2":{"ha":1090,"x_min":-7,"x_max":1043,"o":"m 979 675 q 1010 639 998 661 q 1031 590 1023 616 q 1041 533 1039 564 q 1038 472 1043 503 q 1013 359 1027 415 q 995 305 1004 332 q 975 254 986 278 q 921 147 950 193 q 902 122 911 135 q 884 97 893 109 q 861 74 873 85 q 838 54 848 64 q 718 9 781 9 l 717 9 l 704 9 l 700 9 l 697 9 l 688 9 l 685 9 l 681 12 l 676 12 l 675 12 l 672 12 l 668 12 q 661 16 665 15 q 654 18 657 17 l 652 18 l 646 18 l 646 20 q 643 22 646 22 l 640 22 q 637 25 637 22 l 631 25 l 629 29 l 627 29 q 617 35 624 31 q 604 43 611 39 l 600 47 q 591 55 595 53 q 585 60 587 57 l 583 62 l 579 66 l 578 66 q 576 68 576 66 q 571 75 574 71 q 567 79 568 79 l 567 81 q 539 118 551 99 q 518 163 528 138 q 514 153 515 157 q 510 143 513 149 q 493 108 500 123 q 475 79 485 93 q 447 37 463 56 q 425 17 436 26 q 401 -3 414 7 q 389 -8 395 -8 l 387 -8 q 380 -12 385 -12 q 374 -17 378 -15 q 367 -20 371 -20 q 355 -21 360 -21 q 347 -21 350 -21 q 345 -23 346 -21 q 342 -25 343 -25 l 334 -25 l 330 -25 l 329 -25 l 326 -25 l 325 -25 q 319 -23 322 -25 q 314 -21 317 -21 l 313 -21 l 310 -21 l 309 -21 l 306 -21 l 304 -20 l 300 -20 q 295 -18 297 -20 q 292 -16 293 -16 l 289 -16 q 272 -8 283 -16 q 269 -6 271 -7 q 264 -3 267 -5 l 260 -3 q 175 104 207 31 q 170 115 172 111 q 164 125 167 119 q 163 130 163 127 q 160 135 163 132 q 141 128 151 131 q 121 125 132 125 q 80 135 100 125 q 46 167 61 144 q 4 261 14 204 q 8 375 -7 318 q 17 406 12 389 q 26 437 22 422 q 30 450 29 444 q 33 460 31 456 l 37 468 q 40 480 39 473 q 43 492 41 486 l 46 500 q 51 514 49 507 q 56 530 53 521 l 64 559 l 75 587 q 79 601 77 594 q 83 616 81 608 l 93 647 l 114 705 l 134 762 q 135 764 134 762 l 135 766 l 154 822 q 158 832 155 827 q 163 842 160 836 q 163 845 163 843 q 164 850 164 847 q 219 932 185 901 q 293 962 253 962 q 363 937 330 962 q 431 817 412 897 q 437 850 433 832 q 443 888 440 868 q 453 938 448 914 q 463 987 457 962 l 500 1192 q 553 1309 513 1263 q 643 1354 593 1354 q 663 1352 652 1354 q 684 1348 673 1350 q 732 1311 710 1337 q 769 1253 754 1286 q 790 1179 783 1219 q 791 1097 796 1139 l 787 1075 l 785 1054 q 784 1033 785 1044 q 783 1013 783 1022 q 779 970 781 991 q 775 929 777 949 l 775 925 q 774 885 775 905 q 771 842 772 865 q 766 755 767 793 q 764 714 764 736 q 762 672 764 693 l 762 631 q 760 611 760 620 q 760 591 760 602 l 760 550 l 760 534 l 760 530 l 760 513 q 761 500 760 506 q 762 488 762 494 l 762 489 q 764 492 762 492 q 777 515 770 503 q 791 543 783 528 q 798 558 794 551 q 804 572 802 566 q 814 604 812 588 l 817 604 q 860 673 832 649 q 921 697 888 697 q 979 675 953 697 z "},"3":{"ha":703,"x_min":1,"x_max":785,"o":"m 785 921 l 785 893 q 784 877 785 884 q 783 864 783 869 l 783 859 q 776 824 781 839 q 768 800 771 810 l 768 796 q 755 767 762 781 q 743 743 749 753 q 734 725 739 734 q 726 708 729 715 q 719 699 722 703 q 710 688 715 694 q 703 674 707 680 q 696 664 699 669 q 690 655 693 660 q 684 646 686 650 q 674 632 678 639 q 664 621 669 625 q 660 614 664 614 q 659 595 659 604 q 656 576 659 586 q 647 497 652 538 q 642 414 643 457 q 637 339 637 376 l 637 330 q 729 245 697 322 q 748 144 749 198 q 726 46 747 90 l 722 39 q 710 14 720 31 q 700 -5 706 4 q 688 -24 694 -14 q 679 -36 681 -33 q 676 -37 677 -36 q 671 -44 673 -40 q 667 -50 668 -49 l 664 -50 q 650 -67 657 -60 q 633 -82 643 -75 q 609 -97 621 -92 q 583 -107 597 -102 q 566 -111 575 -110 q 550 -111 557 -111 q 531 -111 541 -111 q 513 -104 522 -110 q 443 -57 475 -96 l 441 -57 q 400 5 418 -28 q 375 68 388 35 q 368 97 372 83 q 359 125 363 110 q 354 151 357 138 q 350 176 351 163 q 342 171 347 175 q 335 164 338 167 l 335 163 q 326 153 331 157 q 314 143 321 149 q 311 138 313 140 q 310 134 310 136 q 297 121 303 130 q 252 75 271 97 q 244 66 248 70 q 237 58 240 62 q 233 55 235 58 q 229 50 231 52 q 147 -29 200 -14 q 136 -31 140 -29 q 126 -32 132 -32 l 122 -32 q 119 -31 121 -32 q 114 -29 117 -29 q 83 -20 100 -29 q 68 -9 75 -14 q 54 5 61 -4 q 20 58 33 26 q 1 126 7 89 l 1 163 l 1 176 q 3 186 1 182 q 4 196 4 191 l 4 200 q 17 250 9 231 q 33 294 24 270 q 58 346 43 318 q 84 392 71 370 q 114 439 98 415 q 121 451 117 447 q 126 458 125 456 q 131 468 130 464 q 140 480 136 473 q 150 493 144 486 q 169 522 159 509 q 189 550 179 534 q 210 575 199 561 q 233 606 221 589 q 258 638 245 621 q 283 668 271 654 q 309 697 296 684 q 339 726 322 711 l 372 758 q 376 775 375 768 q 379 793 376 783 q 416 918 397 861 q 423 933 419 925 q 431 951 427 942 q 439 971 436 964 q 447 989 443 979 q 457 1007 452 998 q 468 1025 461 1017 q 482 1045 475 1036 q 496 1064 489 1054 l 497 1064 q 516 1083 507 1074 q 538 1101 526 1092 q 563 1118 550 1111 q 591 1126 576 1125 q 598 1128 595 1126 q 604 1131 602 1131 l 612 1131 l 614 1131 l 616 1131 l 623 1131 l 633 1131 l 639 1131 l 642 1131 l 643 1131 l 646 1131 q 652 1126 647 1126 l 654 1126 l 659 1126 q 700 1105 675 1124 q 704 1101 701 1105 q 710 1098 707 1100 q 717 1093 714 1096 q 718 1090 717 1092 q 721 1089 718 1089 q 728 1080 724 1085 q 734 1071 732 1075 q 738 1066 737 1068 q 742 1064 739 1064 q 747 1053 743 1060 q 758 1034 751 1046 q 765 1018 761 1027 q 772 996 770 1008 q 775 988 775 990 q 777 981 775 986 l 777 975 q 781 958 781 964 l 781 956 q 783 944 783 951 q 785 930 783 937 l 785 921 z "},"4":{"ha":983,"x_min":1,"x_max":1104,"o":"m 990 696 q 1037 676 1015 693 q 1074 633 1059 660 q 1097 573 1089 607 q 1103 501 1104 539 q 1085 424 1100 460 q 1048 364 1071 387 q 1045 354 1047 360 q 1040 342 1043 349 q 1028 305 1034 326 q 1015 260 1022 283 q 1009 241 1013 250 q 1003 221 1006 232 l 990 183 l 989 179 q 981 156 986 168 q 974 134 977 144 q 964 105 970 118 q 951 77 958 92 q 942 58 946 67 q 935 41 939 49 q 931 34 932 36 q 928 29 930 32 q 925 23 926 26 q 922 17 924 20 q 918 11 920 14 q 914 8 916 8 l 914 4 q 907 -4 907 0 l 905 -4 q 901 -9 903 -7 q 897 -17 900 -12 l 895 -21 l 893 -21 q 888 -26 890 -24 q 885 -29 886 -28 l 884 -29 q 882 -33 882 -29 l 880 -33 q 877 -37 878 -36 q 873 -40 876 -37 l 872 -40 q 871 -41 872 -41 l 869 -41 l 868 -46 l 865 -46 q 863 -50 864 -49 q 860 -53 861 -50 l 857 -53 l 856 -53 l 852 -54 l 848 -54 q 836 -61 842 -61 q 830 -64 833 -64 q 823 -66 827 -65 l 822 -66 l 819 -66 l 818 -66 l 815 -66 l 814 -71 l 811 -71 l 802 -71 l 798 -71 l 793 -71 l 790 -71 q 781 -70 787 -71 q 768 -66 775 -69 l 764 -66 q 751 -61 757 -66 q 730 -53 743 -61 q 714 -41 722 -47 q 699 -28 707 -35 q 692 -19 696 -22 q 686 -11 689 -16 l 686 -9 l 685 -8 q 680 -2 682 -5 q 676 4 677 1 q 665 25 669 16 q 660 39 661 35 l 659 39 q 657 41 657 39 q 656 45 656 43 q 654 47 654 46 q 653 52 654 49 l 653 54 l 652 58 q 650 62 652 60 q 647 71 648 65 q 644 78 644 75 q 643 85 644 81 l 643 89 l 640 92 l 640 96 l 640 97 q 640 101 640 100 q 639 104 639 102 l 639 109 l 639 110 l 636 114 l 636 121 q 627 111 632 115 q 618 102 623 107 q 608 95 612 99 q 599 89 604 92 q 572 71 585 73 l 570 71 q 567 67 568 68 q 564 64 566 66 l 557 64 q 547 58 555 61 l 545 58 l 543 58 l 541 58 l 539 58 q 534 54 539 58 l 532 54 l 528 54 l 526 54 l 524 54 l 511 54 l 497 54 q 490 56 494 54 q 478 58 485 58 q 457 71 470 60 l 456 71 q 445 76 450 72 q 435 85 439 81 l 432 85 q 423 97 428 90 q 414 109 418 103 l 411 109 l 411 110 q 404 121 407 115 q 395 135 400 127 q 385 160 385 157 q 382 161 382 160 l 382 164 q 378 178 379 171 q 374 189 376 184 q 370 210 371 200 q 366 227 368 220 l 366 229 q 365 236 366 233 q 364 241 364 239 l 364 245 l 364 260 q 361 279 361 267 q 361 288 361 283 q 364 296 361 293 q 365 317 364 307 q 366 334 366 328 l 366 335 q 370 358 370 352 q 373 369 372 365 q 376 379 374 374 q 344 317 358 346 q 319 267 330 289 q 291 204 304 232 q 268 154 278 176 l 222 52 l 222 47 q 178 -9 204 10 q 122 -29 151 -29 q 56 1 85 -29 q 28 38 40 17 q 11 85 17 60 q 3 138 4 110 q 5 192 1 165 l 5 196 l 7 201 l 7 204 q 9 218 9 211 q 11 233 9 225 q 22 283 16 258 q 35 335 28 307 q 57 410 45 372 q 81 484 68 447 q 114 577 96 532 q 151 664 132 623 q 177 715 163 689 q 203 764 191 741 q 238 820 221 794 q 273 867 254 846 q 318 917 292 892 q 343 940 330 930 q 368 960 355 950 q 396 978 382 969 q 427 996 411 987 q 459 1007 444 1002 q 490 1017 475 1011 l 510 1017 l 511 1017 q 517 1019 514 1017 q 522 1021 519 1021 l 526 1021 l 528 1021 l 539 1021 l 551 1017 l 557 1017 l 559 1017 l 561 1017 l 566 1017 l 568 1017 q 602 1004 585 1011 q 632 983 618 997 l 635 983 q 653 965 644 975 q 669 942 663 954 q 685 919 677 932 q 699 892 692 905 q 713 844 707 868 q 722 791 720 819 q 725 759 724 776 q 726 722 726 742 l 726 721 q 725 715 726 718 q 724 710 724 713 q 732 714 728 714 l 743 714 l 745 714 q 749 717 745 717 l 753 717 l 755 717 l 760 717 l 764 717 l 768 717 l 774 717 q 777 715 775 717 l 777 714 l 781 714 l 782 714 l 785 714 l 786 714 q 798 710 793 714 q 806 708 803 710 l 807 708 q 836 694 823 703 q 861 672 848 685 q 885 647 875 663 q 901 664 892 656 q 930 684 915 675 q 961 696 946 693 l 965 696 l 981 696 l 990 696 m 724 708 q 739 713 732 712 q 753 717 746 714 q 739 713 746 714 q 724 708 732 712 z "},"5":{"ha":798,"x_min":1,"x_max":1055,"o":"m 669 -78 l 668 -78 l 669 -78 m 935 604 q 990 584 964 604 q 1035 529 1017 564 q 1054 424 1055 481 q 1035 322 1054 367 q 1022 295 1028 309 q 1007 267 1015 281 q 1001 255 1004 261 q 993 241 997 249 q 987 229 990 233 q 978 216 983 224 l 972 204 l 965 192 l 964 192 q 958 180 961 186 q 949 168 954 174 q 935 145 942 157 q 920 122 928 134 l 918 122 l 916 118 q 909 109 913 114 q 901 97 905 104 l 895 87 l 893 87 l 886 79 q 880 70 884 74 q 873 60 876 65 q 871 57 873 60 l 869 56 q 865 54 868 54 q 861 47 865 52 q 855 40 859 45 q 847 31 851 36 q 827 8 838 20 q 806 -12 817 -3 l 803 -12 l 802 -16 q 793 -21 799 -20 l 790 -25 l 782 -32 q 770 -40 777 -33 l 768 -40 q 756 -47 762 -44 q 749 -53 751 -50 l 743 -57 q 741 -58 742 -57 l 739 -58 q 732 -62 735 -58 l 730 -62 l 724 -65 q 711 -69 718 -69 l 710 -69 l 707 -71 l 705 -71 q 694 -75 699 -71 l 686 -75 l 681 -78 l 677 -78 l 664 -78 l 661 -78 l 660 -78 l 652 -78 q 574 -46 610 -74 q 518 17 542 -25 q 500 45 509 31 q 485 79 492 60 q 479 92 482 86 q 473 106 476 98 q 469 104 472 106 l 456 92 l 453 92 l 436 79 q 400 54 416 64 q 368 35 383 45 q 333 14 353 25 q 289 -7 313 3 l 281 -8 l 279 -8 q 278 -12 278 -8 l 269 -12 q 268 -14 268 -12 l 268 -16 l 265 -16 l 257 -20 l 252 -20 l 243 -21 l 240 -21 l 239 -21 q 227 -25 232 -21 l 214 -25 q 205 -28 207 -25 l 203 -28 l 201 -28 l 195 -28 q 190 -26 192 -28 q 184 -25 187 -25 l 178 -25 q 165 -23 171 -25 q 157 -21 160 -21 l 157 -20 l 155 -20 q 146 -18 150 -20 q 139 -12 142 -16 q 119 -3 134 -12 l 115 0 q 112 3 114 3 q 107 5 110 4 q 104 9 106 8 q 102 12 103 9 q 98 17 99 12 q 90 22 96 17 q 86 25 89 25 l 85 29 q 82 31 85 29 q 78 37 81 33 q 69 47 75 40 l 65 54 q 56 72 57 64 q 46 86 50 79 q 40 97 43 93 l 40 100 q 39 103 39 101 l 39 106 q 27 134 32 121 q 20 163 22 147 q 9 210 13 186 q 3 260 5 233 l 3 262 q 1 301 1 282 q 1 342 1 319 l 1 343 q 5 416 3 379 q 16 488 8 453 q 30 552 22 519 q 49 616 37 585 q 70 674 58 646 q 93 730 81 703 q 118 785 105 760 q 133 811 125 800 q 149 835 142 822 q 182 883 164 860 q 220 929 200 907 q 267 971 243 953 q 315 1000 290 989 q 346 1012 331 1007 q 376 1017 361 1017 l 382 1017 l 382 1018 l 393 1018 l 395 1018 q 411 1017 407 1018 l 414 1017 l 431 1017 q 439 1013 432 1013 l 440 1013 q 518 937 489 1000 q 537 874 532 909 q 539 804 543 839 q 508 710 532 749 q 447 656 484 671 l 440 656 l 439 654 l 436 654 l 435 654 l 435 650 l 432 650 l 431 650 q 429 647 431 648 l 428 647 l 424 643 q 399 612 410 629 l 397 610 q 382 585 389 599 q 376 574 379 581 q 370 559 372 567 l 368 559 q 355 529 361 546 q 340 497 349 513 q 333 472 336 485 q 323 447 329 458 q 335 461 330 454 q 345 472 340 468 q 347 475 345 475 q 369 503 358 488 q 393 534 380 518 q 415 565 403 550 q 439 597 427 581 q 451 614 446 607 q 461 629 457 621 q 467 636 464 633 q 472 643 469 639 l 481 660 q 531 709 503 693 q 589 725 558 725 q 694 663 650 725 q 727 588 715 629 q 739 500 739 547 l 739 485 l 739 472 l 739 450 q 741 443 741 448 q 744 445 743 443 q 747 450 745 447 l 751 454 l 760 463 l 761 463 q 777 479 765 468 q 791 494 783 486 q 806 505 799 501 l 865 572 q 935 604 897 604 z "},"6":{"ha":957,"x_min":0,"x_max":1099,"o":"m 985 627 q 1030 608 1008 624 q 1068 564 1053 591 q 1091 502 1084 536 q 1097 433 1099 468 q 1081 355 1095 391 q 1044 296 1067 319 q 1039 286 1043 293 q 1031 267 1035 279 q 1023 251 1028 260 q 1015 233 1018 243 q 1001 204 1008 218 q 986 171 994 191 q 980 159 983 165 q 974 147 977 153 l 970 142 q 963 125 967 132 q 953 109 958 118 q 944 90 949 99 q 935 71 939 81 q 909 29 924 54 q 900 17 904 22 q 893 4 896 11 l 890 4 q 881 -9 886 -1 q 865 -24 875 -17 l 865 -28 q 856 -35 861 -29 q 843 -46 850 -41 q 836 -53 840 -46 l 832 -53 l 831 -54 q 815 -61 820 -61 l 814 -65 l 811 -65 q 808 -66 810 -65 q 803 -66 806 -66 l 802 -66 l 799 -66 q 790 -71 798 -71 l 789 -71 q 785 -74 786 -71 l 782 -74 l 772 -74 l 765 -74 l 757 -74 l 755 -74 l 745 -74 q 738 -70 742 -71 q 728 -66 733 -69 q 722 -64 725 -65 q 714 -61 718 -64 q 700 -52 707 -56 q 685 -40 692 -47 q 670 -25 677 -32 q 660 -11 664 -18 l 659 -11 q 657 -8 657 -11 q 640 21 646 1 l 639 22 q 628 47 633 36 q 627 54 627 50 q 624 60 627 58 q 623 71 623 64 q 619 82 620 77 q 615 89 618 86 l 615 92 q 614 105 614 98 q 611 117 614 111 l 611 122 l 610 129 l 610 142 q 607 165 607 155 q 607 184 607 175 q 610 200 610 193 q 610 214 610 207 q 611 234 611 224 q 614 252 611 244 q 623 309 615 278 q 629 359 625 334 q 639 408 633 385 q 642 425 640 418 q 644 441 643 432 q 650 471 647 455 q 656 501 653 488 q 662 543 659 521 q 668 589 665 566 q 669 602 669 591 l 668 602 l 665 599 q 661 597 664 597 q 660 596 661 596 q 638 578 649 588 q 615 558 627 568 q 595 533 606 546 q 574 504 585 521 q 550 471 562 488 q 528 439 539 454 q 504 402 515 419 q 481 371 493 386 q 455 335 469 351 q 432 304 441 318 l 390 252 l 390 248 l 351 197 l 349 197 l 347 196 q 340 183 345 188 q 330 172 335 178 q 327 169 328 171 q 323 164 326 167 q 319 158 321 161 q 314 151 317 154 q 282 112 298 132 q 252 72 267 92 q 226 45 236 56 q 210 26 216 33 q 203 17 207 22 q 197 9 200 12 l 193 8 q 122 -28 161 -28 q 68 -8 94 -28 q 24 47 41 12 q 2 142 4 90 q 18 241 0 195 l 20 248 q 24 260 22 256 q 28 271 26 265 q 42 302 33 281 q 61 346 50 322 q 86 397 73 371 q 114 446 98 422 q 120 457 117 452 q 126 467 123 461 q 127 471 127 469 q 131 476 127 473 l 139 489 l 139 492 l 140 492 l 149 504 l 149 509 q 169 538 158 524 q 189 571 179 553 q 211 603 200 587 q 235 635 222 619 q 261 674 248 657 q 289 708 273 690 q 318 740 302 724 q 351 772 334 757 q 383 803 367 788 q 415 833 399 818 q 447 859 431 847 q 481 885 463 871 l 485 889 q 516 913 500 900 q 547 939 532 926 q 590 968 571 954 q 631 991 610 982 q 640 996 635 996 l 640 997 q 650 1001 646 1000 q 657 1004 654 1002 q 661 1005 659 1004 q 671 1008 664 1006 q 692 1013 677 1010 q 732 1022 707 1017 l 734 1022 q 744 1022 739 1022 q 753 1021 749 1022 q 844 985 800 1021 q 868 965 857 975 q 889 939 879 954 q 924 879 909 912 q 935 850 930 863 q 945 822 940 838 l 945 821 q 957 766 954 795 q 970 672 968 718 l 970 627 l 985 627 l 985 627 z "},"7":{"ha":928,"x_min":-5,"x_max":1117,"o":"m 994 585 q 1057 559 1027 585 q 1101 492 1086 533 q 1114 435 1111 465 q 1114 376 1117 406 q 1103 320 1111 347 q 1080 272 1095 293 q 1072 263 1075 268 q 1065 254 1068 258 l 1061 248 q 1057 242 1060 246 q 1051 233 1054 237 l 1039 216 l 1023 197 q 1010 178 1017 186 q 997 160 1004 170 q 987 148 991 153 q 978 135 983 143 q 975 131 977 134 q 970 126 972 129 l 970 122 l 943 89 l 916 54 l 889 21 q 878 6 884 13 q 868 -8 872 -1 l 861 -16 q 768 -66 821 -67 q 707 -46 736 -66 q 657 9 677 -25 q 635 72 640 41 q 619 52 625 60 l 603 26 l 586 1 q 539 -48 566 -31 q 485 -65 513 -65 q 430 -48 457 -65 q 382 -3 403 -32 q 352 61 362 25 q 340 136 342 97 q 347 213 339 175 q 372 285 355 252 q 380 302 376 294 q 389 317 383 310 l 390 321 l 395 329 q 406 350 400 338 q 415 372 411 361 q 427 395 422 385 q 436 416 432 406 q 448 437 443 426 q 457 460 453 449 q 476 503 468 482 q 493 546 485 524 l 494 547 q 482 531 488 538 q 472 517 476 524 q 460 499 465 507 q 449 484 454 490 q 436 462 442 471 q 427 446 431 453 q 424 441 424 446 q 414 424 420 435 q 401 404 408 414 l 399 401 q 389 383 395 392 q 378 364 383 374 q 368 343 374 355 q 355 321 363 332 l 353 317 q 344 297 349 307 q 332 277 339 288 l 326 264 q 319 250 323 257 q 311 233 314 243 q 307 226 309 231 q 302 216 306 221 q 295 203 298 210 q 289 189 292 196 l 289 184 q 280 172 283 178 q 273 158 277 165 q 270 151 272 155 q 265 142 268 146 l 220 47 l 220 46 q 176 -9 203 10 q 122 -28 150 -28 q 52 8 82 -28 q 7 96 20 40 q 7 210 -5 153 q 15 241 9 225 q 24 277 20 257 q 33 307 29 292 q 40 335 37 321 q 50 367 45 353 q 60 396 54 380 l 61 397 l 61 401 q 71 428 66 417 q 81 454 75 439 q 90 481 85 467 q 102 510 96 496 q 114 542 109 528 q 123 567 119 555 q 149 622 136 595 q 174 676 161 650 q 203 733 189 707 q 232 783 216 760 l 239 796 l 240 796 l 248 808 q 255 822 252 815 q 264 833 258 828 q 281 859 273 847 q 298 884 289 871 l 298 885 q 339 933 319 907 q 360 955 350 944 q 382 977 371 966 l 385 977 q 439 1019 412 1002 q 494 1046 467 1036 q 535 1056 515 1053 q 574 1060 554 1060 q 602 1059 589 1060 q 628 1051 615 1057 q 637 1049 633 1051 q 643 1047 640 1047 l 647 1046 q 656 1042 651 1043 q 664 1039 661 1042 l 665 1039 l 669 1035 q 675 1033 672 1034 q 681 1029 677 1032 l 685 1026 q 692 1021 688 1023 q 703 1010 696 1018 l 707 1008 l 710 1004 q 717 998 714 1002 q 722 991 720 994 l 724 991 l 726 989 q 736 972 733 979 q 739 971 739 972 l 743 964 q 748 957 746 961 q 753 947 750 953 q 760 935 755 943 q 768 917 765 926 l 770 914 q 778 892 775 903 l 781 885 q 783 872 782 878 q 786 860 785 865 l 786 859 q 789 849 789 856 q 793 833 790 843 l 793 827 q 793 824 793 824 q 794 822 794 823 l 794 821 q 796 811 794 815 q 798 804 798 807 q 798 792 798 798 q 799 783 799 787 l 810 783 l 811 783 l 814 783 l 822 783 l 823 779 l 832 779 q 841 778 838 779 q 847 777 844 777 l 851 777 q 857 773 852 774 q 865 771 861 772 q 870 767 868 768 q 873 764 872 766 q 883 759 879 761 q 893 754 888 757 q 898 749 896 751 q 903 746 900 747 q 906 744 905 746 q 909 742 907 742 q 918 733 912 736 q 931 718 925 725 q 940 708 937 710 l 940 704 l 943 704 l 943 701 q 945 699 945 701 q 947 697 945 697 q 953 689 950 694 l 953 685 q 957 679 956 684 q 961 671 961 675 q 964 667 964 671 l 965 664 q 966 661 965 663 q 968 659 966 660 l 970 654 l 974 647 q 977 642 974 646 q 981 633 977 635 q 988 609 985 621 q 994 585 991 597 z "},"8":{"ha":1090,"x_min":-7,"x_max":1043,"o":"m 979 675 q 1010 639 998 661 q 1031 590 1023 616 q 1041 533 1039 564 q 1038 472 1043 503 q 1013 359 1027 415 q 995 305 1004 332 q 975 254 986 278 q 921 147 950 193 q 902 122 911 135 q 884 97 893 109 q 861 74 873 85 q 838 54 848 64 q 718 9 781 9 l 717 9 l 704 9 l 700 9 l 697 9 l 688 9 l 685 9 l 681 12 l 676 12 l 675 12 l 672 12 l 668 12 q 661 16 665 15 q 654 18 657 17 l 652 18 l 646 18 l 646 20 q 643 22 646 22 l 640 22 q 637 25 637 22 l 631 25 l 629 29 l 627 29 q 617 35 624 31 q 604 43 611 39 l 600 47 q 591 55 595 53 q 585 60 587 57 l 583 62 l 579 66 l 578 66 q 576 68 576 66 q 571 75 574 71 q 567 79 568 79 l 567 81 q 539 118 551 99 q 518 163 528 138 q 514 153 515 157 q 510 143 513 149 q 493 108 500 123 q 475 79 485 93 q 447 37 463 56 q 425 17 436 26 q 401 -3 414 7 q 389 -8 395 -8 l 387 -8 q 380 -12 385 -12 q 374 -17 378 -15 q 367 -20 371 -20 q 355 -21 360 -21 q 347 -21 350 -21 q 345 -23 346 -21 q 342 -25 343 -25 l 334 -25 l 330 -25 l 329 -25 l 326 -25 l 325 -25 q 319 -23 322 -25 q 314 -21 317 -21 l 313 -21 l 310 -21 l 309 -21 l 306 -21 l 304 -20 l 300 -20 q 295 -18 297 -20 q 292 -16 293 -16 l 289 -16 q 272 -8 283 -16 q 269 -6 271 -7 q 264 -3 267 -5 l 260 -3 q 175 104 207 31 q 170 115 172 111 q 164 125 167 119 q 163 130 163 127 q 160 135 163 132 q 141 128 151 131 q 121 125 132 125 q 80 135 100 125 q 46 167 61 144 q 4 261 14 204 q 8 375 -7 318 q 17 406 12 389 q 26 437 22 422 q 30 450 29 444 q 33 460 31 456 l 37 468 q 40 480 39 473 q 43 492 41 486 l 46 500 q 51 514 49 507 q 56 530 53 521 l 64 559 l 75 587 q 79 601 77 594 q 83 616 81 608 l 93 647 l 114 705 l 134 762 q 135 764 134 762 l 135 766 l 154 822 q 158 832 155 827 q 163 842 160 836 q 163 845 163 843 q 164 850 164 847 q 219 932 185 901 q 293 962 253 962 q 363 937 330 962 q 431 817 412 897 q 437 850 433 832 q 443 888 440 868 q 453 938 448 914 q 463 987 457 962 l 500 1192 q 553 1309 513 1263 q 643 1354 593 1354 q 663 1352 652 1354 q 684 1348 673 1350 q 732 1311 710 1337 q 769 1253 754 1286 q 790 1179 783 1219 q 791 1097 796 1139 l 787 1075 l 785 1054 q 784 1033 785 1044 q 783 1013 783 1022 q 779 970 781 991 q 775 929 777 949 l 775 925 q 774 885 775 905 q 771 842 772 865 q 766 755 767 793 q 764 714 764 736 q 762 672 764 693 l 762 631 q 760 611 760 620 q 760 591 760 602 l 760 550 l 760 534 l 760 530 l 760 513 q 761 500 760 506 q 762 488 762 494 l 762 489 q 764 492 762 492 q 777 515 770 503 q 791 543 783 528 q 798 558 794 551 q 804 572 802 566 q 814 604 812 588 l 817 604 q 860 673 832 649 q 921 697 888 697 q 979 675 953 697 z "},"9":{"ha":703,"x_min":1,"x_max":785,"o":"m 785 921 l 785 893 q 784 877 785 884 q 783 864 783 869 l 783 859 q 776 824 781 839 q 768 800 771 810 l 768 796 q 755 767 762 781 q 743 743 749 753 q 734 725 739 734 q 726 708 729 715 q 719 699 722 703 q 710 688 715 694 q 703 674 707 680 q 696 664 699 669 q 690 655 693 660 q 684 646 686 650 q 674 632 678 639 q 664 621 669 625 q 660 614 664 614 q 659 595 659 604 q 656 576 659 586 q 647 497 652 538 q 642 414 643 457 q 637 339 637 376 l 637 330 q 729 245 697 322 q 748 144 749 198 q 726 46 747 90 l 722 39 q 710 14 720 31 q 700 -5 706 4 q 688 -24 694 -14 q 679 -36 681 -33 q 676 -37 677 -36 q 671 -44 673 -40 q 667 -50 668 -49 l 664 -50 q 650 -67 657 -60 q 633 -82 643 -75 q 609 -97 621 -92 q 583 -107 597 -102 q 566 -111 575 -110 q 550 -111 557 -111 q 531 -111 541 -111 q 513 -104 522 -110 q 443 -57 475 -96 l 441 -57 q 400 5 418 -28 q 375 68 388 35 q 368 97 372 83 q 359 125 363 110 q 354 151 357 138 q 350 176 351 163 q 342 171 347 175 q 335 164 338 167 l 335 163 q 326 153 331 157 q 314 143 321 149 q 311 138 313 140 q 310 134 310 136 q 297 121 303 130 q 252 75 271 97 q 244 66 248 70 q 237 58 240 62 q 233 55 235 58 q 229 50 231 52 q 147 -29 200 -14 q 136 -31 140 -29 q 126 -32 132 -32 l 122 -32 q 119 -31 121 -32 q 114 -29 117 -29 q 83 -20 100 -29 q 68 -9 75 -14 q 54 5 61 -4 q 20 58 33 26 q 1 126 7 89 l 1 163 l 1 176 q 3 186 1 182 q 4 196 4 191 l 4 200 q 17 250 9 231 q 33 294 24 270 q 58 346 43 318 q 84 392 71 370 q 114 439 98 415 q 121 451 117 447 q 126 458 125 456 q 131 468 130 464 q 140 480 136 473 q 150 493 144 486 q 169 522 159 509 q 189 550 179 534 q 210 575 199 561 q 233 606 221 589 q 258 638 245 621 q 283 668 271 654 q 309 697 296 684 q 339 726 322 711 l 372 758 q 376 775 375 768 q 379 793 376 783 q 416 918 397 861 q 423 933 419 925 q 431 951 427 942 q 439 971 436 964 q 447 989 443 979 q 457 1007 452 998 q 468 1025 461 1017 q 482 1045 475 1036 q 496 1064 489 1054 l 497 1064 q 516 1083 507 1074 q 538 1101 526 1092 q 563 1118 550 1111 q 591 1126 576 1125 q 598 1128 595 1126 q 604 1131 602 1131 l 612 1131 l 614 1131 l 616 1131 l 623 1131 l 633 1131 l 639 1131 l 642 1131 l 643 1131 l 646 1131 q 652 1126 647 1126 l 654 1126 l 659 1126 q 700 1105 675 1124 q 704 1101 701 1105 q 710 1098 707 1100 q 717 1093 714 1096 q 718 1090 717 1092 q 721 1089 718 1089 q 728 1080 724 1085 q 734 1071 732 1075 q 738 1066 737 1068 q 742 1064 739 1064 q 747 1053 743 1060 q 758 1034 751 1046 q 765 1018 761 1027 q 772 996 770 1008 q 775 988 775 990 q 777 981 775 986 l 777 975 q 781 958 781 964 l 781 956 q 783 944 783 951 q 785 930 783 937 l 785 921 z "},"\u0000":{"ha":1389,"x_min":0,"x_max":0,"o":""},"\r":{"ha":1389,"x_min":0,"x_max":0,"o":""}," ":{"ha":491,"x_min":0,"x_max":0,"o":""},"!":{"ha":791,"x_min":0,"x_max":1013,"o":"m 943 639 q 995 562 978 612 q 1008 454 1013 511 l 1008 452 l 1008 447 l 1008 441 l 1008 439 q 1005 420 1006 429 q 1002 401 1004 411 q 990 337 998 370 q 972 272 982 304 q 958 225 966 248 q 939 183 950 203 l 939 179 l 935 171 q 933 164 933 171 l 929 158 q 923 145 926 150 q 917 135 920 140 l 914 134 q 910 124 911 128 q 905 117 908 119 l 904 117 l 904 114 q 899 107 901 111 q 893 97 896 103 l 888 92 l 888 90 q 885 89 888 89 q 884 85 884 86 q 882 82 884 83 l 879 79 l 876 77 l 872 72 q 867 64 869 69 l 864 60 l 863 60 l 860 58 q 850 47 859 56 l 847 46 l 839 39 l 838 35 q 834 33 835 33 q 831 29 833 32 l 829 29 l 827 29 l 822 26 l 818 22 q 812 18 815 18 q 806 14 808 17 l 804 14 l 802 9 q 789 4 799 9 l 787 4 q 785 1 787 4 l 775 -3 l 772 -3 q 762 -4 768 -4 l 760 -4 l 760 -8 l 755 -8 l 754 -8 l 750 -8 l 747 -11 l 734 -11 l 733 -11 l 729 -16 l 725 -16 l 717 -16 l 713 -16 l 708 -16 l 700 -16 l 697 -16 l 696 -16 l 693 -16 l 688 -16 l 685 -11 l 684 -11 l 675 -11 q 639 1 658 -7 l 637 1 q 620 11 628 7 q 604 21 611 16 q 567 48 585 32 q 529 85 549 65 q 517 74 522 78 q 504 64 511 69 q 475 42 488 52 q 450 22 463 32 q 432 13 441 18 q 416 4 424 8 l 412 1 l 410 1 l 408 1 q 404 -3 406 -3 l 397 -4 l 396 -4 l 393 -7 q 389 -8 392 -8 l 383 -11 q 374 -15 378 -14 q 367 -16 370 -16 l 367 -17 q 358 -19 361 -17 q 351 -21 354 -21 l 350 -21 l 346 -21 q 330 -26 338 -24 q 313 -28 322 -28 l 310 -28 q 295 -29 303 -29 q 279 -29 286 -29 q 256 -29 269 -29 q 233 -28 244 -29 q 225 -24 231 -25 q 212 -21 220 -24 q 204 -17 205 -21 l 200 -17 l 193 -16 q 184 -12 189 -13 q 176 -8 179 -11 l 175 -8 q 166 -3 170 -5 q 160 1 163 -1 l 158 1 q 152 6 155 4 q 143 9 149 8 l 142 9 q 134 17 139 12 q 122 26 129 22 l 121 26 q 115 31 118 29 q 110 35 113 33 q 109 37 110 35 l 109 39 l 102 46 q 94 54 98 50 q 87 60 90 58 l 87 64 l 85 64 q 81 71 83 66 q 72 83 78 75 q 63 95 68 87 q 52 114 58 102 q 41 135 45 125 q 35 151 37 144 l 33 151 q 28 166 31 161 q 25 176 26 172 l 25 179 q 20 191 22 183 q 17 208 18 199 q 14 215 14 212 q 12 222 14 218 q 8 248 8 241 q 5 274 5 263 q 1 292 4 285 q 1 308 1 301 q 0 321 0 315 l 0 322 l 0 335 l 0 346 q 0 361 0 353 q 1 376 0 370 l 1 385 l 1 392 q 4 414 4 397 q 5 422 5 416 l 9 446 l 9 454 q 14 472 14 463 l 14 476 q 17 486 16 481 q 21 496 18 490 l 22 504 l 25 510 q 26 517 25 515 q 26 521 26 518 l 29 529 l 31 539 l 33 542 l 33 546 l 35 551 l 39 567 q 41 568 41 567 l 41 571 q 43 576 43 572 q 46 583 43 581 l 47 585 q 54 608 52 602 l 56 610 q 57 617 56 612 q 60 627 58 623 q 74 659 66 642 q 89 692 82 676 l 89 696 q 104 729 97 715 q 118 758 111 743 q 150 814 134 786 q 180 871 165 843 l 183 871 q 200 896 193 884 q 214 921 207 908 l 216 921 l 222 929 l 224 929 l 224 930 q 225 933 224 930 l 231 942 q 237 949 233 946 q 243 958 241 953 q 244 959 244 958 q 245 960 244 960 l 248 960 q 249 964 248 964 l 250 964 q 285 1007 267 987 q 321 1042 302 1026 l 322 1042 q 339 1059 330 1051 q 359 1076 349 1067 q 369 1081 365 1079 q 375 1084 372 1083 q 379 1089 376 1088 l 380 1089 q 389 1096 387 1096 l 392 1097 q 398 1099 395 1097 q 406 1104 401 1101 l 412 1108 q 415 1109 412 1108 l 416 1109 l 425 1114 l 427 1117 l 431 1117 q 434 1119 433 1117 q 437 1121 435 1121 l 443 1122 l 446 1122 l 452 1122 l 452 1126 l 454 1126 l 463 1126 q 467 1129 464 1129 l 476 1129 l 479 1129 q 488 1133 484 1132 q 496 1133 493 1133 l 497 1133 l 510 1133 q 538 1128 526 1131 q 567 1121 551 1125 q 592 1106 579 1113 q 616 1089 604 1099 q 632 1070 623 1080 q 652 1051 642 1061 l 652 1047 q 679 1010 665 1036 q 695 978 688 994 q 710 946 703 961 q 718 922 713 934 q 725 897 722 909 q 726 890 725 893 q 726 885 726 888 l 726 884 l 729 884 q 734 811 736 848 q 722 742 732 774 q 720 737 721 739 q 718 733 718 734 q 733 723 725 728 q 750 708 741 718 q 763 691 757 700 q 777 672 770 682 q 792 645 786 661 q 806 614 799 629 l 806 610 q 889 659 842 659 q 943 639 917 659 m 397 439 q 397 488 396 464 q 404 533 399 511 q 412 571 406 551 q 411 568 412 570 l 411 567 l 410 567 q 388 525 399 546 q 371 485 378 504 l 359 464 l 359 461 q 358 460 359 460 q 351 447 358 454 l 350 441 q 345 428 347 435 q 339 416 342 421 l 343 416 l 346 416 q 350 419 347 416 q 355 421 353 421 l 358 421 q 373 429 365 425 q 393 439 382 432 l 397 439 z "},"\"":{"ha":957,"x_min":0,"x_max":1099,"o":"m 985 627 q 1030 608 1008 624 q 1068 564 1053 591 q 1091 502 1084 536 q 1097 433 1099 468 q 1081 355 1095 391 q 1044 296 1067 319 q 1039 286 1043 293 q 1031 267 1035 279 q 1023 251 1028 260 q 1015 233 1018 243 q 1001 204 1008 218 q 986 171 994 191 q 980 159 983 165 q 974 147 977 153 l 970 142 q 963 125 967 132 q 953 109 958 118 q 944 90 949 99 q 935 71 939 81 q 909 29 924 54 q 900 17 904 22 q 893 4 896 11 l 890 4 q 881 -9 886 -1 q 865 -24 875 -17 l 865 -28 q 856 -35 861 -29 q 843 -46 850 -41 q 836 -53 840 -46 l 832 -53 l 831 -54 q 815 -61 820 -61 l 814 -65 l 811 -65 q 808 -66 810 -65 q 803 -66 806 -66 l 802 -66 l 799 -66 q 790 -71 798 -71 l 789 -71 q 785 -74 786 -71 l 782 -74 l 772 -74 l 765 -74 l 757 -74 l 755 -74 l 745 -74 q 738 -70 742 -71 q 728 -66 733 -69 q 722 -64 725 -65 q 714 -61 718 -64 q 700 -52 707 -56 q 685 -40 692 -47 q 670 -25 677 -32 q 660 -11 664 -18 l 659 -11 q 657 -8 657 -11 q 640 21 646 1 l 639 22 q 628 47 633 36 q 627 54 627 50 q 624 60 627 58 q 623 71 623 64 q 619 82 620 77 q 615 89 618 86 l 615 92 q 614 105 614 98 q 611 117 614 111 l 611 122 l 610 129 l 610 142 q 607 165 607 155 q 607 184 607 175 q 610 200 610 193 q 610 214 610 207 q 611 234 611 224 q 614 252 611 244 q 623 309 615 278 q 629 359 625 334 q 639 408 633 385 q 642 425 640 418 q 644 441 643 432 q 650 471 647 455 q 656 501 653 488 q 662 543 659 521 q 668 589 665 566 q 669 602 669 591 l 668 602 l 665 599 q 661 597 664 597 q 660 596 661 596 q 638 578 649 588 q 615 558 627 568 q 595 533 606 546 q 574 504 585 521 q 550 471 562 488 q 528 439 539 454 q 504 402 515 419 q 481 371 493 386 q 455 335 469 351 q 432 304 441 318 l 390 252 l 390 248 l 351 197 l 349 197 l 347 196 q 340 183 345 188 q 330 172 335 178 q 327 169 328 171 q 323 164 326 167 q 319 158 321 161 q 314 151 317 154 q 282 112 298 132 q 252 72 267 92 q 226 45 236 56 q 210 26 216 33 q 203 17 207 22 q 197 9 200 12 l 193 8 q 122 -28 161 -28 q 68 -8 94 -28 q 24 47 41 12 q 2 142 4 90 q 18 241 0 195 l 20 248 q 24 260 22 256 q 28 271 26 265 q 42 302 33 281 q 61 346 50 322 q 86 397 73 371 q 114 446 98 422 q 120 457 117 452 q 126 467 123 461 q 127 471 127 469 q 131 476 127 473 l 139 489 l 139 492 l 140 492 l 149 504 l 149 509 q 169 538 158 524 q 189 571 179 553 q 211 603 200 587 q 235 635 222 619 q 261 674 248 657 q 289 708 273 690 q 318 740 302 724 q 351 772 334 757 q 383 803 367 788 q 415 833 399 818 q 447 859 431 847 q 481 885 463 871 l 485 889 q 516 913 500 900 q 547 939 532 926 q 590 968 571 954 q 631 991 610 982 q 640 996 635 996 l 640 997 q 650 1001 646 1000 q 657 1004 654 1002 q 661 1005 659 1004 q 671 1008 664 1006 q 692 1013 677 1010 q 732 1022 707 1017 l 734 1022 q 744 1022 739 1022 q 753 1021 749 1022 q 844 985 800 1021 q 868 965 857 975 q 889 939 879 954 q 924 879 909 912 q 935 850 930 863 q 945 822 940 838 l 945 821 q 957 766 954 795 q 970 672 968 718 l 970 627 l 985 627 l 985 627 z "},"#":{"ha":928,"x_min":-5,"x_max":1117,"o":"m 994 585 q 1057 559 1027 585 q 1101 492 1086 533 q 1114 435 1111 465 q 1114 376 1117 406 q 1103 320 1111 347 q 1080 272 1095 293 q 1072 263 1075 268 q 1065 254 1068 258 l 1061 248 q 1057 242 1060 246 q 1051 233 1054 237 l 1039 216 l 1023 197 q 1010 178 1017 186 q 997 160 1004 170 q 987 148 991 153 q 978 135 983 143 q 975 131 977 134 q 970 126 972 129 l 970 122 l 943 89 l 916 54 l 889 21 q 878 6 884 13 q 868 -8 872 -1 l 861 -16 q 768 -66 821 -67 q 707 -46 736 -66 q 657 9 677 -25 q 635 72 640 41 q 619 52 625 60 l 603 26 l 586 1 q 539 -48 566 -31 q 485 -65 513 -65 q 430 -48 457 -65 q 382 -3 403 -32 q 352 61 362 25 q 340 136 342 97 q 347 213 339 175 q 372 285 355 252 q 380 302 376 294 q 389 317 383 310 l 390 321 l 395 329 q 406 350 400 338 q 415 372 411 361 q 427 395 422 385 q 436 416 432 406 q 448 437 443 426 q 457 460 453 449 q 476 503 468 482 q 493 546 485 524 l 494 547 q 482 531 488 538 q 472 517 476 524 q 460 499 465 507 q 449 484 454 490 q 436 462 442 471 q 427 446 431 453 q 424 441 424 446 q 414 424 420 435 q 401 404 408 414 l 399 401 q 389 383 395 392 q 378 364 383 374 q 368 343 374 355 q 355 321 363 332 l 353 317 q 344 297 349 307 q 332 277 339 288 l 326 264 q 319 250 323 257 q 311 233 314 243 q 307 226 309 231 q 302 216 306 221 q 295 203 298 210 q 289 189 292 196 l 289 184 q 280 172 283 178 q 273 158 277 165 q 270 151 272 155 q 265 142 268 146 l 220 47 l 220 46 q 176 -9 203 10 q 122 -28 150 -28 q 52 8 82 -28 q 7 96 20 40 q 7 210 -5 153 q 15 241 9 225 q 24 277 20 257 q 33 307 29 292 q 40 335 37 321 q 50 367 45 353 q 60 396 54 380 l 61 397 l 61 401 q 71 428 66 417 q 81 454 75 439 q 90 481 85 467 q 102 510 96 496 q 114 542 109 528 q 123 567 119 555 q 149 622 136 595 q 174 676 161 650 q 203 733 189 707 q 232 783 216 760 l 239 796 l 240 796 l 248 808 q 255 822 252 815 q 264 833 258 828 q 281 859 273 847 q 298 884 289 871 l 298 885 q 339 933 319 907 q 360 955 350 944 q 382 977 371 966 l 385 977 q 439 1019 412 1002 q 494 1046 467 1036 q 535 1056 515 1053 q 574 1060 554 1060 q 602 1059 589 1060 q 628 1051 615 1057 q 637 1049 633 1051 q 643 1047 640 1047 l 647 1046 q 656 1042 651 1043 q 664 1039 661 1042 l 665 1039 l 669 1035 q 675 1033 672 1034 q 681 1029 677 1032 l 685 1026 q 692 1021 688 1023 q 703 1010 696 1018 l 707 1008 l 710 1004 q 717 998 714 1002 q 722 991 720 994 l 724 991 l 726 989 q 736 972 733 979 q 739 971 739 972 l 743 964 q 748 957 746 961 q 753 947 750 953 q 760 935 755 943 q 768 917 765 926 l 770 914 q 778 892 775 903 l 781 885 q 783 872 782 878 q 786 860 785 865 l 786 859 q 789 849 789 856 q 793 833 790 843 l 793 827 q 793 824 793 824 q 794 822 794 823 l 794 821 q 796 811 794 815 q 798 804 798 807 q 798 792 798 798 q 799 783 799 787 l 810 783 l 811 783 l 814 783 l 822 783 l 823 779 l 832 779 q 841 778 838 779 q 847 777 844 777 l 851 777 q 857 773 852 774 q 865 771 861 772 q 870 767 868 768 q 873 764 872 766 q 883 759 879 761 q 893 754 888 757 q 898 749 896 751 q 903 746 900 747 q 906 744 905 746 q 909 742 907 742 q 918 733 912 736 q 931 718 925 725 q 940 708 937 710 l 940 704 l 943 704 l 943 701 q 945 699 945 701 q 947 697 945 697 q 953 689 950 694 l 953 685 q 957 679 956 684 q 961 671 961 675 q 964 667 964 671 l 965 664 q 966 661 965 663 q 968 659 966 660 l 970 654 l 974 647 q 977 642 974 646 q 981 633 977 635 q 988 609 985 621 q 994 585 991 597 z "},"$":{"ha":1090,"x_min":-7,"x_max":1043,"o":"m 979 675 q 1010 639 998 661 q 1031 590 1023 616 q 1041 533 1039 564 q 1038 472 1043 503 q 1013 359 1027 415 q 995 305 1004 332 q 975 254 986 278 q 921 147 950 193 q 902 122 911 135 q 884 97 893 109 q 861 74 873 85 q 838 54 848 64 q 718 9 781 9 l 717 9 l 704 9 l 700 9 l 697 9 l 688 9 l 685 9 l 681 12 l 676 12 l 675 12 l 672 12 l 668 12 q 661 16 665 15 q 654 18 657 17 l 652 18 l 646 18 l 646 20 q 643 22 646 22 l 640 22 q 637 25 637 22 l 631 25 l 629 29 l 627 29 q 617 35 624 31 q 604 43 611 39 l 600 47 q 591 55 595 53 q 585 60 587 57 l 583 62 l 579 66 l 578 66 q 576 68 576 66 q 571 75 574 71 q 567 79 568 79 l 567 81 q 539 118 551 99 q 518 163 528 138 q 514 153 515 157 q 510 143 513 149 q 493 108 500 123 q 475 79 485 93 q 447 37 463 56 q 425 17 436 26 q 401 -3 414 7 q 389 -8 395 -8 l 387 -8 q 380 -12 385 -12 q 374 -17 378 -15 q 367 -20 371 -20 q 355 -21 360 -21 q 347 -21 350 -21 q 345 -23 346 -21 q 342 -25 343 -25 l 334 -25 l 330 -25 l 329 -25 l 326 -25 l 325 -25 q 319 -23 322 -25 q 314 -21 317 -21 l 313 -21 l 310 -21 l 309 -21 l 306 -21 l 304 -20 l 300 -20 q 295 -18 297 -20 q 292 -16 293 -16 l 289 -16 q 272 -8 283 -16 q 269 -6 271 -7 q 264 -3 267 -5 l 260 -3 q 175 104 207 31 q 170 115 172 111 q 164 125 167 119 q 163 130 163 127 q 160 135 163 132 q 141 128 151 131 q 121 125 132 125 q 80 135 100 125 q 46 167 61 144 q 4 261 14 204 q 8 375 -7 318 q 17 406 12 389 q 26 437 22 422 q 30 450 29 444 q 33 460 31 456 l 37 468 q 40 480 39 473 q 43 492 41 486 l 46 500 q 51 514 49 507 q 56 530 53 521 l 64 559 l 75 587 q 79 601 77 594 q 83 616 81 608 l 93 647 l 114 705 l 134 762 q 135 764 134 762 l 135 766 l 154 822 q 158 832 155 827 q 163 842 160 836 q 163 845 163 843 q 164 850 164 847 q 219 932 185 901 q 293 962 253 962 q 363 937 330 962 q 431 817 412 897 q 437 850 433 832 q 443 888 440 868 q 453 938 448 914 q 463 987 457 962 l 500 1192 q 553 1309 513 1263 q 643 1354 593 1354 q 663 1352 652 1354 q 684 1348 673 1350 q 732 1311 710 1337 q 769 1253 754 1286 q 790 1179 783 1219 q 791 1097 796 1139 l 787 1075 l 785 1054 q 784 1033 785 1044 q 783 1013 783 1022 q 779 970 781 991 q 775 929 777 949 l 775 925 q 774 885 775 905 q 771 842 772 865 q 766 755 767 793 q 764 714 764 736 q 762 672 764 693 l 762 631 q 760 611 760 620 q 760 591 760 602 l 760 550 l 760 534 l 760 530 l 760 513 q 761 500 760 506 q 762 488 762 494 l 762 489 q 764 492 762 492 q 777 515 770 503 q 791 543 783 528 q 798 558 794 551 q 804 572 802 566 q 814 604 812 588 l 817 604 q 860 673 832 649 q 921 697 888 697 q 979 675 953 697 z "},"%":{"ha":703,"x_min":1,"x_max":785,"o":"m 785 921 l 785 893 q 784 877 785 884 q 783 864 783 869 l 783 859 q 776 824 781 839 q 768 800 771 810 l 768 796 q 755 767 762 781 q 743 743 749 753 q 734 725 739 734 q 726 708 729 715 q 719 699 722 703 q 710 688 715 694 q 703 674 707 680 q 696 664 699 669 q 690 655 693 660 q 684 646 686 650 q 674 632 678 639 q 664 621 669 625 q 660 614 664 614 q 659 595 659 604 q 656 576 659 586 q 647 497 652 538 q 642 414 643 457 q 637 339 637 376 l 637 330 q 729 245 697 322 q 748 144 749 198 q 726 46 747 90 l 722 39 q 710 14 720 31 q 700 -5 706 4 q 688 -24 694 -14 q 679 -36 681 -33 q 676 -37 677 -36 q 671 -44 673 -40 q 667 -50 668 -49 l 664 -50 q 650 -67 657 -60 q 633 -82 643 -75 q 609 -97 621 -92 q 583 -107 597 -102 q 566 -111 575 -110 q 550 -111 557 -111 q 531 -111 541 -111 q 513 -104 522 -110 q 443 -57 475 -96 l 441 -57 q 400 5 418 -28 q 375 68 388 35 q 368 97 372 83 q 359 125 363 110 q 354 151 357 138 q 350 176 351 163 q 342 171 347 175 q 335 164 338 167 l 335 163 q 326 153 331 157 q 314 143 321 149 q 311 138 313 140 q 310 134 310 136 q 297 121 303 130 q 252 75 271 97 q 244 66 248 70 q 237 58 240 62 q 233 55 235 58 q 229 50 231 52 q 147 -29 200 -14 q 136 -31 140 -29 q 126 -32 132 -32 l 122 -32 q 119 -31 121 -32 q 114 -29 117 -29 q 83 -20 100 -29 q 68 -9 75 -14 q 54 5 61 -4 q 20 58 33 26 q 1 126 7 89 l 1 163 l 1 176 q 3 186 1 182 q 4 196 4 191 l 4 200 q 17 250 9 231 q 33 294 24 270 q 58 346 43 318 q 84 392 71 370 q 114 439 98 415 q 121 451 117 447 q 126 458 125 456 q 131 468 130 464 q 140 480 136 473 q 150 493 144 486 q 169 522 159 509 q 189 550 179 534 q 210 575 199 561 q 233 606 221 589 q 258 638 245 621 q 283 668 271 654 q 309 697 296 684 q 339 726 322 711 l 372 758 q 376 775 375 768 q 379 793 376 783 q 416 918 397 861 q 423 933 419 925 q 431 951 427 942 q 439 971 436 964 q 447 989 443 979 q 457 1007 452 998 q 468 1025 461 1017 q 482 1045 475 1036 q 496 1064 489 1054 l 497 1064 q 516 1083 507 1074 q 538 1101 526 1092 q 563 1118 550 1111 q 591 1126 576 1125 q 598 1128 595 1126 q 604 1131 602 1131 l 612 1131 l 614 1131 l 616 1131 l 623 1131 l 633 1131 l 639 1131 l 642 1131 l 643 1131 l 646 1131 q 652 1126 647 1126 l 654 1126 l 659 1126 q 700 1105 675 1124 q 704 1101 701 1105 q 710 1098 707 1100 q 717 1093 714 1096 q 718 1090 717 1092 q 721 1089 718 1089 q 728 1080 724 1085 q 734 1071 732 1075 q 738 1066 737 1068 q 742 1064 739 1064 q 747 1053 743 1060 q 758 1034 751 1046 q 765 1018 761 1027 q 772 996 770 1008 q 775 988 775 990 q 777 981 775 986 l 777 975 q 781 958 781 964 l 781 956 q 783 944 783 951 q 785 930 783 937 l 785 921 z "},"&":{"ha":983,"x_min":1,"x_max":1104,"o":"m 990 696 q 1037 676 1015 693 q 1074 633 1059 660 q 1097 573 1089 607 q 1103 501 1104 539 q 1085 424 1100 460 q 1048 364 1071 387 q 1045 354 1047 360 q 1040 342 1043 349 q 1028 305 1034 326 q 1015 260 1022 283 q 1009 241 1013 250 q 1003 221 1006 232 l 990 183 l 989 179 q 981 156 986 168 q 974 134 977 144 q 964 105 970 118 q 951 77 958 92 q 942 58 946 67 q 935 41 939 49 q 931 34 932 36 q 928 29 930 32 q 925 23 926 26 q 922 17 924 20 q 918 11 920 14 q 914 8 916 8 l 914 4 q 907 -4 907 0 l 905 -4 q 901 -9 903 -7 q 897 -17 900 -12 l 895 -21 l 893 -21 q 888 -26 890 -24 q 885 -29 886 -28 l 884 -29 q 882 -33 882 -29 l 880 -33 q 877 -37 878 -36 q 873 -40 876 -37 l 872 -40 q 871 -41 872 -41 l 869 -41 l 868 -46 l 865 -46 q 863 -50 864 -49 q 860 -53 861 -50 l 857 -53 l 856 -53 l 852 -54 l 848 -54 q 836 -61 842 -61 q 830 -64 833 -64 q 823 -66 827 -65 l 822 -66 l 819 -66 l 818 -66 l 815 -66 l 814 -71 l 811 -71 l 802 -71 l 798 -71 l 793 -71 l 790 -71 q 781 -70 787 -71 q 768 -66 775 -69 l 764 -66 q 751 -61 757 -66 q 730 -53 743 -61 q 714 -41 722 -47 q 699 -28 707 -35 q 692 -19 696 -22 q 686 -11 689 -16 l 686 -9 l 685 -8 q 680 -2 682 -5 q 676 4 677 1 q 665 25 669 16 q 660 39 661 35 l 659 39 q 657 41 657 39 q 656 45 656 43 q 654 47 654 46 q 653 52 654 49 l 653 54 l 652 58 q 650 62 652 60 q 647 71 648 65 q 644 78 644 75 q 643 85 644 81 l 643 89 l 640 92 l 640 96 l 640 97 q 640 101 640 100 q 639 104 639 102 l 639 109 l 639 110 l 636 114 l 636 121 q 627 111 632 115 q 618 102 623 107 q 608 95 612 99 q 599 89 604 92 q 572 71 585 73 l 570 71 q 567 67 568 68 q 564 64 566 66 l 557 64 q 547 58 555 61 l 545 58 l 543 58 l 541 58 l 539 58 q 534 54 539 58 l 532 54 l 528 54 l 526 54 l 524 54 l 511 54 l 497 54 q 490 56 494 54 q 478 58 485 58 q 457 71 470 60 l 456 71 q 445 76 450 72 q 435 85 439 81 l 432 85 q 423 97 428 90 q 414 109 418 103 l 411 109 l 411 110 q 404 121 407 115 q 395 135 400 127 q 385 160 385 157 q 382 161 382 160 l 382 164 q 378 178 379 171 q 374 189 376 184 q 370 210 371 200 q 366 227 368 220 l 366 229 q 365 236 366 233 q 364 241 364 239 l 364 245 l 364 260 q 361 279 361 267 q 361 288 361 283 q 364 296 361 293 q 365 317 364 307 q 366 334 366 328 l 366 335 q 370 358 370 352 q 373 369 372 365 q 376 379 374 374 q 344 317 358 346 q 319 267 330 289 q 291 204 304 232 q 268 154 278 176 l 222 52 l 222 47 q 178 -9 204 10 q 122 -29 151 -29 q 56 1 85 -29 q 28 38 40 17 q 11 85 17 60 q 3 138 4 110 q 5 192 1 165 l 5 196 l 7 201 l 7 204 q 9 218 9 211 q 11 233 9 225 q 22 283 16 258 q 35 335 28 307 q 57 410 45 372 q 81 484 68 447 q 114 577 96 532 q 151 664 132 623 q 177 715 163 689 q 203 764 191 741 q 238 820 221 794 q 273 867 254 846 q 318 917 292 892 q 343 940 330 930 q 368 960 355 950 q 396 978 382 969 q 427 996 411 987 q 459 1007 444 1002 q 490 1017 475 1011 l 510 1017 l 511 1017 q 517 1019 514 1017 q 522 1021 519 1021 l 526 1021 l 528 1021 l 539 1021 l 551 1017 l 557 1017 l 559 1017 l 561 1017 l 566 1017 l 568 1017 q 602 1004 585 1011 q 632 983 618 997 l 635 983 q 653 965 644 975 q 669 942 663 954 q 685 919 677 932 q 699 892 692 905 q 713 844 707 868 q 722 791 720 819 q 725 759 724 776 q 726 722 726 742 l 726 721 q 725 715 726 718 q 724 710 724 713 q 732 714 728 714 l 743 714 l 745 714 q 749 717 745 717 l 753 717 l 755 717 l 760 717 l 764 717 l 768 717 l 774 717 q 777 715 775 717 l 777 714 l 781 714 l 782 714 l 785 714 l 786 714 q 798 710 793 714 q 806 708 803 710 l 807 708 q 836 694 823 703 q 861 672 848 685 q 885 647 875 663 q 901 664 892 656 q 930 684 915 675 q 961 696 946 693 l 965 696 l 981 696 l 990 696 m 724 708 q 739 713 732 712 q 753 717 746 714 q 739 713 746 714 q 724 708 732 712 z "},"'":{"ha":798,"x_min":1,"x_max":1055,"o":"m 669 -78 l 668 -78 l 669 -78 m 935 604 q 990 584 964 604 q 1035 529 1017 564 q 1054 424 1055 481 q 1035 322 1054 367 q 1022 295 1028 309 q 1007 267 1015 281 q 1001 255 1004 261 q 993 241 997 249 q 987 229 990 233 q 978 216 983 224 l 972 204 l 965 192 l 964 192 q 958 180 961 186 q 949 168 954 174 q 935 145 942 157 q 920 122 928 134 l 918 122 l 916 118 q 909 109 913 114 q 901 97 905 104 l 895 87 l 893 87 l 886 79 q 880 70 884 74 q 873 60 876 65 q 871 57 873 60 l 869 56 q 865 54 868 54 q 861 47 865 52 q 855 40 859 45 q 847 31 851 36 q 827 8 838 20 q 806 -12 817 -3 l 803 -12 l 802 -16 q 793 -21 799 -20 l 790 -25 l 782 -32 q 770 -40 777 -33 l 768 -40 q 756 -47 762 -44 q 749 -53 751 -50 l 743 -57 q 741 -58 742 -57 l 739 -58 q 732 -62 735 -58 l 730 -62 l 724 -65 q 711 -69 718 -69 l 710 -69 l 707 -71 l 705 -71 q 694 -75 699 -71 l 686 -75 l 681 -78 l 677 -78 l 664 -78 l 661 -78 l 660 -78 l 652 -78 q 574 -46 610 -74 q 518 17 542 -25 q 500 45 509 31 q 485 79 492 60 q 479 92 482 86 q 473 106 476 98 q 469 104 472 106 l 456 92 l 453 92 l 436 79 q 400 54 416 64 q 368 35 383 45 q 333 14 353 25 q 289 -7 313 3 l 281 -8 l 279 -8 q 278 -12 278 -8 l 269 -12 q 268 -14 268 -12 l 268 -16 l 265 -16 l 257 -20 l 252 -20 l 243 -21 l 240 -21 l 239 -21 q 227 -25 232 -21 l 214 -25 q 205 -28 207 -25 l 203 -28 l 201 -28 l 195 -28 q 190 -26 192 -28 q 184 -25 187 -25 l 178 -25 q 165 -23 171 -25 q 157 -21 160 -21 l 157 -20 l 155 -20 q 146 -18 150 -20 q 139 -12 142 -16 q 119 -3 134 -12 l 115 0 q 112 3 114 3 q 107 5 110 4 q 104 9 106 8 q 102 12 103 9 q 98 17 99 12 q 90 22 96 17 q 86 25 89 25 l 85 29 q 82 31 85 29 q 78 37 81 33 q 69 47 75 40 l 65 54 q 56 72 57 64 q 46 86 50 79 q 40 97 43 93 l 40 100 q 39 103 39 101 l 39 106 q 27 134 32 121 q 20 163 22 147 q 9 210 13 186 q 3 260 5 233 l 3 262 q 1 301 1 282 q 1 342 1 319 l 1 343 q 5 416 3 379 q 16 488 8 453 q 30 552 22 519 q 49 616 37 585 q 70 674 58 646 q 93 730 81 703 q 118 785 105 760 q 133 811 125 800 q 149 835 142 822 q 182 883 164 860 q 220 929 200 907 q 267 971 243 953 q 315 1000 290 989 q 346 1012 331 1007 q 376 1017 361 1017 l 382 1017 l 382 1018 l 393 1018 l 395 1018 q 411 1017 407 1018 l 414 1017 l 431 1017 q 439 1013 432 1013 l 440 1013 q 518 937 489 1000 q 537 874 532 909 q 539 804 543 839 q 508 710 532 749 q 447 656 484 671 l 440 656 l 439 654 l 436 654 l 435 654 l 435 650 l 432 650 l 431 650 q 429 647 431 648 l 428 647 l 424 643 q 399 612 410 629 l 397 610 q 382 585 389 599 q 376 574 379 581 q 370 559 372 567 l 368 559 q 355 529 361 546 q 340 497 349 513 q 333 472 336 485 q 323 447 329 458 q 335 461 330 454 q 345 472 340 468 q 347 475 345 475 q 369 503 358 488 q 393 534 380 518 q 415 565 403 550 q 439 597 427 581 q 451 614 446 607 q 461 629 457 621 q 467 636 464 633 q 472 643 469 639 l 481 660 q 531 709 503 693 q 589 725 558 725 q 694 663 650 725 q 727 588 715 629 q 739 500 739 547 l 739 485 l 739 472 l 739 450 q 741 443 741 448 q 744 445 743 443 q 747 450 745 447 l 751 454 l 760 463 l 761 463 q 777 479 765 468 q 791 494 783 486 q 806 505 799 501 l 865 572 q 935 604 897 604 z "},"(":{"ha":791,"x_min":0,"x_max":1013,"o":"m 943 639 q 995 562 978 612 q 1008 454 1013 511 l 1008 452 l 1008 447 l 1008 441 l 1008 439 q 1005 420 1006 429 q 1002 401 1004 411 q 990 337 998 370 q 972 272 982 304 q 958 225 966 248 q 939 183 950 203 l 939 179 l 935 171 q 933 164 933 171 l 929 158 q 923 145 926 150 q 917 135 920 140 l 914 134 q 910 124 911 128 q 905 117 908 119 l 904 117 l 904 114 q 899 107 901 111 q 893 97 896 103 l 888 92 l 888 90 q 885 89 888 89 q 884 85 884 86 q 882 82 884 83 l 879 79 l 876 77 l 872 72 q 867 64 869 69 l 864 60 l 863 60 l 860 58 q 850 47 859 56 l 847 46 l 839 39 l 838 35 q 834 33 835 33 q 831 29 833 32 l 829 29 l 827 29 l 822 26 l 818 22 q 812 18 815 18 q 806 14 808 17 l 804 14 l 802 9 q 789 4 799 9 l 787 4 q 785 1 787 4 l 775 -3 l 772 -3 q 762 -4 768 -4 l 760 -4 l 760 -8 l 755 -8 l 754 -8 l 750 -8 l 747 -11 l 734 -11 l 733 -11 l 729 -16 l 725 -16 l 717 -16 l 713 -16 l 708 -16 l 700 -16 l 697 -16 l 696 -16 l 693 -16 l 688 -16 l 685 -11 l 684 -11 l 675 -11 q 639 1 658 -7 l 637 1 q 620 11 628 7 q 604 21 611 16 q 567 48 585 32 q 529 85 549 65 q 517 74 522 78 q 504 64 511 69 q 475 42 488 52 q 450 22 463 32 q 432 13 441 18 q 416 4 424 8 l 412 1 l 410 1 l 408 1 q 404 -3 406 -3 l 397 -4 l 396 -4 l 393 -7 q 389 -8 392 -8 l 383 -11 q 374 -15 378 -14 q 367 -16 370 -16 l 367 -17 q 358 -19 361 -17 q 351 -21 354 -21 l 350 -21 l 346 -21 q 330 -26 338 -24 q 313 -28 322 -28 l 310 -28 q 295 -29 303 -29 q 279 -29 286 -29 q 256 -29 269 -29 q 233 -28 244 -29 q 225 -24 231 -25 q 212 -21 220 -24 q 204 -17 205 -21 l 200 -17 l 193 -16 q 184 -12 189 -13 q 176 -8 179 -11 l 175 -8 q 166 -3 170 -5 q 160 1 163 -1 l 158 1 q 152 6 155 4 q 143 9 149 8 l 142 9 q 134 17 139 12 q 122 26 129 22 l 121 26 q 115 31 118 29 q 110 35 113 33 q 109 37 110 35 l 109 39 l 102 46 q 94 54 98 50 q 87 60 90 58 l 87 64 l 85 64 q 81 71 83 66 q 72 83 78 75 q 63 95 68 87 q 52 114 58 102 q 41 135 45 125 q 35 151 37 144 l 33 151 q 28 166 31 161 q 25 176 26 172 l 25 179 q 20 191 22 183 q 17 208 18 199 q 14 215 14 212 q 12 222 14 218 q 8 248 8 241 q 5 274 5 263 q 1 292 4 285 q 1 308 1 301 q 0 321 0 315 l 0 322 l 0 335 l 0 346 q 0 361 0 353 q 1 376 0 370 l 1 385 l 1 392 q 4 414 4 397 q 5 422 5 416 l 9 446 l 9 454 q 14 472 14 463 l 14 476 q 17 486 16 481 q 21 496 18 490 l 22 504 l 25 510 q 26 517 25 515 q 26 521 26 518 l 29 529 l 31 539 l 33 542 l 33 546 l 35 551 l 39 567 q 41 568 41 567 l 41 571 q 43 576 43 572 q 46 583 43 581 l 47 585 q 54 608 52 602 l 56 610 q 57 617 56 612 q 60 627 58 623 q 74 659 66 642 q 89 692 82 676 l 89 696 q 104 729 97 715 q 118 758 111 743 q 150 814 134 786 q 180 871 165 843 l 183 871 q 200 896 193 884 q 214 921 207 908 l 216 921 l 222 929 l 224 929 l 224 930 q 225 933 224 930 l 231 942 q 237 949 233 946 q 243 958 241 953 q 244 959 244 958 q 245 960 244 960 l 248 960 q 249 964 248 964 l 250 964 q 285 1007 267 987 q 321 1042 302 1026 l 322 1042 q 339 1059 330 1051 q 359 1076 349 1067 q 369 1081 365 1079 q 375 1084 372 1083 q 379 1089 376 1088 l 380 1089 q 389 1096 387 1096 l 392 1097 q 398 1099 395 1097 q 406 1104 401 1101 l 412 1108 q 415 1109 412 1108 l 416 1109 l 425 1114 l 427 1117 l 431 1117 q 434 1119 433 1117 q 437 1121 435 1121 l 443 1122 l 446 1122 l 452 1122 l 452 1126 l 454 1126 l 463 1126 q 467 1129 464 1129 l 476 1129 l 479 1129 q 488 1133 484 1132 q 496 1133 493 1133 l 497 1133 l 510 1133 q 538 1128 526 1131 q 567 1121 551 1125 q 592 1106 579 1113 q 616 1089 604 1099 q 632 1070 623 1080 q 652 1051 642 1061 l 652 1047 q 679 1010 665 1036 q 695 978 688 994 q 710 946 703 961 q 718 922 713 934 q 725 897 722 909 q 726 890 725 893 q 726 885 726 888 l 726 884 l 729 884 q 734 811 736 848 q 722 742 732 774 q 720 737 721 739 q 718 733 718 734 q 733 723 725 728 q 750 708 741 718 q 763 691 757 700 q 777 672 770 682 q 792 645 786 661 q 806 614 799 629 l 806 610 q 889 659 842 659 q 943 639 917 659 m 397 439 q 397 488 396 464 q 404 533 399 511 q 412 571 406 551 q 411 568 412 570 l 411 567 l 410 567 q 388 525 399 546 q 371 485 378 504 l 359 464 l 359 461 q 358 460 359 460 q 351 447 358 454 l 350 441 q 345 428 347 435 q 339 416 342 421 l 343 416 l 346 416 q 350 419 347 416 q 355 421 353 421 l 358 421 q 373 429 365 425 q 393 439 382 432 l 397 439 z "},")":{"ha":957,"x_min":0,"x_max":1099,"o":"m 985 627 q 1030 608 1008 624 q 1068 564 1053 591 q 1091 502 1084 536 q 1097 433 1099 468 q 1081 355 1095 391 q 1044 296 1067 319 q 1039 286 1043 293 q 1031 267 1035 279 q 1023 251 1028 260 q 1015 233 1018 243 q 1001 204 1008 218 q 986 171 994 191 q 980 159 983 165 q 974 147 977 153 l 970 142 q 963 125 967 132 q 953 109 958 118 q 944 90 949 99 q 935 71 939 81 q 909 29 924 54 q 900 17 904 22 q 893 4 896 11 l 890 4 q 881 -9 886 -1 q 865 -24 875 -17 l 865 -28 q 856 -35 861 -29 q 843 -46 850 -41 q 836 -53 840 -46 l 832 -53 l 831 -54 q 815 -61 820 -61 l 814 -65 l 811 -65 q 808 -66 810 -65 q 803 -66 806 -66 l 802 -66 l 799 -66 q 790 -71 798 -71 l 789 -71 q 785 -74 786 -71 l 782 -74 l 772 -74 l 765 -74 l 757 -74 l 755 -74 l 745 -74 q 738 -70 742 -71 q 728 -66 733 -69 q 722 -64 725 -65 q 714 -61 718 -64 q 700 -52 707 -56 q 685 -40 692 -47 q 670 -25 677 -32 q 660 -11 664 -18 l 659 -11 q 657 -8 657 -11 q 640 21 646 1 l 639 22 q 628 47 633 36 q 627 54 627 50 q 624 60 627 58 q 623 71 623 64 q 619 82 620 77 q 615 89 618 86 l 615 92 q 614 105 614 98 q 611 117 614 111 l 611 122 l 610 129 l 610 142 q 607 165 607 155 q 607 184 607 175 q 610 200 610 193 q 610 214 610 207 q 611 234 611 224 q 614 252 611 244 q 623 309 615 278 q 629 359 625 334 q 639 408 633 385 q 642 425 640 418 q 644 441 643 432 q 650 471 647 455 q 656 501 653 488 q 662 543 659 521 q 668 589 665 566 q 669 602 669 591 l 668 602 l 665 599 q 661 597 664 597 q 660 596 661 596 q 638 578 649 588 q 615 558 627 568 q 595 533 606 546 q 574 504 585 521 q 550 471 562 488 q 528 439 539 454 q 504 402 515 419 q 481 371 493 386 q 455 335 469 351 q 432 304 441 318 l 390 252 l 390 248 l 351 197 l 349 197 l 347 196 q 340 183 345 188 q 330 172 335 178 q 327 169 328 171 q 323 164 326 167 q 319 158 321 161 q 314 151 317 154 q 282 112 298 132 q 252 72 267 92 q 226 45 236 56 q 210 26 216 33 q 203 17 207 22 q 197 9 200 12 l 193 8 q 122 -28 161 -28 q 68 -8 94 -28 q 24 47 41 12 q 2 142 4 90 q 18 241 0 195 l 20 248 q 24 260 22 256 q 28 271 26 265 q 42 302 33 281 q 61 346 50 322 q 86 397 73 371 q 114 446 98 422 q 120 457 117 452 q 126 467 123 461 q 127 471 127 469 q 131 476 127 473 l 139 489 l 139 492 l 140 492 l 149 504 l 149 509 q 169 538 158 524 q 189 571 179 553 q 211 603 200 587 q 235 635 222 619 q 261 674 248 657 q 289 708 273 690 q 318 740 302 724 q 351 772 334 757 q 383 803 367 788 q 415 833 399 818 q 447 859 431 847 q 481 885 463 871 l 485 889 q 516 913 500 900 q 547 939 532 926 q 590 968 571 954 q 631 991 610 982 q 640 996 635 996 l 640 997 q 650 1001 646 1000 q 657 1004 654 1002 q 661 1005 659 1004 q 671 1008 664 1006 q 692 1013 677 1010 q 732 1022 707 1017 l 734 1022 q 744 1022 739 1022 q 753 1021 749 1022 q 844 985 800 1021 q 868 965 857 975 q 889 939 879 954 q 924 879 909 912 q 935 850 930 863 q 945 822 940 838 l 945 821 q 957 766 954 795 q 970 672 968 718 l 970 627 l 985 627 l 985 627 z "},"*":{"ha":928,"x_min":-5,"x_max":1117,"o":"m 994 585 q 1057 559 1027 585 q 1101 492 1086 533 q 1114 435 1111 465 q 1114 376 1117 406 q 1103 320 1111 347 q 1080 272 1095 293 q 1072 263 1075 268 q 1065 254 1068 258 l 1061 248 q 1057 242 1060 246 q 1051 233 1054 237 l 1039 216 l 1023 197 q 1010 178 1017 186 q 997 160 1004 170 q 987 148 991 153 q 978 135 983 143 q 975 131 977 134 q 970 126 972 129 l 970 122 l 943 89 l 916 54 l 889 21 q 878 6 884 13 q 868 -8 872 -1 l 861 -16 q 768 -66 821 -67 q 707 -46 736 -66 q 657 9 677 -25 q 635 72 640 41 q 619 52 625 60 l 603 26 l 586 1 q 539 -48 566 -31 q 485 -65 513 -65 q 430 -48 457 -65 q 382 -3 403 -32 q 352 61 362 25 q 340 136 342 97 q 347 213 339 175 q 372 285 355 252 q 380 302 376 294 q 389 317 383 310 l 390 321 l 395 329 q 406 350 400 338 q 415 372 411 361 q 427 395 422 385 q 436 416 432 406 q 448 437 443 426 q 457 460 453 449 q 476 503 468 482 q 493 546 485 524 l 494 547 q 482 531 488 538 q 472 517 476 524 q 460 499 465 507 q 449 484 454 490 q 436 462 442 471 q 427 446 431 453 q 424 441 424 446 q 414 424 420 435 q 401 404 408 414 l 399 401 q 389 383 395 392 q 378 364 383 374 q 368 343 374 355 q 355 321 363 332 l 353 317 q 344 297 349 307 q 332 277 339 288 l 326 264 q 319 250 323 257 q 311 233 314 243 q 307 226 309 231 q 302 216 306 221 q 295 203 298 210 q 289 189 292 196 l 289 184 q 280 172 283 178 q 273 158 277 165 q 270 151 272 155 q 265 142 268 146 l 220 47 l 220 46 q 176 -9 203 10 q 122 -28 150 -28 q 52 8 82 -28 q 7 96 20 40 q 7 210 -5 153 q 15 241 9 225 q 24 277 20 257 q 33 307 29 292 q 40 335 37 321 q 50 367 45 353 q 60 396 54 380 l 61 397 l 61 401 q 71 428 66 417 q 81 454 75 439 q 90 481 85 467 q 102 510 96 496 q 114 542 109 528 q 123 567 119 555 q 149 622 136 595 q 174 676 161 650 q 203 733 189 707 q 232 783 216 760 l 239 796 l 240 796 l 248 808 q 255 822 252 815 q 264 833 258 828 q 281 859 273 847 q 298 884 289 871 l 298 885 q 339 933 319 907 q 360 955 350 944 q 382 977 371 966 l 385 977 q 439 1019 412 1002 q 494 1046 467 1036 q 535 1056 515 1053 q 574 1060 554 1060 q 602 1059 589 1060 q 628 1051 615 1057 q 637 1049 633 1051 q 643 1047 640 1047 l 647 1046 q 656 1042 651 1043 q 664 1039 661 1042 l 665 1039 l 669 1035 q 675 1033 672 1034 q 681 1029 677 1032 l 685 1026 q 692 1021 688 1023 q 703 1010 696 1018 l 707 1008 l 710 1004 q 717 998 714 1002 q 722 991 720 994 l 724 991 l 726 989 q 736 972 733 979 q 739 971 739 972 l 743 964 q 748 957 746 961 q 753 947 750 953 q 760 935 755 943 q 768 917 765 926 l 770 914 q 778 892 775 903 l 781 885 q 783 872 782 878 q 786 860 785 865 l 786 859 q 789 849 789 856 q 793 833 790 843 l 793 827 q 793 824 793 824 q 794 822 794 823 l 794 821 q 796 811 794 815 q 798 804 798 807 q 798 792 798 798 q 799 783 799 787 l 810 783 l 811 783 l 814 783 l 822 783 l 823 779 l 832 779 q 841 778 838 779 q 847 777 844 777 l 851 777 q 857 773 852 774 q 865 771 861 772 q 870 767 868 768 q 873 764 872 766 q 883 759 879 761 q 893 754 888 757 q 898 749 896 751 q 903 746 900 747 q 906 744 905 746 q 909 742 907 742 q 918 733 912 736 q 931 718 925 725 q 940 708 937 710 l 940 704 l 943 704 l 943 701 q 945 699 945 701 q 947 697 945 697 q 953 689 950 694 l 953 685 q 957 679 956 684 q 961 671 961 675 q 964 667 964 671 l 965 664 q 966 661 965 663 q 968 659 966 660 l 970 654 l 974 647 q 977 642 974 646 q 981 633 977 635 q 988 609 985 621 q 994 585 991 597 z "},"+":{"ha":1090,"x_min":-7,"x_max":1043,"o":"m 979 675 q 1010 639 998 661 q 1031 590 1023 616 q 1041 533 1039 564 q 1038 472 1043 503 q 1013 359 1027 415 q 995 305 1004 332 q 975 254 986 278 q 921 147 950 193 q 902 122 911 135 q 884 97 893 109 q 861 74 873 85 q 838 54 848 64 q 718 9 781 9 l 717 9 l 704 9 l 700 9 l 697 9 l 688 9 l 685 9 l 681 12 l 676 12 l 675 12 l 672 12 l 668 12 q 661 16 665 15 q 654 18 657 17 l 652 18 l 646 18 l 646 20 q 643 22 646 22 l 640 22 q 637 25 637 22 l 631 25 l 629 29 l 627 29 q 617 35 624 31 q 604 43 611 39 l 600 47 q 591 55 595 53 q 585 60 587 57 l 583 62 l 579 66 l 578 66 q 576 68 576 66 q 571 75 574 71 q 567 79 568 79 l 567 81 q 539 118 551 99 q 518 163 528 138 q 514 153 515 157 q 510 143 513 149 q 493 108 500 123 q 475 79 485 93 q 447 37 463 56 q 425 17 436 26 q 401 -3 414 7 q 389 -8 395 -8 l 387 -8 q 380 -12 385 -12 q 374 -17 378 -15 q 367 -20 371 -20 q 355 -21 360 -21 q 347 -21 350 -21 q 345 -23 346 -21 q 342 -25 343 -25 l 334 -25 l 330 -25 l 329 -25 l 326 -25 l 325 -25 q 319 -23 322 -25 q 314 -21 317 -21 l 313 -21 l 310 -21 l 309 -21 l 306 -21 l 304 -20 l 300 -20 q 295 -18 297 -20 q 292 -16 293 -16 l 289 -16 q 272 -8 283 -16 q 269 -6 271 -7 q 264 -3 267 -5 l 260 -3 q 175 104 207 31 q 170 115 172 111 q 164 125 167 119 q 163 130 163 127 q 160 135 163 132 q 141 128 151 131 q 121 125 132 125 q 80 135 100 125 q 46 167 61 144 q 4 261 14 204 q 8 375 -7 318 q 17 406 12 389 q 26 437 22 422 q 30 450 29 444 q 33 460 31 456 l 37 468 q 40 480 39 473 q 43 492 41 486 l 46 500 q 51 514 49 507 q 56 530 53 521 l 64 559 l 75 587 q 79 601 77 594 q 83 616 81 608 l 93 647 l 114 705 l 134 762 q 135 764 134 762 l 135 766 l 154 822 q 158 832 155 827 q 163 842 160 836 q 163 845 163 843 q 164 850 164 847 q 219 932 185 901 q 293 962 253 962 q 363 937 330 962 q 431 817 412 897 q 437 850 433 832 q 443 888 440 868 q 453 938 448 914 q 463 987 457 962 l 500 1192 q 553 1309 513 1263 q 643 1354 593 1354 q 663 1352 652 1354 q 684 1348 673 1350 q 732 1311 710 1337 q 769 1253 754 1286 q 790 1179 783 1219 q 791 1097 796 1139 l 787 1075 l 785 1054 q 784 1033 785 1044 q 783 1013 783 1022 q 779 970 781 991 q 775 929 777 949 l 775 925 q 774 885 775 905 q 771 842 772 865 q 766 755 767 793 q 764 714 764 736 q 762 672 764 693 l 762 631 q 760 611 760 620 q 760 591 760 602 l 760 550 l 760 534 l 760 530 l 760 513 q 761 500 760 506 q 762 488 762 494 l 762 489 q 764 492 762 492 q 777 515 770 503 q 791 543 783 528 q 798 558 794 551 q 804 572 802 566 q 814 604 812 588 l 817 604 q 860 673 832 649 q 921 697 888 697 q 979 675 953 697 z "},",":{"ha":498,"x_min":-1,"x_max":489,"o":"m 396 -3 q 467 -62 444 -18 q 472 -154 489 -110 q 441 -205 463 -184 q 392 -233 419 -227 q 372 -237 380 -237 q 367 -240 371 -240 l 364 -240 q 358 -241 361 -240 q 350 -241 354 -241 q 312 -235 349 -241 q 226 -205 275 -228 q 124 -143 176 -183 q 39 -36 72 -103 q 2 126 5 31 q 46 354 -1 222 l 47 354 q 59 358 54 357 q 66 363 64 359 l 68 363 q 74 363 71 363 q 79 364 77 364 q 85 367 81 367 q 90 368 87 367 q 93 368 92 368 l 96 368 l 97 368 l 100 368 q 109 371 105 368 l 121 371 l 122 371 l 125 371 l 129 371 q 147 368 133 368 q 163 366 155 367 q 179 363 171 364 l 180 363 q 205 356 193 360 q 233 347 218 353 q 281 326 261 338 q 293 321 288 323 q 304 317 298 319 l 306 317 q 311 313 309 314 q 317 309 314 311 l 318 309 l 322 306 l 325 306 q 330 301 329 302 q 369 267 353 288 q 392 221 385 245 q 387 121 408 168 l 380 106 q 380 103 380 104 q 379 100 379 102 q 376 90 376 94 q 372 83 375 86 l 372 81 q 370 74 371 78 q 368 64 368 69 q 366 55 367 60 q 363 46 364 50 q 361 38 363 43 q 359 29 359 33 l 358 17 l 358 14 l 355 14 l 355 12 l 355 9 q 363 7 358 8 q 371 4 368 5 l 380 1 q 387 -1 383 0 q 396 -3 391 -3 z "},"-":{"ha":983,"x_min":1,"x_max":1104,"o":"m 990 696 q 1037 676 1015 693 q 1074 633 1059 660 q 1097 573 1089 607 q 1103 501 1104 539 q 1085 424 1100 460 q 1048 364 1071 387 q 1045 354 1047 360 q 1040 342 1043 349 q 1028 305 1034 326 q 1015 260 1022 283 q 1009 241 1013 250 q 1003 221 1006 232 l 990 183 l 989 179 q 981 156 986 168 q 974 134 977 144 q 964 105 970 118 q 951 77 958 92 q 942 58 946 67 q 935 41 939 49 q 931 34 932 36 q 928 29 930 32 q 925 23 926 26 q 922 17 924 20 q 918 11 920 14 q 914 8 916 8 l 914 4 q 907 -4 907 0 l 905 -4 q 901 -9 903 -7 q 897 -17 900 -12 l 895 -21 l 893 -21 q 888 -26 890 -24 q 885 -29 886 -28 l 884 -29 q 882 -33 882 -29 l 880 -33 q 877 -37 878 -36 q 873 -40 876 -37 l 872 -40 q 871 -41 872 -41 l 869 -41 l 868 -46 l 865 -46 q 863 -50 864 -49 q 860 -53 861 -50 l 857 -53 l 856 -53 l 852 -54 l 848 -54 q 836 -61 842 -61 q 830 -64 833 -64 q 823 -66 827 -65 l 822 -66 l 819 -66 l 818 -66 l 815 -66 l 814 -71 l 811 -71 l 802 -71 l 798 -71 l 793 -71 l 790 -71 q 781 -70 787 -71 q 768 -66 775 -69 l 764 -66 q 751 -61 757 -66 q 730 -53 743 -61 q 714 -41 722 -47 q 699 -28 707 -35 q 692 -19 696 -22 q 686 -11 689 -16 l 686 -9 l 685 -8 q 680 -2 682 -5 q 676 4 677 1 q 665 25 669 16 q 660 39 661 35 l 659 39 q 657 41 657 39 q 656 45 656 43 q 654 47 654 46 q 653 52 654 49 l 653 54 l 652 58 q 650 62 652 60 q 647 71 648 65 q 644 78 644 75 q 643 85 644 81 l 643 89 l 640 92 l 640 96 l 640 97 q 640 101 640 100 q 639 104 639 102 l 639 109 l 639 110 l 636 114 l 636 121 q 627 111 632 115 q 618 102 623 107 q 608 95 612 99 q 599 89 604 92 q 572 71 585 73 l 570 71 q 567 67 568 68 q 564 64 566 66 l 557 64 q 547 58 555 61 l 545 58 l 543 58 l 541 58 l 539 58 q 534 54 539 58 l 532 54 l 528 54 l 526 54 l 524 54 l 511 54 l 497 54 q 490 56 494 54 q 478 58 485 58 q 457 71 470 60 l 456 71 q 445 76 450 72 q 435 85 439 81 l 432 85 q 423 97 428 90 q 414 109 418 103 l 411 109 l 411 110 q 404 121 407 115 q 395 135 400 127 q 385 160 385 157 q 382 161 382 160 l 382 164 q 378 178 379 171 q 374 189 376 184 q 370 210 371 200 q 366 227 368 220 l 366 229 q 365 236 366 233 q 364 241 364 239 l 364 245 l 364 260 q 361 279 361 267 q 361 288 361 283 q 364 296 361 293 q 365 317 364 307 q 366 334 366 328 l 366 335 q 370 358 370 352 q 373 369 372 365 q 376 379 374 374 q 344 317 358 346 q 319 267 330 289 q 291 204 304 232 q 268 154 278 176 l 222 52 l 222 47 q 178 -9 204 10 q 122 -29 151 -29 q 56 1 85 -29 q 28 38 40 17 q 11 85 17 60 q 3 138 4 110 q 5 192 1 165 l 5 196 l 7 201 l 7 204 q 9 218 9 211 q 11 233 9 225 q 22 283 16 258 q 35 335 28 307 q 57 410 45 372 q 81 484 68 447 q 114 577 96 532 q 151 664 132 623 q 177 715 163 689 q 203 764 191 741 q 238 820 221 794 q 273 867 254 846 q 318 917 292 892 q 343 940 330 930 q 368 960 355 950 q 396 978 382 969 q 427 996 411 987 q 459 1007 444 1002 q 490 1017 475 1011 l 510 1017 l 511 1017 q 517 1019 514 1017 q 522 1021 519 1021 l 526 1021 l 528 1021 l 539 1021 l 551 1017 l 557 1017 l 559 1017 l 561 1017 l 566 1017 l 568 1017 q 602 1004 585 1011 q 632 983 618 997 l 635 983 q 653 965 644 975 q 669 942 663 954 q 685 919 677 932 q 699 892 692 905 q 713 844 707 868 q 722 791 720 819 q 725 759 724 776 q 726 722 726 742 l 726 721 q 725 715 726 718 q 724 710 724 713 q 732 714 728 714 l 743 714 l 745 714 q 749 717 745 717 l 753 717 l 755 717 l 760 717 l 764 717 l 768 717 l 774 717 q 777 715 775 717 l 777 714 l 781 714 l 782 714 l 785 714 l 786 714 q 798 710 793 714 q 806 708 803 710 l 807 708 q 836 694 823 703 q 861 672 848 685 q 885 647 875 663 q 901 664 892 656 q 930 684 915 675 q 961 696 946 693 l 965 696 l 981 696 l 990 696 m 724 708 q 739 713 732 712 q 753 717 746 714 q 739 713 746 714 q 724 708 732 712 z "},".":{"ha":451,"x_min":-4,"x_max":422,"o":"m 329 215 q 400 155 376 199 q 406 64 422 108 q 374 13 396 33 q 325 -16 353 -8 q 306 -20 313 -20 q 300 -22 304 -22 l 297 -22 q 291 -23 294 -22 q 283 -24 288 -24 q 239 -28 258 -28 l 237 -28 q 193 -24 215 -28 l 189 -24 l 183 -22 l 180 -22 q 174 -21 178 -22 q 168 -20 171 -20 l 167 -20 l 164 -18 q 158 -16 160 -18 l 154 -16 l 153 -16 q 151 -14 151 -16 q 147 -12 150 -14 q 139 -9 144 -11 q 113 3 125 -4 q 87 18 100 9 q 63 38 75 28 q 41 61 52 49 q 8 115 20 83 q 1 130 5 121 q 15 153 -4 139 q 87 185 33 167 q 254 231 140 204 q 262 232 254 232 q 278 231 269 232 q 296 229 288 231 q 304 222 304 227 l 314 220 q 320 217 317 218 q 329 215 323 215 z "},"/":{"ha":791,"x_min":0,"x_max":1013,"o":"m 943 639 q 995 562 978 612 q 1008 454 1013 511 l 1008 452 l 1008 447 l 1008 441 l 1008 439 q 1005 420 1006 429 q 1002 401 1004 411 q 990 337 998 370 q 972 272 982 304 q 958 225 966 248 q 939 183 950 203 l 939 179 l 935 171 q 933 164 933 171 l 929 158 q 923 145 926 150 q 917 135 920 140 l 914 134 q 910 124 911 128 q 905 117 908 119 l 904 117 l 904 114 q 899 107 901 111 q 893 97 896 103 l 888 92 l 888 90 q 885 89 888 89 q 884 85 884 86 q 882 82 884 83 l 879 79 l 876 77 l 872 72 q 867 64 869 69 l 864 60 l 863 60 l 860 58 q 850 47 859 56 l 847 46 l 839 39 l 838 35 q 834 33 835 33 q 831 29 833 32 l 829 29 l 827 29 l 822 26 l 818 22 q 812 18 815 18 q 806 14 808 17 l 804 14 l 802 9 q 789 4 799 9 l 787 4 q 785 1 787 4 l 775 -3 l 772 -3 q 762 -4 768 -4 l 760 -4 l 760 -8 l 755 -8 l 754 -8 l 750 -8 l 747 -11 l 734 -11 l 733 -11 l 729 -16 l 725 -16 l 717 -16 l 713 -16 l 708 -16 l 700 -16 l 697 -16 l 696 -16 l 693 -16 l 688 -16 l 685 -11 l 684 -11 l 675 -11 q 639 1 658 -7 l 637 1 q 620 11 628 7 q 604 21 611 16 q 567 48 585 32 q 529 85 549 65 q 517 74 522 78 q 504 64 511 69 q 475 42 488 52 q 450 22 463 32 q 432 13 441 18 q 416 4 424 8 l 412 1 l 410 1 l 408 1 q 404 -3 406 -3 l 397 -4 l 396 -4 l 393 -7 q 389 -8 392 -8 l 383 -11 q 374 -15 378 -14 q 367 -16 370 -16 l 367 -17 q 358 -19 361 -17 q 351 -21 354 -21 l 350 -21 l 346 -21 q 330 -26 338 -24 q 313 -28 322 -28 l 310 -28 q 295 -29 303 -29 q 279 -29 286 -29 q 256 -29 269 -29 q 233 -28 244 -29 q 225 -24 231 -25 q 212 -21 220 -24 q 204 -17 205 -21 l 200 -17 l 193 -16 q 184 -12 189 -13 q 176 -8 179 -11 l 175 -8 q 166 -3 170 -5 q 160 1 163 -1 l 158 1 q 152 6 155 4 q 143 9 149 8 l 142 9 q 134 17 139 12 q 122 26 129 22 l 121 26 q 115 31 118 29 q 110 35 113 33 q 109 37 110 35 l 109 39 l 102 46 q 94 54 98 50 q 87 60 90 58 l 87 64 l 85 64 q 81 71 83 66 q 72 83 78 75 q 63 95 68 87 q 52 114 58 102 q 41 135 45 125 q 35 151 37 144 l 33 151 q 28 166 31 161 q 25 176 26 172 l 25 179 q 20 191 22 183 q 17 208 18 199 q 14 215 14 212 q 12 222 14 218 q 8 248 8 241 q 5 274 5 263 q 1 292 4 285 q 1 308 1 301 q 0 321 0 315 l 0 322 l 0 335 l 0 346 q 0 361 0 353 q 1 376 0 370 l 1 385 l 1 392 q 4 414 4 397 q 5 422 5 416 l 9 446 l 9 454 q 14 472 14 463 l 14 476 q 17 486 16 481 q 21 496 18 490 l 22 504 l 25 510 q 26 517 25 515 q 26 521 26 518 l 29 529 l 31 539 l 33 542 l 33 546 l 35 551 l 39 567 q 41 568 41 567 l 41 571 q 43 576 43 572 q 46 583 43 581 l 47 585 q 54 608 52 602 l 56 610 q 57 617 56 612 q 60 627 58 623 q 74 659 66 642 q 89 692 82 676 l 89 696 q 104 729 97 715 q 118 758 111 743 q 150 814 134 786 q 180 871 165 843 l 183 871 q 200 896 193 884 q 214 921 207 908 l 216 921 l 222 929 l 224 929 l 224 930 q 225 933 224 930 l 231 942 q 237 949 233 946 q 243 958 241 953 q 244 959 244 958 q 245 960 244 960 l 248 960 q 249 964 248 964 l 250 964 q 285 1007 267 987 q 321 1042 302 1026 l 322 1042 q 339 1059 330 1051 q 359 1076 349 1067 q 369 1081 365 1079 q 375 1084 372 1083 q 379 1089 376 1088 l 380 1089 q 389 1096 387 1096 l 392 1097 q 398 1099 395 1097 q 406 1104 401 1101 l 412 1108 q 415 1109 412 1108 l 416 1109 l 425 1114 l 427 1117 l 431 1117 q 434 1119 433 1117 q 437 1121 435 1121 l 443 1122 l 446 1122 l 452 1122 l 452 1126 l 454 1126 l 463 1126 q 467 1129 464 1129 l 476 1129 l 479 1129 q 488 1133 484 1132 q 496 1133 493 1133 l 497 1133 l 510 1133 q 538 1128 526 1131 q 567 1121 551 1125 q 592 1106 579 1113 q 616 1089 604 1099 q 632 1070 623 1080 q 652 1051 642 1061 l 652 1047 q 679 1010 665 1036 q 695 978 688 994 q 710 946 703 961 q 718 922 713 934 q 725 897 722 909 q 726 890 725 893 q 726 885 726 888 l 726 884 l 729 884 q 734 811 736 848 q 722 742 732 774 q 720 737 721 739 q 718 733 718 734 q 733 723 725 728 q 750 708 741 718 q 763 691 757 700 q 777 672 770 682 q 792 645 786 661 q 806 614 799 629 l 806 610 q 889 659 842 659 q 943 639 917 659 m 397 439 q 397 488 396 464 q 404 533 399 511 q 412 571 406 551 q 411 568 412 570 l 411 567 l 410 567 q 388 525 399 546 q 371 485 378 504 l 359 464 l 359 461 q 358 460 359 460 q 351 447 358 454 l 350 441 q 345 428 347 435 q 339 416 342 421 l 343 416 l 346 416 q 350 419 347 416 q 355 421 353 421 l 358 421 q 373 429 365 425 q 393 439 382 432 l 397 439 z "},":":{"ha":798,"x_min":1,"x_max":1055,"o":"m 669 -78 l 668 -78 l 669 -78 m 935 604 q 990 584 964 604 q 1035 529 1017 564 q 1054 424 1055 481 q 1035 322 1054 367 q 1022 295 1028 309 q 1007 267 1015 281 q 1001 255 1004 261 q 993 241 997 249 q 987 229 990 233 q 978 216 983 224 l 972 204 l 965 192 l 964 192 q 958 180 961 186 q 949 168 954 174 q 935 145 942 157 q 920 122 928 134 l 918 122 l 916 118 q 909 109 913 114 q 901 97 905 104 l 895 87 l 893 87 l 886 79 q 880 70 884 74 q 873 60 876 65 q 871 57 873 60 l 869 56 q 865 54 868 54 q 861 47 865 52 q 855 40 859 45 q 847 31 851 36 q 827 8 838 20 q 806 -12 817 -3 l 803 -12 l 802 -16 q 793 -21 799 -20 l 790 -25 l 782 -32 q 770 -40 777 -33 l 768 -40 q 756 -47 762 -44 q 749 -53 751 -50 l 743 -57 q 741 -58 742 -57 l 739 -58 q 732 -62 735 -58 l 730 -62 l 724 -65 q 711 -69 718 -69 l 710 -69 l 707 -71 l 705 -71 q 694 -75 699 -71 l 686 -75 l 681 -78 l 677 -78 l 664 -78 l 661 -78 l 660 -78 l 652 -78 q 574 -46 610 -74 q 518 17 542 -25 q 500 45 509 31 q 485 79 492 60 q 479 92 482 86 q 473 106 476 98 q 469 104 472 106 l 456 92 l 453 92 l 436 79 q 400 54 416 64 q 368 35 383 45 q 333 14 353 25 q 289 -7 313 3 l 281 -8 l 279 -8 q 278 -12 278 -8 l 269 -12 q 268 -14 268 -12 l 268 -16 l 265 -16 l 257 -20 l 252 -20 l 243 -21 l 240 -21 l 239 -21 q 227 -25 232 -21 l 214 -25 q 205 -28 207 -25 l 203 -28 l 201 -28 l 195 -28 q 190 -26 192 -28 q 184 -25 187 -25 l 178 -25 q 165 -23 171 -25 q 157 -21 160 -21 l 157 -20 l 155 -20 q 146 -18 150 -20 q 139 -12 142 -16 q 119 -3 134 -12 l 115 0 q 112 3 114 3 q 107 5 110 4 q 104 9 106 8 q 102 12 103 9 q 98 17 99 12 q 90 22 96 17 q 86 25 89 25 l 85 29 q 82 31 85 29 q 78 37 81 33 q 69 47 75 40 l 65 54 q 56 72 57 64 q 46 86 50 79 q 40 97 43 93 l 40 100 q 39 103 39 101 l 39 106 q 27 134 32 121 q 20 163 22 147 q 9 210 13 186 q 3 260 5 233 l 3 262 q 1 301 1 282 q 1 342 1 319 l 1 343 q 5 416 3 379 q 16 488 8 453 q 30 552 22 519 q 49 616 37 585 q 70 674 58 646 q 93 730 81 703 q 118 785 105 760 q 133 811 125 800 q 149 835 142 822 q 182 883 164 860 q 220 929 200 907 q 267 971 243 953 q 315 1000 290 989 q 346 1012 331 1007 q 376 1017 361 1017 l 382 1017 l 382 1018 l 393 1018 l 395 1018 q 411 1017 407 1018 l 414 1017 l 431 1017 q 439 1013 432 1013 l 440 1013 q 518 937 489 1000 q 537 874 532 909 q 539 804 543 839 q 508 710 532 749 q 447 656 484 671 l 440 656 l 439 654 l 436 654 l 435 654 l 435 650 l 432 650 l 431 650 q 429 647 431 648 l 428 647 l 424 643 q 399 612 410 629 l 397 610 q 382 585 389 599 q 376 574 379 581 q 370 559 372 567 l 368 559 q 355 529 361 546 q 340 497 349 513 q 333 472 336 485 q 323 447 329 458 q 335 461 330 454 q 345 472 340 468 q 347 475 345 475 q 369 503 358 488 q 393 534 380 518 q 415 565 403 550 q 439 597 427 581 q 451 614 446 607 q 461 629 457 621 q 467 636 464 633 q 472 643 469 639 l 481 660 q 531 709 503 693 q 589 725 558 725 q 694 663 650 725 q 727 588 715 629 q 739 500 739 547 l 739 485 l 739 472 l 739 450 q 741 443 741 448 q 744 445 743 443 q 747 450 745 447 l 751 454 l 760 463 l 761 463 q 777 479 765 468 q 791 494 783 486 q 806 505 799 501 l 865 572 q 935 604 897 604 z "},";":{"ha":928,"x_min":-5,"x_max":1117,"o":"m 994 585 q 1057 559 1027 585 q 1101 492 1086 533 q 1114 435 1111 465 q 1114 376 1117 406 q 1103 320 1111 347 q 1080 272 1095 293 q 1072 263 1075 268 q 1065 254 1068 258 l 1061 248 q 1057 242 1060 246 q 1051 233 1054 237 l 1039 216 l 1023 197 q 1010 178 1017 186 q 997 160 1004 170 q 987 148 991 153 q 978 135 983 143 q 975 131 977 134 q 970 126 972 129 l 970 122 l 943 89 l 916 54 l 889 21 q 878 6 884 13 q 868 -8 872 -1 l 861 -16 q 768 -66 821 -67 q 707 -46 736 -66 q 657 9 677 -25 q 635 72 640 41 q 619 52 625 60 l 603 26 l 586 1 q 539 -48 566 -31 q 485 -65 513 -65 q 430 -48 457 -65 q 382 -3 403 -32 q 352 61 362 25 q 340 136 342 97 q 347 213 339 175 q 372 285 355 252 q 380 302 376 294 q 389 317 383 310 l 390 321 l 395 329 q 406 350 400 338 q 415 372 411 361 q 427 395 422 385 q 436 416 432 406 q 448 437 443 426 q 457 460 453 449 q 476 503 468 482 q 493 546 485 524 l 494 547 q 482 531 488 538 q 472 517 476 524 q 460 499 465 507 q 449 484 454 490 q 436 462 442 471 q 427 446 431 453 q 424 441 424 446 q 414 424 420 435 q 401 404 408 414 l 399 401 q 389 383 395 392 q 378 364 383 374 q 368 343 374 355 q 355 321 363 332 l 353 317 q 344 297 349 307 q 332 277 339 288 l 326 264 q 319 250 323 257 q 311 233 314 243 q 307 226 309 231 q 302 216 306 221 q 295 203 298 210 q 289 189 292 196 l 289 184 q 280 172 283 178 q 273 158 277 165 q 270 151 272 155 q 265 142 268 146 l 220 47 l 220 46 q 176 -9 203 10 q 122 -28 150 -28 q 52 8 82 -28 q 7 96 20 40 q 7 210 -5 153 q 15 241 9 225 q 24 277 20 257 q 33 307 29 292 q 40 335 37 321 q 50 367 45 353 q 60 396 54 380 l 61 397 l 61 401 q 71 428 66 417 q 81 454 75 439 q 90 481 85 467 q 102 510 96 496 q 114 542 109 528 q 123 567 119 555 q 149 622 136 595 q 174 676 161 650 q 203 733 189 707 q 232 783 216 760 l 239 796 l 240 796 l 248 808 q 255 822 252 815 q 264 833 258 828 q 281 859 273 847 q 298 884 289 871 l 298 885 q 339 933 319 907 q 360 955 350 944 q 382 977 371 966 l 385 977 q 439 1019 412 1002 q 494 1046 467 1036 q 535 1056 515 1053 q 574 1060 554 1060 q 602 1059 589 1060 q 628 1051 615 1057 q 637 1049 633 1051 q 643 1047 640 1047 l 647 1046 q 656 1042 651 1043 q 664 1039 661 1042 l 665 1039 l 669 1035 q 675 1033 672 1034 q 681 1029 677 1032 l 685 1026 q 692 1021 688 1023 q 703 1010 696 1018 l 707 1008 l 710 1004 q 717 998 714 1002 q 722 991 720 994 l 724 991 l 726 989 q 736 972 733 979 q 739 971 739 972 l 743 964 q 748 957 746 961 q 753 947 750 953 q 760 935 755 943 q 768 917 765 926 l 770 914 q 778 892 775 903 l 781 885 q 783 872 782 878 q 786 860 785 865 l 786 859 q 789 849 789 856 q 793 833 790 843 l 793 827 q 793 824 793 824 q 794 822 794 823 l 794 821 q 796 811 794 815 q 798 804 798 807 q 798 792 798 798 q 799 783 799 787 l 810 783 l 811 783 l 814 783 l 822 783 l 823 779 l 832 779 q 841 778 838 779 q 847 777 844 777 l 851 777 q 857 773 852 774 q 865 771 861 772 q 870 767 868 768 q 873 764 872 766 q 883 759 879 761 q 893 754 888 757 q 898 749 896 751 q 903 746 900 747 q 906 744 905 746 q 909 742 907 742 q 918 733 912 736 q 931 718 925 725 q 940 708 937 710 l 940 704 l 943 704 l 943 701 q 945 699 945 701 q 947 697 945 697 q 953 689 950 694 l 953 685 q 957 679 956 684 q 961 671 961 675 q 964 667 964 671 l 965 664 q 966 661 965 663 q 968 659 966 660 l 970 654 l 974 647 q 977 642 974 646 q 981 633 977 635 q 988 609 985 621 q 994 585 991 597 z "},"<":{"ha":703,"x_min":1,"x_max":785,"o":"m 785 921 l 785 893 q 784 877 785 884 q 783 864 783 869 l 783 859 q 776 824 781 839 q 768 800 771 810 l 768 796 q 755 767 762 781 q 743 743 749 753 q 734 725 739 734 q 726 708 729 715 q 719 699 722 703 q 710 688 715 694 q 703 674 707 680 q 696 664 699 669 q 690 655 693 660 q 684 646 686 650 q 674 632 678 639 q 664 621 669 625 q 660 614 664 614 q 659 595 659 604 q 656 576 659 586 q 647 497 652 538 q 642 414 643 457 q 637 339 637 376 l 637 330 q 729 245 697 322 q 748 144 749 198 q 726 46 747 90 l 722 39 q 710 14 720 31 q 700 -5 706 4 q 688 -24 694 -14 q 679 -36 681 -33 q 676 -37 677 -36 q 671 -44 673 -40 q 667 -50 668 -49 l 664 -50 q 650 -67 657 -60 q 633 -82 643 -75 q 609 -97 621 -92 q 583 -107 597 -102 q 566 -111 575 -110 q 550 -111 557 -111 q 531 -111 541 -111 q 513 -104 522 -110 q 443 -57 475 -96 l 441 -57 q 400 5 418 -28 q 375 68 388 35 q 368 97 372 83 q 359 125 363 110 q 354 151 357 138 q 350 176 351 163 q 342 171 347 175 q 335 164 338 167 l 335 163 q 326 153 331 157 q 314 143 321 149 q 311 138 313 140 q 310 134 310 136 q 297 121 303 130 q 252 75 271 97 q 244 66 248 70 q 237 58 240 62 q 233 55 235 58 q 229 50 231 52 q 147 -29 200 -14 q 136 -31 140 -29 q 126 -32 132 -32 l 122 -32 q 119 -31 121 -32 q 114 -29 117 -29 q 83 -20 100 -29 q 68 -9 75 -14 q 54 5 61 -4 q 20 58 33 26 q 1 126 7 89 l 1 163 l 1 176 q 3 186 1 182 q 4 196 4 191 l 4 200 q 17 250 9 231 q 33 294 24 270 q 58 346 43 318 q 84 392 71 370 q 114 439 98 415 q 121 451 117 447 q 126 458 125 456 q 131 468 130 464 q 140 480 136 473 q 150 493 144 486 q 169 522 159 509 q 189 550 179 534 q 210 575 199 561 q 233 606 221 589 q 258 638 245 621 q 283 668 271 654 q 309 697 296 684 q 339 726 322 711 l 372 758 q 376 775 375 768 q 379 793 376 783 q 416 918 397 861 q 423 933 419 925 q 431 951 427 942 q 439 971 436 964 q 447 989 443 979 q 457 1007 452 998 q 468 1025 461 1017 q 482 1045 475 1036 q 496 1064 489 1054 l 497 1064 q 516 1083 507 1074 q 538 1101 526 1092 q 563 1118 550 1111 q 591 1126 576 1125 q 598 1128 595 1126 q 604 1131 602 1131 l 612 1131 l 614 1131 l 616 1131 l 623 1131 l 633 1131 l 639 1131 l 642 1131 l 643 1131 l 646 1131 q 652 1126 647 1126 l 654 1126 l 659 1126 q 700 1105 675 1124 q 704 1101 701 1105 q 710 1098 707 1100 q 717 1093 714 1096 q 718 1090 717 1092 q 721 1089 718 1089 q 728 1080 724 1085 q 734 1071 732 1075 q 738 1066 737 1068 q 742 1064 739 1064 q 747 1053 743 1060 q 758 1034 751 1046 q 765 1018 761 1027 q 772 996 770 1008 q 775 988 775 990 q 777 981 775 986 l 777 975 q 781 958 781 964 l 781 956 q 783 944 783 951 q 785 930 783 937 l 785 921 z "},"=":{"ha":798,"x_min":1,"x_max":1055,"o":"m 669 -78 l 668 -78 l 669 -78 m 935 604 q 990 584 964 604 q 1035 529 1017 564 q 1054 424 1055 481 q 1035 322 1054 367 q 1022 295 1028 309 q 1007 267 1015 281 q 1001 255 1004 261 q 993 241 997 249 q 987 229 990 233 q 978 216 983 224 l 972 204 l 965 192 l 964 192 q 958 180 961 186 q 949 168 954 174 q 935 145 942 157 q 920 122 928 134 l 918 122 l 916 118 q 909 109 913 114 q 901 97 905 104 l 895 87 l 893 87 l 886 79 q 880 70 884 74 q 873 60 876 65 q 871 57 873 60 l 869 56 q 865 54 868 54 q 861 47 865 52 q 855 40 859 45 q 847 31 851 36 q 827 8 838 20 q 806 -12 817 -3 l 803 -12 l 802 -16 q 793 -21 799 -20 l 790 -25 l 782 -32 q 770 -40 777 -33 l 768 -40 q 756 -47 762 -44 q 749 -53 751 -50 l 743 -57 q 741 -58 742 -57 l 739 -58 q 732 -62 735 -58 l 730 -62 l 724 -65 q 711 -69 718 -69 l 710 -69 l 707 -71 l 705 -71 q 694 -75 699 -71 l 686 -75 l 681 -78 l 677 -78 l 664 -78 l 661 -78 l 660 -78 l 652 -78 q 574 -46 610 -74 q 518 17 542 -25 q 500 45 509 31 q 485 79 492 60 q 479 92 482 86 q 473 106 476 98 q 469 104 472 106 l 456 92 l 453 92 l 436 79 q 400 54 416 64 q 368 35 383 45 q 333 14 353 25 q 289 -7 313 3 l 281 -8 l 279 -8 q 278 -12 278 -8 l 269 -12 q 268 -14 268 -12 l 268 -16 l 265 -16 l 257 -20 l 252 -20 l 243 -21 l 240 -21 l 239 -21 q 227 -25 232 -21 l 214 -25 q 205 -28 207 -25 l 203 -28 l 201 -28 l 195 -28 q 190 -26 192 -28 q 184 -25 187 -25 l 178 -25 q 165 -23 171 -25 q 157 -21 160 -21 l 157 -20 l 155 -20 q 146 -18 150 -20 q 139 -12 142 -16 q 119 -3 134 -12 l 115 0 q 112 3 114 3 q 107 5 110 4 q 104 9 106 8 q 102 12 103 9 q 98 17 99 12 q 90 22 96 17 q 86 25 89 25 l 85 29 q 82 31 85 29 q 78 37 81 33 q 69 47 75 40 l 65 54 q 56 72 57 64 q 46 86 50 79 q 40 97 43 93 l 40 100 q 39 103 39 101 l 39 106 q 27 134 32 121 q 20 163 22 147 q 9 210 13 186 q 3 260 5 233 l 3 262 q 1 301 1 282 q 1 342 1 319 l 1 343 q 5 416 3 379 q 16 488 8 453 q 30 552 22 519 q 49 616 37 585 q 70 674 58 646 q 93 730 81 703 q 118 785 105 760 q 133 811 125 800 q 149 835 142 822 q 182 883 164 860 q 220 929 200 907 q 267 971 243 953 q 315 1000 290 989 q 346 1012 331 1007 q 376 1017 361 1017 l 382 1017 l 382 1018 l 393 1018 l 395 1018 q 411 1017 407 1018 l 414 1017 l 431 1017 q 439 1013 432 1013 l 440 1013 q 518 937 489 1000 q 537 874 532 909 q 539 804 543 839 q 508 710 532 749 q 447 656 484 671 l 440 656 l 439 654 l 436 654 l 435 654 l 435 650 l 432 650 l 431 650 q 429 647 431 648 l 428 647 l 424 643 q 399 612 410 629 l 397 610 q 382 585 389 599 q 376 574 379 581 q 370 559 372 567 l 368 559 q 355 529 361 546 q 340 497 349 513 q 333 472 336 485 q 323 447 329 458 q 335 461 330 454 q 345 472 340 468 q 347 475 345 475 q 369 503 358 488 q 393 534 380 518 q 415 565 403 550 q 439 597 427 581 q 451 614 446 607 q 461 629 457 621 q 467 636 464 633 q 472 643 469 639 l 481 660 q 531 709 503 693 q 589 725 558 725 q 694 663 650 725 q 727 588 715 629 q 739 500 739 547 l 739 485 l 739 472 l 739 450 q 741 443 741 448 q 744 445 743 443 q 747 450 745 447 l 751 454 l 760 463 l 761 463 q 777 479 765 468 q 791 494 783 486 q 806 505 799 501 l 865 572 q 935 604 897 604 z "},">":{"ha":954,"x_min":0,"x_max":1099,"o":"m 985 418 q 1030 406 1008 415 q 1068 376 1053 396 q 1091 335 1084 357 q 1097 289 1099 313 q 1081 237 1095 261 q 1044 197 1067 212 q 1039 190 1043 195 q 1031 178 1035 186 q 1023 168 1028 174 q 1015 155 1018 163 q 1001 136 1008 146 q 986 114 994 126 q 980 106 983 111 q 974 98 977 102 l 970 94 q 963 83 967 87 q 953 72 958 79 q 944 60 949 65 q 935 47 939 54 q 923 35 929 42 q 909 20 917 28 q 900 12 904 16 q 893 3 896 8 l 890 3 q 881 -5 886 0 q 865 -16 875 -11 l 865 -18 q 856 -24 861 -20 q 843 -31 850 -28 q 836 -35 840 -31 l 832 -35 l 831 -36 q 815 -40 820 -40 l 814 -43 l 811 -43 q 808 -44 810 -43 q 803 -45 806 -45 l 802 -45 l 799 -45 q 790 -47 798 -47 l 789 -47 q 785 -49 786 -47 l 782 -49 l 772 -49 l 765 -49 l 757 -49 l 755 -49 l 745 -49 q 738 -47 742 -47 q 728 -45 733 -47 q 722 -43 725 -43 q 714 -40 718 -43 q 700 -34 707 -37 q 685 -26 692 -31 q 660 -7 665 -16 l 659 -7 q 657 -5 657 -7 q 640 14 646 3 l 639 16 q 633 23 636 18 q 628 32 631 28 q 627 37 627 35 q 624 40 627 39 q 623 47 623 43 q 619 54 620 52 q 615 60 618 57 l 615 61 q 614 71 614 66 q 611 78 614 75 l 611 82 l 610 86 l 610 94 q 607 110 607 104 q 607 123 607 117 q 610 143 610 130 q 611 156 611 150 q 614 168 611 163 q 623 205 615 186 q 629 240 625 222 q 639 272 633 257 q 642 283 640 279 q 644 294 643 288 q 650 314 647 304 q 656 335 653 325 q 662 362 659 347 q 668 393 665 378 q 669 401 669 395 l 668 401 q 665 400 667 400 q 661 399 664 399 q 660 397 661 397 q 638 386 649 392 q 615 372 627 379 q 595 356 606 364 q 574 336 585 347 q 550 315 562 326 q 528 293 539 304 q 504 270 515 281 q 481 248 493 258 q 455 224 469 235 q 432 203 441 212 l 390 168 l 390 165 l 351 132 l 349 132 l 347 131 q 340 122 345 125 q 330 115 335 118 q 327 113 328 114 q 323 110 326 111 q 319 105 321 107 q 314 102 317 103 q 282 75 298 90 q 252 49 267 61 q 226 30 236 38 q 210 18 216 22 q 197 7 201 10 l 193 5 q 122 -18 161 -18 q 68 -5 94 -18 q 24 32 41 8 q 2 94 4 60 q 18 161 0 129 l 20 165 q 28 180 26 178 q 42 201 33 187 q 61 231 50 215 q 86 265 73 248 q 114 297 98 282 q 126 311 118 302 q 131 318 129 317 l 139 326 q 140 328 139 328 l 149 336 l 149 339 q 169 360 158 350 q 189 380 179 370 q 211 402 200 391 q 235 424 222 412 q 261 450 248 439 q 289 472 273 461 q 318 493 302 483 q 351 515 334 504 q 383 535 367 525 q 415 555 399 546 q 447 573 431 565 q 481 590 463 581 l 485 593 q 516 609 500 600 q 547 627 532 618 q 590 646 571 637 q 631 661 610 654 q 640 664 635 664 l 640 665 q 650 668 646 668 q 657 669 654 668 q 661 670 659 669 q 671 672 664 671 q 692 675 677 673 q 732 682 707 677 l 734 682 q 744 682 739 682 q 753 681 749 682 q 844 657 800 681 q 889 627 872 644 q 924 586 910 607 q 945 549 936 566 l 945 547 q 957 511 954 530 q 970 449 966 479 l 970 418 l 985 418 l 985 418 z "},"?":{"ha":960,"x_min":3,"x_max":1093,"o":"m 990 435 q 1037 419 1015 432 q 1074 383 1059 406 q 1093 313 1093 351 q 1071 245 1093 275 l 1071 243 q 1061 231 1063 235 l 1059 229 q 1054 223 1056 227 q 1048 216 1051 220 l 1046 212 q 1034 198 1039 205 q 1021 183 1029 191 q 1010 168 1014 175 q 999 154 1006 161 q 990 144 994 149 q 982 135 986 140 q 978 131 979 134 q 974 126 977 129 l 974 125 l 965 117 q 958 107 962 111 q 949 97 953 103 q 945 94 946 96 q 942 89 945 92 l 924 71 q 920 66 921 68 q 917 62 920 64 q 909 53 913 57 q 900 43 905 49 q 896 39 897 41 q 892 35 895 37 q 883 26 888 31 q 875 17 878 21 q 766 -29 829 -29 q 665 9 707 -29 q 624 77 635 37 q 624 155 614 117 l 628 172 l 632 187 q 635 200 633 194 q 640 214 637 207 q 644 236 642 224 q 650 258 647 248 q 645 253 647 256 q 640 248 643 250 l 604 200 l 603 200 l 583 175 l 566 150 q 458 100 523 100 q 415 106 432 100 l 403 93 q 388 78 395 86 q 374 64 380 71 q 356 48 364 54 q 338 35 347 41 l 338 33 q 327 26 334 31 q 313 17 321 21 q 296 6 306 12 q 273 -4 286 0 l 271 -7 l 267 -7 q 263 -8 265 -8 q 258 -11 261 -8 l 257 -11 l 254 -11 l 253 -12 l 250 -12 l 244 -12 l 244 -16 l 241 -16 q 229 -17 233 -16 l 228 -17 l 225 -17 l 212 -17 l 211 -17 l 208 -17 l 196 -17 l 187 -17 q 186 -16 186 -17 q 184 -16 186 -16 l 183 -16 q 151 -8 166 -13 q 123 4 136 -3 q 99 19 111 11 q 78 37 87 28 q 63 53 70 44 q 50 72 57 62 q 46 78 47 75 q 41 85 45 82 q 40 89 40 87 q 36 96 36 93 q 32 106 32 101 q 26 119 29 113 q 20 134 22 125 l 20 135 q 16 149 17 142 q 12 163 16 155 q 11 164 12 163 q 8 176 8 171 q 7 189 8 182 q 3 243 3 218 q 40 326 3 293 q 123 363 72 362 l 125 363 q 212 322 176 363 q 220 333 215 328 q 229 343 225 339 q 242 358 236 350 q 258 375 249 366 q 276 392 268 385 q 294 408 285 400 l 296 408 q 321 427 307 419 q 343 439 332 435 q 366 450 354 444 q 384 454 375 453 q 403 458 393 456 q 407 459 404 458 q 412 460 410 460 l 415 460 l 416 460 l 419 460 l 428 460 l 432 460 l 433 460 l 446 460 q 453 458 448 458 q 461 456 458 458 l 463 456 l 465 456 q 478 452 471 456 l 484 460 q 485 463 484 463 q 488 467 486 464 q 489 468 488 468 q 490 471 490 468 q 504 492 497 480 q 516 512 509 501 q 529 538 522 522 q 532 541 532 539 q 536 546 533 543 q 550 572 543 558 q 567 602 557 586 l 570 602 q 607 647 588 627 q 669 688 636 672 q 673 689 671 689 q 679 692 676 689 l 681 692 q 682 693 681 692 l 686 693 l 686 694 q 688 696 686 694 q 707 700 694 696 l 713 701 q 721 704 717 704 l 729 705 q 746 708 736 708 l 749 710 l 758 710 l 761 710 l 770 713 l 774 713 l 782 713 l 790 713 l 803 713 l 804 713 q 817 710 808 710 l 819 710 q 823 708 821 709 l 829 708 l 829 707 q 832 705 829 705 l 833 705 l 836 705 q 842 703 839 704 q 852 700 846 703 q 880 687 866 694 q 907 668 895 679 l 908 668 q 913 664 911 665 q 917 660 916 663 l 920 660 l 920 659 l 921 656 q 924 653 924 654 q 928 650 925 652 l 929 647 l 932 646 q 936 639 932 643 l 942 633 l 945 629 l 946 627 l 949 625 q 950 621 949 623 q 951 618 950 618 q 953 616 951 616 l 954 614 l 957 608 l 958 608 q 961 603 961 606 q 962 597 961 600 l 962 596 q 966 585 966 592 q 986 526 980 555 q 989 504 987 515 q 990 479 990 492 q 990 435 991 457 z "},"@":{"ha":798,"x_min":1,"x_max":1055,"o":"m 669 -78 l 668 -78 l 669 -78 m 935 604 q 990 584 964 604 q 1035 529 1017 564 q 1054 424 1055 481 q 1035 322 1054 367 q 1022 295 1028 309 q 1007 267 1015 281 q 1001 255 1004 261 q 993 241 997 249 q 987 229 990 233 q 978 216 983 224 l 972 204 l 965 192 l 964 192 q 958 180 961 186 q 949 168 954 174 q 935 145 942 157 q 920 122 928 134 l 918 122 l 916 118 q 909 109 913 114 q 901 97 905 104 l 895 87 l 893 87 l 886 79 q 880 70 884 74 q 873 60 876 65 q 871 57 873 60 l 869 56 q 865 54 868 54 q 861 47 865 52 q 855 40 859 45 q 847 31 851 36 q 827 8 838 20 q 806 -12 817 -3 l 803 -12 l 802 -16 q 793 -21 799 -20 l 790 -25 l 782 -32 q 770 -40 777 -33 l 768 -40 q 756 -47 762 -44 q 749 -53 751 -50 l 743 -57 q 741 -58 742 -57 l 739 -58 q 732 -62 735 -58 l 730 -62 l 724 -65 q 711 -69 718 -69 l 710 -69 l 707 -71 l 705 -71 q 694 -75 699 -71 l 686 -75 l 681 -78 l 677 -78 l 664 -78 l 661 -78 l 660 -78 l 652 -78 q 574 -46 610 -74 q 518 17 542 -25 q 500 45 509 31 q 485 79 492 60 q 479 92 482 86 q 473 106 476 98 q 469 104 472 106 l 456 92 l 453 92 l 436 79 q 400 54 416 64 q 368 35 383 45 q 333 14 353 25 q 289 -7 313 3 l 281 -8 l 279 -8 q 278 -12 278 -8 l 269 -12 q 268 -14 268 -12 l 268 -16 l 265 -16 l 257 -20 l 252 -20 l 243 -21 l 240 -21 l 239 -21 q 227 -25 232 -21 l 214 -25 q 205 -28 207 -25 l 203 -28 l 201 -28 l 195 -28 q 190 -26 192 -28 q 184 -25 187 -25 l 178 -25 q 165 -23 171 -25 q 157 -21 160 -21 l 157 -20 l 155 -20 q 146 -18 150 -20 q 139 -12 142 -16 q 119 -3 134 -12 l 115 0 q 112 3 114 3 q 107 5 110 4 q 104 9 106 8 q 102 12 103 9 q 98 17 99 12 q 90 22 96 17 q 86 25 89 25 l 85 29 q 82 31 85 29 q 78 37 81 33 q 69 47 75 40 l 65 54 q 56 72 57 64 q 46 86 50 79 q 40 97 43 93 l 40 100 q 39 103 39 101 l 39 106 q 27 134 32 121 q 20 163 22 147 q 9 210 13 186 q 3 260 5 233 l 3 262 q 1 301 1 282 q 1 342 1 319 l 1 343 q 5 416 3 379 q 16 488 8 453 q 30 552 22 519 q 49 616 37 585 q 70 674 58 646 q 93 730 81 703 q 118 785 105 760 q 133 811 125 800 q 149 835 142 822 q 182 883 164 860 q 220 929 200 907 q 267 971 243 953 q 315 1000 290 989 q 346 1012 331 1007 q 376 1017 361 1017 l 382 1017 l 382 1018 l 393 1018 l 395 1018 q 411 1017 407 1018 l 414 1017 l 431 1017 q 439 1013 432 1013 l 440 1013 q 518 937 489 1000 q 537 874 532 909 q 539 804 543 839 q 508 710 532 749 q 447 656 484 671 l 440 656 l 439 654 l 436 654 l 435 654 l 435 650 l 432 650 l 431 650 q 429 647 431 648 l 428 647 l 424 643 q 399 612 410 629 l 397 610 q 382 585 389 599 q 376 574 379 581 q 370 559 372 567 l 368 559 q 355 529 361 546 q 340 497 349 513 q 333 472 336 485 q 323 447 329 458 q 335 461 330 454 q 345 472 340 468 q 347 475 345 475 q 369 503 358 488 q 393 534 380 518 q 415 565 403 550 q 439 597 427 581 q 451 614 446 607 q 461 629 457 621 q 467 636 464 633 q 472 643 469 639 l 481 660 q 531 709 503 693 q 589 725 558 725 q 694 663 650 725 q 727 588 715 629 q 739 500 739 547 l 739 485 l 739 472 l 739 450 q 741 443 741 448 q 744 445 743 443 q 747 450 745 447 l 751 454 l 760 463 l 761 463 q 777 479 765 468 q 791 494 783 486 q 806 505 799 501 l 865 572 q 935 604 897 604 z "},"A":{"ha":791,"x_min":0,"x_max":1013,"o":"m 943 639 q 995 562 978 612 q 1008 454 1013 511 l 1008 452 l 1008 447 l 1008 441 l 1008 439 q 1005 420 1006 429 q 1002 401 1004 411 q 990 337 998 370 q 972 272 982 304 q 958 225 966 248 q 939 183 950 203 l 939 179 l 935 171 q 933 164 933 171 l 929 158 q 923 145 926 150 q 917 135 920 140 l 914 134 q 910 124 911 128 q 905 117 908 119 l 904 117 l 904 114 q 899 107 901 111 q 893 97 896 103 l 888 92 l 888 90 q 885 89 888 89 q 884 85 884 86 q 882 82 884 83 l 879 79 l 876 77 l 872 72 q 867 64 869 69 l 864 60 l 863 60 l 860 58 q 850 47 859 56 l 847 46 l 839 39 l 838 35 q 834 33 835 33 q 831 29 833 32 l 829 29 l 827 29 l 822 26 l 818 22 q 812 18 815 18 q 806 14 808 17 l 804 14 l 802 9 q 789 4 799 9 l 787 4 q 785 1 787 4 l 775 -3 l 772 -3 q 762 -4 768 -4 l 760 -4 l 760 -8 l 755 -8 l 754 -8 l 750 -8 l 747 -11 l 734 -11 l 733 -11 l 729 -16 l 725 -16 l 717 -16 l 713 -16 l 708 -16 l 700 -16 l 697 -16 l 696 -16 l 693 -16 l 688 -16 l 685 -11 l 684 -11 l 675 -11 q 639 1 658 -7 l 637 1 q 620 11 628 7 q 604 21 611 16 q 567 48 585 32 q 529 85 549 65 q 517 74 522 78 q 504 64 511 69 q 475 42 488 52 q 450 22 463 32 q 432 13 441 18 q 416 4 424 8 l 412 1 l 410 1 l 408 1 q 404 -3 406 -3 l 397 -4 l 396 -4 l 393 -7 q 389 -8 392 -8 l 383 -11 q 374 -15 378 -14 q 367 -16 370 -16 l 367 -17 q 358 -19 361 -17 q 351 -21 354 -21 l 350 -21 l 346 -21 q 330 -26 338 -24 q 313 -28 322 -28 l 310 -28 q 295 -29 303 -29 q 279 -29 286 -29 q 256 -29 269 -29 q 233 -28 244 -29 q 225 -24 231 -25 q 212 -21 220 -24 q 204 -17 205 -21 l 200 -17 l 193 -16 q 184 -12 189 -13 q 176 -8 179 -11 l 175 -8 q 166 -3 170 -5 q 160 1 163 -1 l 158 1 q 152 6 155 4 q 143 9 149 8 l 142 9 q 134 17 139 12 q 122 26 129 22 l 121 26 q 115 31 118 29 q 110 35 113 33 q 109 37 110 35 l 109 39 l 102 46 q 94 54 98 50 q 87 60 90 58 l 87 64 l 85 64 q 81 71 83 66 q 72 83 78 75 q 63 95 68 87 q 52 114 58 102 q 41 135 45 125 q 35 151 37 144 l 33 151 q 28 166 31 161 q 25 176 26 172 l 25 179 q 20 191 22 183 q 17 208 18 199 q 14 215 14 212 q 12 222 14 218 q 8 248 8 241 q 5 274 5 263 q 1 292 4 285 q 1 308 1 301 q 0 321 0 315 l 0 322 l 0 335 l 0 346 q 0 361 0 353 q 1 376 0 370 l 1 385 l 1 392 q 4 414 4 397 q 5 422 5 416 l 9 446 l 9 454 q 14 472 14 463 l 14 476 q 17 486 16 481 q 21 496 18 490 l 22 504 l 25 510 q 26 517 25 515 q 26 521 26 518 l 29 529 l 31 539 l 33 542 l 33 546 l 35 551 l 39 567 q 41 568 41 567 l 41 571 q 43 576 43 572 q 46 583 43 581 l 47 585 q 54 608 52 602 l 56 610 q 57 617 56 612 q 60 627 58 623 q 74 659 66 642 q 89 692 82 676 l 89 696 q 104 729 97 715 q 118 758 111 743 q 150 814 134 786 q 180 871 165 843 l 183 871 q 200 896 193 884 q 214 921 207 908 l 216 921 l 222 929 l 224 929 l 224 930 q 225 933 224 930 l 231 942 q 237 949 233 946 q 243 958 241 953 q 244 959 244 958 q 245 960 244 960 l 248 960 q 249 964 248 964 l 250 964 q 285 1007 267 987 q 321 1042 302 1026 l 322 1042 q 339 1059 330 1051 q 359 1076 349 1067 q 369 1081 365 1079 q 375 1084 372 1083 q 379 1089 376 1088 l 380 1089 q 389 1096 387 1096 l 392 1097 q 398 1099 395 1097 q 406 1104 401 1101 l 412 1108 q 415 1109 412 1108 l 416 1109 l 425 1114 l 427 1117 l 431 1117 q 434 1119 433 1117 q 437 1121 435 1121 l 443 1122 l 446 1122 l 452 1122 l 452 1126 l 454 1126 l 463 1126 q 467 1129 464 1129 l 476 1129 l 479 1129 q 488 1133 484 1132 q 496 1133 493 1133 l 497 1133 l 510 1133 q 538 1128 526 1131 q 567 1121 551 1125 q 592 1106 579 1113 q 616 1089 604 1099 q 632 1070 623 1080 q 652 1051 642 1061 l 652 1047 q 679 1010 665 1036 q 695 978 688 994 q 710 946 703 961 q 718 922 713 934 q 725 897 722 909 q 726 890 725 893 q 726 885 726 888 l 726 884 l 729 884 q 734 811 736 848 q 722 742 732 774 q 720 737 721 739 q 718 733 718 734 q 733 723 725 728 q 750 708 741 718 q 763 691 757 700 q 777 672 770 682 q 792 645 786 661 q 806 614 799 629 l 806 610 q 889 659 842 659 q 943 639 917 659 m 397 439 q 397 488 396 464 q 404 533 399 511 q 412 571 406 551 q 411 568 412 570 l 411 567 l 410 567 q 388 525 399 546 q 371 485 378 504 l 359 464 l 359 461 q 358 460 359 460 q 351 447 358 454 l 350 441 q 345 428 347 435 q 339 416 342 421 l 343 416 l 346 416 q 350 419 347 416 q 355 421 353 421 l 358 421 q 373 429 365 425 q 393 439 382 432 l 397 439 z "},"B":{"ha":957,"x_min":0,"x_max":1099,"o":"m 985 627 q 1030 608 1008 624 q 1068 564 1053 591 q 1091 502 1084 536 q 1097 433 1099 468 q 1081 355 1095 391 q 1044 296 1067 319 q 1039 286 1043 293 q 1031 267 1035 279 q 1023 251 1028 260 q 1015 233 1018 243 q 1001 204 1008 218 q 986 171 994 191 q 980 159 983 165 q 974 147 977 153 l 970 142 q 963 125 967 132 q 953 109 958 118 q 944 90 949 99 q 935 71 939 81 q 909 29 924 54 q 900 17 904 22 q 893 4 896 11 l 890 4 q 881 -9 886 -1 q 865 -24 875 -17 l 865 -28 q 856 -35 861 -29 q 843 -46 850 -41 q 836 -53 840 -46 l 832 -53 l 831 -54 q 815 -61 820 -61 l 814 -65 l 811 -65 q 808 -66 810 -65 q 803 -66 806 -66 l 802 -66 l 799 -66 q 790 -71 798 -71 l 789 -71 q 785 -74 786 -71 l 782 -74 l 772 -74 l 765 -74 l 757 -74 l 755 -74 l 745 -74 q 738 -70 742 -71 q 728 -66 733 -69 q 722 -64 725 -65 q 714 -61 718 -64 q 700 -52 707 -56 q 685 -40 692 -47 q 670 -25 677 -32 q 660 -11 664 -18 l 659 -11 q 657 -8 657 -11 q 640 21 646 1 l 639 22 q 628 47 633 36 q 627 54 627 50 q 624 60 627 58 q 623 71 623 64 q 619 82 620 77 q 615 89 618 86 l 615 92 q 614 105 614 98 q 611 117 614 111 l 611 122 l 610 129 l 610 142 q 607 165 607 155 q 607 184 607 175 q 610 200 610 193 q 610 214 610 207 q 611 234 611 224 q 614 252 611 244 q 623 309 615 278 q 629 359 625 334 q 639 408 633 385 q 642 425 640 418 q 644 441 643 432 q 650 471 647 455 q 656 501 653 488 q 662 543 659 521 q 668 589 665 566 q 669 602 669 591 l 668 602 l 665 599 q 661 597 664 597 q 660 596 661 596 q 638 578 649 588 q 615 558 627 568 q 595 533 606 546 q 574 504 585 521 q 550 471 562 488 q 528 439 539 454 q 504 402 515 419 q 481 371 493 386 q 455 335 469 351 q 432 304 441 318 l 390 252 l 390 248 l 351 197 l 349 197 l 347 196 q 340 183 345 188 q 330 172 335 178 q 327 169 328 171 q 323 164 326 167 q 319 158 321 161 q 314 151 317 154 q 282 112 298 132 q 252 72 267 92 q 226 45 236 56 q 210 26 216 33 q 203 17 207 22 q 197 9 200 12 l 193 8 q 122 -28 161 -28 q 68 -8 94 -28 q 24 47 41 12 q 2 142 4 90 q 18 241 0 195 l 20 248 q 24 260 22 256 q 28 271 26 265 q 42 302 33 281 q 61 346 50 322 q 86 397 73 371 q 114 446 98 422 q 120 457 117 452 q 126 467 123 461 q 127 471 127 469 q 131 476 127 473 l 139 489 l 139 492 l 140 492 l 149 504 l 149 509 q 169 538 158 524 q 189 571 179 553 q 211 603 200 587 q 235 635 222 619 q 261 674 248 657 q 289 708 273 690 q 318 740 302 724 q 351 772 334 757 q 383 803 367 788 q 415 833 399 818 q 447 859 431 847 q 481 885 463 871 l 485 889 q 516 913 500 900 q 547 939 532 926 q 590 968 571 954 q 631 991 610 982 q 640 996 635 996 l 640 997 q 650 1001 646 1000 q 657 1004 654 1002 q 661 1005 659 1004 q 671 1008 664 1006 q 692 1013 677 1010 q 732 1022 707 1017 l 734 1022 q 744 1022 739 1022 q 753 1021 749 1022 q 844 985 800 1021 q 868 965 857 975 q 889 939 879 954 q 924 879 909 912 q 935 850 930 863 q 945 822 940 838 l 945 821 q 957 766 954 795 q 970 672 968 718 l 970 627 l 985 627 l 985 627 z "},"C":{"ha":928,"x_min":-5,"x_max":1117,"o":"m 994 585 q 1057 559 1027 585 q 1101 492 1086 533 q 1114 435 1111 465 q 1114 376 1117 406 q 1103 320 1111 347 q 1080 272 1095 293 q 1072 263 1075 268 q 1065 254 1068 258 l 1061 248 q 1057 242 1060 246 q 1051 233 1054 237 l 1039 216 l 1023 197 q 1010 178 1017 186 q 997 160 1004 170 q 987 148 991 153 q 978 135 983 143 q 975 131 977 134 q 970 126 972 129 l 970 122 l 943 89 l 916 54 l 889 21 q 878 6 884 13 q 868 -8 872 -1 l 861 -16 q 768 -66 821 -67 q 707 -46 736 -66 q 657 9 677 -25 q 635 72 640 41 q 619 52 625 60 l 603 26 l 586 1 q 539 -48 566 -31 q 485 -65 513 -65 q 430 -48 457 -65 q 382 -3 403 -32 q 352 61 362 25 q 340 136 342 97 q 347 213 339 175 q 372 285 355 252 q 380 302 376 294 q 389 317 383 310 l 390 321 l 395 329 q 406 350 400 338 q 415 372 411 361 q 427 395 422 385 q 436 416 432 406 q 448 437 443 426 q 457 460 453 449 q 476 503 468 482 q 493 546 485 524 l 494 547 q 482 531 488 538 q 472 517 476 524 q 460 499 465 507 q 449 484 454 490 q 436 462 442 471 q 427 446 431 453 q 424 441 424 446 q 414 424 420 435 q 401 404 408 414 l 399 401 q 389 383 395 392 q 378 364 383 374 q 368 343 374 355 q 355 321 363 332 l 353 317 q 344 297 349 307 q 332 277 339 288 l 326 264 q 319 250 323 257 q 311 233 314 243 q 307 226 309 231 q 302 216 306 221 q 295 203 298 210 q 289 189 292 196 l 289 184 q 280 172 283 178 q 273 158 277 165 q 270 151 272 155 q 265 142 268 146 l 220 47 l 220 46 q 176 -9 203 10 q 122 -28 150 -28 q 52 8 82 -28 q 7 96 20 40 q 7 210 -5 153 q 15 241 9 225 q 24 277 20 257 q 33 307 29 292 q 40 335 37 321 q 50 367 45 353 q 60 396 54 380 l 61 397 l 61 401 q 71 428 66 417 q 81 454 75 439 q 90 481 85 467 q 102 510 96 496 q 114 542 109 528 q 123 567 119 555 q 149 622 136 595 q 174 676 161 650 q 203 733 189 707 q 232 783 216 760 l 239 796 l 240 796 l 248 808 q 255 822 252 815 q 264 833 258 828 q 281 859 273 847 q 298 884 289 871 l 298 885 q 339 933 319 907 q 360 955 350 944 q 382 977 371 966 l 385 977 q 439 1019 412 1002 q 494 1046 467 1036 q 535 1056 515 1053 q 574 1060 554 1060 q 602 1059 589 1060 q 628 1051 615 1057 q 637 1049 633 1051 q 643 1047 640 1047 l 647 1046 q 656 1042 651 1043 q 664 1039 661 1042 l 665 1039 l 669 1035 q 675 1033 672 1034 q 681 1029 677 1032 l 685 1026 q 692 1021 688 1023 q 703 1010 696 1018 l 707 1008 l 710 1004 q 717 998 714 1002 q 722 991 720 994 l 724 991 l 726 989 q 736 972 733 979 q 739 971 739 972 l 743 964 q 748 957 746 961 q 753 947 750 953 q 760 935 755 943 q 768 917 765 926 l 770 914 q 778 892 775 903 l 781 885 q 783 872 782 878 q 786 860 785 865 l 786 859 q 789 849 789 856 q 793 833 790 843 l 793 827 q 793 824 793 824 q 794 822 794 823 l 794 821 q 796 811 794 815 q 798 804 798 807 q 798 792 798 798 q 799 783 799 787 l 810 783 l 811 783 l 814 783 l 822 783 l 823 779 l 832 779 q 841 778 838 779 q 847 777 844 777 l 851 777 q 857 773 852 774 q 865 771 861 772 q 870 767 868 768 q 873 764 872 766 q 883 759 879 761 q 893 754 888 757 q 898 749 896 751 q 903 746 900 747 q 906 744 905 746 q 909 742 907 742 q 918 733 912 736 q 931 718 925 725 q 940 708 937 710 l 940 704 l 943 704 l 943 701 q 945 699 945 701 q 947 697 945 697 q 953 689 950 694 l 953 685 q 957 679 956 684 q 961 671 961 675 q 964 667 964 671 l 965 664 q 966 661 965 663 q 968 659 966 660 l 970 654 l 974 647 q 977 642 974 646 q 981 633 977 635 q 988 609 985 621 q 994 585 991 597 z "},"D":{"ha":1090,"x_min":-7,"x_max":1043,"o":"m 979 675 q 1010 639 998 661 q 1031 590 1023 616 q 1041 533 1039 564 q 1038 472 1043 503 q 1013 359 1027 415 q 995 305 1004 332 q 975 254 986 278 q 921 147 950 193 q 902 122 911 135 q 884 97 893 109 q 861 74 873 85 q 838 54 848 64 q 718 9 781 9 l 717 9 l 704 9 l 700 9 l 697 9 l 688 9 l 685 9 l 681 12 l 676 12 l 675 12 l 672 12 l 668 12 q 661 16 665 15 q 654 18 657 17 l 652 18 l 646 18 l 646 20 q 643 22 646 22 l 640 22 q 637 25 637 22 l 631 25 l 629 29 l 627 29 q 617 35 624 31 q 604 43 611 39 l 600 47 q 591 55 595 53 q 585 60 587 57 l 583 62 l 579 66 l 578 66 q 576 68 576 66 q 571 75 574 71 q 567 79 568 79 l 567 81 q 539 118 551 99 q 518 163 528 138 q 514 153 515 157 q 510 143 513 149 q 493 108 500 123 q 475 79 485 93 q 447 37 463 56 q 425 17 436 26 q 401 -3 414 7 q 389 -8 395 -8 l 387 -8 q 380 -12 385 -12 q 374 -17 378 -15 q 367 -20 371 -20 q 355 -21 360 -21 q 347 -21 350 -21 q 345 -23 346 -21 q 342 -25 343 -25 l 334 -25 l 330 -25 l 329 -25 l 326 -25 l 325 -25 q 319 -23 322 -25 q 314 -21 317 -21 l 313 -21 l 310 -21 l 309 -21 l 306 -21 l 304 -20 l 300 -20 q 295 -18 297 -20 q 292 -16 293 -16 l 289 -16 q 272 -8 283 -16 q 269 -6 271 -7 q 264 -3 267 -5 l 260 -3 q 175 104 207 31 q 170 115 172 111 q 164 125 167 119 q 163 130 163 127 q 160 135 163 132 q 141 128 151 131 q 121 125 132 125 q 80 135 100 125 q 46 167 61 144 q 4 261 14 204 q 8 375 -7 318 q 17 406 12 389 q 26 437 22 422 q 30 450 29 444 q 33 460 31 456 l 37 468 q 40 480 39 473 q 43 492 41 486 l 46 500 q 51 514 49 507 q 56 530 53 521 l 64 559 l 75 587 q 79 601 77 594 q 83 616 81 608 l 93 647 l 114 705 l 134 762 q 135 764 134 762 l 135 766 l 154 822 q 158 832 155 827 q 163 842 160 836 q 163 845 163 843 q 164 850 164 847 q 219 932 185 901 q 293 962 253 962 q 363 937 330 962 q 431 817 412 897 q 437 850 433 832 q 443 888 440 868 q 453 938 448 914 q 463 987 457 962 l 500 1192 q 553 1309 513 1263 q 643 1354 593 1354 q 663 1352 652 1354 q 684 1348 673 1350 q 732 1311 710 1337 q 769 1253 754 1286 q 790 1179 783 1219 q 791 1097 796 1139 l 787 1075 l 785 1054 q 784 1033 785 1044 q 783 1013 783 1022 q 779 970 781 991 q 775 929 777 949 l 775 925 q 774 885 775 905 q 771 842 772 865 q 766 755 767 793 q 764 714 764 736 q 762 672 764 693 l 762 631 q 760 611 760 620 q 760 591 760 602 l 760 550 l 760 534 l 760 530 l 760 513 q 761 500 760 506 q 762 488 762 494 l 762 489 q 764 492 762 492 q 777 515 770 503 q 791 543 783 528 q 798 558 794 551 q 804 572 802 566 q 814 604 812 588 l 817 604 q 860 673 832 649 q 921 697 888 697 q 979 675 953 697 z "},"E":{"ha":703,"x_min":1,"x_max":785,"o":"m 785 921 l 785 893 q 784 877 785 884 q 783 864 783 869 l 783 859 q 776 824 781 839 q 768 800 771 810 l 768 796 q 755 767 762 781 q 743 743 749 753 q 734 725 739 734 q 726 708 729 715 q 719 699 722 703 q 710 688 715 694 q 703 674 707 680 q 696 664 699 669 q 690 655 693 660 q 684 646 686 650 q 674 632 678 639 q 664 621 669 625 q 660 614 664 614 q 659 595 659 604 q 656 576 659 586 q 647 497 652 538 q 642 414 643 457 q 637 339 637 376 l 637 330 q 729 245 697 322 q 748 144 749 198 q 726 46 747 90 l 722 39 q 710 14 720 31 q 700 -5 706 4 q 688 -24 694 -14 q 679 -36 681 -33 q 676 -37 677 -36 q 671 -44 673 -40 q 667 -50 668 -49 l 664 -50 q 650 -67 657 -60 q 633 -82 643 -75 q 609 -97 621 -92 q 583 -107 597 -102 q 566 -111 575 -110 q 550 -111 557 -111 q 531 -111 541 -111 q 513 -104 522 -110 q 443 -57 475 -96 l 441 -57 q 400 5 418 -28 q 375 68 388 35 q 368 97 372 83 q 359 125 363 110 q 354 151 357 138 q 350 176 351 163 q 342 171 347 175 q 335 164 338 167 l 335 163 q 326 153 331 157 q 314 143 321 149 q 311 138 313 140 q 310 134 310 136 q 297 121 303 130 q 252 75 271 97 q 244 66 248 70 q 237 58 240 62 q 233 55 235 58 q 229 50 231 52 q 147 -29 200 -14 q 136 -31 140 -29 q 126 -32 132 -32 l 122 -32 q 119 -31 121 -32 q 114 -29 117 -29 q 83 -20 100 -29 q 68 -9 75 -14 q 54 5 61 -4 q 20 58 33 26 q 1 126 7 89 l 1 163 l 1 176 q 3 186 1 182 q 4 196 4 191 l 4 200 q 17 250 9 231 q 33 294 24 270 q 58 346 43 318 q 84 392 71 370 q 114 439 98 415 q 121 451 117 447 q 126 458 125 456 q 131 468 130 464 q 140 480 136 473 q 150 493 144 486 q 169 522 159 509 q 189 550 179 534 q 210 575 199 561 q 233 606 221 589 q 258 638 245 621 q 283 668 271 654 q 309 697 296 684 q 339 726 322 711 l 372 758 q 376 775 375 768 q 379 793 376 783 q 416 918 397 861 q 423 933 419 925 q 431 951 427 942 q 439 971 436 964 q 447 989 443 979 q 457 1007 452 998 q 468 1025 461 1017 q 482 1045 475 1036 q 496 1064 489 1054 l 497 1064 q 516 1083 507 1074 q 538 1101 526 1092 q 563 1118 550 1111 q 591 1126 576 1125 q 598 1128 595 1126 q 604 1131 602 1131 l 612 1131 l 614 1131 l 616 1131 l 623 1131 l 633 1131 l 639 1131 l 642 1131 l 643 1131 l 646 1131 q 652 1126 647 1126 l 654 1126 l 659 1126 q 700 1105 675 1124 q 704 1101 701 1105 q 710 1098 707 1100 q 717 1093 714 1096 q 718 1090 717 1092 q 721 1089 718 1089 q 728 1080 724 1085 q 734 1071 732 1075 q 738 1066 737 1068 q 742 1064 739 1064 q 747 1053 743 1060 q 758 1034 751 1046 q 765 1018 761 1027 q 772 996 770 1008 q 775 988 775 990 q 777 981 775 986 l 777 975 q 781 958 781 964 l 781 956 q 783 944 783 951 q 785 930 783 937 l 785 921 z "},"F":{"ha":983,"x_min":1,"x_max":1104,"o":"m 990 696 q 1037 676 1015 693 q 1074 633 1059 660 q 1097 573 1089 607 q 1103 501 1104 539 q 1085 424 1100 460 q 1048 364 1071 387 q 1045 354 1047 360 q 1040 342 1043 349 q 1028 305 1034 326 q 1015 260 1022 283 q 1009 241 1013 250 q 1003 221 1006 232 l 990 183 l 989 179 q 981 156 986 168 q 974 134 977 144 q 964 105 970 118 q 951 77 958 92 q 942 58 946 67 q 935 41 939 49 q 931 34 932 36 q 928 29 930 32 q 925 23 926 26 q 922 17 924 20 q 918 11 920 14 q 914 8 916 8 l 914 4 q 907 -4 907 0 l 905 -4 q 901 -9 903 -7 q 897 -17 900 -12 l 895 -21 l 893 -21 q 888 -26 890 -24 q 885 -29 886 -28 l 884 -29 q 882 -33 882 -29 l 880 -33 q 877 -37 878 -36 q 873 -40 876 -37 l 872 -40 q 871 -41 872 -41 l 869 -41 l 868 -46 l 865 -46 q 863 -50 864 -49 q 860 -53 861 -50 l 857 -53 l 856 -53 l 852 -54 l 848 -54 q 836 -61 842 -61 q 830 -64 833 -64 q 823 -66 827 -65 l 822 -66 l 819 -66 l 818 -66 l 815 -66 l 814 -71 l 811 -71 l 802 -71 l 798 -71 l 793 -71 l 790 -71 q 781 -70 787 -71 q 768 -66 775 -69 l 764 -66 q 751 -61 757 -66 q 730 -53 743 -61 q 714 -41 722 -47 q 699 -28 707 -35 q 692 -19 696 -22 q 686 -11 689 -16 l 686 -9 l 685 -8 q 680 -2 682 -5 q 676 4 677 1 q 665 25 669 16 q 660 39 661 35 l 659 39 q 657 41 657 39 q 656 45 656 43 q 654 47 654 46 q 653 52 654 49 l 653 54 l 652 58 q 650 62 652 60 q 647 71 648 65 q 644 78 644 75 q 643 85 644 81 l 643 89 l 640 92 l 640 96 l 640 97 q 640 101 640 100 q 639 104 639 102 l 639 109 l 639 110 l 636 114 l 636 121 q 627 111 632 115 q 618 102 623 107 q 608 95 612 99 q 599 89 604 92 q 572 71 585 73 l 570 71 q 567 67 568 68 q 564 64 566 66 l 557 64 q 547 58 555 61 l 545 58 l 543 58 l 541 58 l 539 58 q 534 54 539 58 l 532 54 l 528 54 l 526 54 l 524 54 l 511 54 l 497 54 q 490 56 494 54 q 478 58 485 58 q 457 71 470 60 l 456 71 q 445 76 450 72 q 435 85 439 81 l 432 85 q 423 97 428 90 q 414 109 418 103 l 411 109 l 411 110 q 404 121 407 115 q 395 135 400 127 q 385 160 385 157 q 382 161 382 160 l 382 164 q 378 178 379 171 q 374 189 376 184 q 370 210 371 200 q 366 227 368 220 l 366 229 q 365 236 366 233 q 364 241 364 239 l 364 245 l 364 260 q 361 279 361 267 q 361 288 361 283 q 364 296 361 293 q 365 317 364 307 q 366 334 366 328 l 366 335 q 370 358 370 352 q 373 369 372 365 q 376 379 374 374 q 344 317 358 346 q 319 267 330 289 q 291 204 304 232 q 268 154 278 176 l 222 52 l 222 47 q 178 -9 204 10 q 122 -29 151 -29 q 56 1 85 -29 q 28 38 40 17 q 11 85 17 60 q 3 138 4 110 q 5 192 1 165 l 5 196 l 7 201 l 7 204 q 9 218 9 211 q 11 233 9 225 q 22 283 16 258 q 35 335 28 307 q 57 410 45 372 q 81 484 68 447 q 114 577 96 532 q 151 664 132 623 q 177 715 163 689 q 203 764 191 741 q 238 820 221 794 q 273 867 254 846 q 318 917 292 892 q 343 940 330 930 q 368 960 355 950 q 396 978 382 969 q 427 996 411 987 q 459 1007 444 1002 q 490 1017 475 1011 l 510 1017 l 511 1017 q 517 1019 514 1017 q 522 1021 519 1021 l 526 1021 l 528 1021 l 539 1021 l 551 1017 l 557 1017 l 559 1017 l 561 1017 l 566 1017 l 568 1017 q 602 1004 585 1011 q 632 983 618 997 l 635 983 q 653 965 644 975 q 669 942 663 954 q 685 919 677 932 q 699 892 692 905 q 713 844 707 868 q 722 791 720 819 q 725 759 724 776 q 726 722 726 742 l 726 721 q 725 715 726 718 q 724 710 724 713 q 732 714 728 714 l 743 714 l 745 714 q 749 717 745 717 l 753 717 l 755 717 l 760 717 l 764 717 l 768 717 l 774 717 q 777 715 775 717 l 777 714 l 781 714 l 782 714 l 785 714 l 786 714 q 798 710 793 714 q 806 708 803 710 l 807 708 q 836 694 823 703 q 861 672 848 685 q 885 647 875 663 q 901 664 892 656 q 930 684 915 675 q 961 696 946 693 l 965 696 l 981 696 l 990 696 m 724 708 q 739 713 732 712 q 753 717 746 714 q 739 713 746 714 q 724 708 732 712 z "},"G":{"ha":798,"x_min":1,"x_max":1055,"o":"m 669 -78 l 668 -78 l 669 -78 m 935 604 q 990 584 964 604 q 1035 529 1017 564 q 1054 424 1055 481 q 1035 322 1054 367 q 1022 295 1028 309 q 1007 267 1015 281 q 1001 255 1004 261 q 993 241 997 249 q 987 229 990 233 q 978 216 983 224 l 972 204 l 965 192 l 964 192 q 958 180 961 186 q 949 168 954 174 q 935 145 942 157 q 920 122 928 134 l 918 122 l 916 118 q 909 109 913 114 q 901 97 905 104 l 895 87 l 893 87 l 886 79 q 880 70 884 74 q 873 60 876 65 q 871 57 873 60 l 869 56 q 865 54 868 54 q 861 47 865 52 q 855 40 859 45 q 847 31 851 36 q 827 8 838 20 q 806 -12 817 -3 l 803 -12 l 802 -16 q 793 -21 799 -20 l 790 -25 l 782 -32 q 770 -40 777 -33 l 768 -40 q 756 -47 762 -44 q 749 -53 751 -50 l 743 -57 q 741 -58 742 -57 l 739 -58 q 732 -62 735 -58 l 730 -62 l 724 -65 q 711 -69 718 -69 l 710 -69 l 707 -71 l 705 -71 q 694 -75 699 -71 l 686 -75 l 681 -78 l 677 -78 l 664 -78 l 661 -78 l 660 -78 l 652 -78 q 574 -46 610 -74 q 518 17 542 -25 q 500 45 509 31 q 485 79 492 60 q 479 92 482 86 q 473 106 476 98 q 469 104 472 106 l 456 92 l 453 92 l 436 79 q 400 54 416 64 q 368 35 383 45 q 333 14 353 25 q 289 -7 313 3 l 281 -8 l 279 -8 q 278 -12 278 -8 l 269 -12 q 268 -14 268 -12 l 268 -16 l 265 -16 l 257 -20 l 252 -20 l 243 -21 l 240 -21 l 239 -21 q 227 -25 232 -21 l 214 -25 q 205 -28 207 -25 l 203 -28 l 201 -28 l 195 -28 q 190 -26 192 -28 q 184 -25 187 -25 l 178 -25 q 165 -23 171 -25 q 157 -21 160 -21 l 157 -20 l 155 -20 q 146 -18 150 -20 q 139 -12 142 -16 q 119 -3 134 -12 l 115 0 q 112 3 114 3 q 107 5 110 4 q 104 9 106 8 q 102 12 103 9 q 98 17 99 12 q 90 22 96 17 q 86 25 89 25 l 85 29 q 82 31 85 29 q 78 37 81 33 q 69 47 75 40 l 65 54 q 56 72 57 64 q 46 86 50 79 q 40 97 43 93 l 40 100 q 39 103 39 101 l 39 106 q 27 134 32 121 q 20 163 22 147 q 9 210 13 186 q 3 260 5 233 l 3 262 q 1 301 1 282 q 1 342 1 319 l 1 343 q 5 416 3 379 q 16 488 8 453 q 30 552 22 519 q 49 616 37 585 q 70 674 58 646 q 93 730 81 703 q 118 785 105 760 q 133 811 125 800 q 149 835 142 822 q 182 883 164 860 q 220 929 200 907 q 267 971 243 953 q 315 1000 290 989 q 346 1012 331 1007 q 376 1017 361 1017 l 382 1017 l 382 1018 l 393 1018 l 395 1018 q 411 1017 407 1018 l 414 1017 l 431 1017 q 439 1013 432 1013 l 440 1013 q 518 937 489 1000 q 537 874 532 909 q 539 804 543 839 q 508 710 532 749 q 447 656 484 671 l 440 656 l 439 654 l 436 654 l 435 654 l 435 650 l 432 650 l 431 650 q 429 647 431 648 l 428 647 l 424 643 q 399 612 410 629 l 397 610 q 382 585 389 599 q 376 574 379 581 q 370 559 372 567 l 368 559 q 355 529 361 546 q 340 497 349 513 q 333 472 336 485 q 323 447 329 458 q 335 461 330 454 q 345 472 340 468 q 347 475 345 475 q 369 503 358 488 q 393 534 380 518 q 415 565 403 550 q 439 597 427 581 q 451 614 446 607 q 461 629 457 621 q 467 636 464 633 q 472 643 469 639 l 481 660 q 531 709 503 693 q 589 725 558 725 q 694 663 650 725 q 727 588 715 629 q 739 500 739 547 l 739 485 l 739 472 l 739 450 q 741 443 741 448 q 744 445 743 443 q 747 450 745 447 l 751 454 l 760 463 l 761 463 q 777 479 765 468 q 791 494 783 486 q 806 505 799 501 l 865 572 q 935 604 897 604 z "},"H":{"ha":791,"x_min":0,"x_max":1013,"o":"m 943 639 q 995 562 978 612 q 1008 454 1013 511 l 1008 452 l 1008 447 l 1008 441 l 1008 439 q 1005 420 1006 429 q 1002 401 1004 411 q 990 337 998 370 q 972 272 982 304 q 958 225 966 248 q 939 183 950 203 l 939 179 l 935 171 q 933 164 933 171 l 929 158 q 923 145 926 150 q 917 135 920 140 l 914 134 q 910 124 911 128 q 905 117 908 119 l 904 117 l 904 114 q 899 107 901 111 q 893 97 896 103 l 888 92 l 888 90 q 885 89 888 89 q 884 85 884 86 q 882 82 884 83 l 879 79 l 876 77 l 872 72 q 867 64 869 69 l 864 60 l 863 60 l 860 58 q 850 47 859 56 l 847 46 l 839 39 l 838 35 q 834 33 835 33 q 831 29 833 32 l 829 29 l 827 29 l 822 26 l 818 22 q 812 18 815 18 q 806 14 808 17 l 804 14 l 802 9 q 789 4 799 9 l 787 4 q 785 1 787 4 l 775 -3 l 772 -3 q 762 -4 768 -4 l 760 -4 l 760 -8 l 755 -8 l 754 -8 l 750 -8 l 747 -11 l 734 -11 l 733 -11 l 729 -16 l 725 -16 l 717 -16 l 713 -16 l 708 -16 l 700 -16 l 697 -16 l 696 -16 l 693 -16 l 688 -16 l 685 -11 l 684 -11 l 675 -11 q 639 1 658 -7 l 637 1 q 620 11 628 7 q 604 21 611 16 q 567 48 585 32 q 529 85 549 65 q 517 74 522 78 q 504 64 511 69 q 475 42 488 52 q 450 22 463 32 q 432 13 441 18 q 416 4 424 8 l 412 1 l 410 1 l 408 1 q 404 -3 406 -3 l 397 -4 l 396 -4 l 393 -7 q 389 -8 392 -8 l 383 -11 q 374 -15 378 -14 q 367 -16 370 -16 l 367 -17 q 358 -19 361 -17 q 351 -21 354 -21 l 350 -21 l 346 -21 q 330 -26 338 -24 q 313 -28 322 -28 l 310 -28 q 295 -29 303 -29 q 279 -29 286 -29 q 256 -29 269 -29 q 233 -28 244 -29 q 225 -24 231 -25 q 212 -21 220 -24 q 204 -17 205 -21 l 200 -17 l 193 -16 q 184 -12 189 -13 q 176 -8 179 -11 l 175 -8 q 166 -3 170 -5 q 160 1 163 -1 l 158 1 q 152 6 155 4 q 143 9 149 8 l 142 9 q 134 17 139 12 q 122 26 129 22 l 121 26 q 115 31 118 29 q 110 35 113 33 q 109 37 110 35 l 109 39 l 102 46 q 94 54 98 50 q 87 60 90 58 l 87 64 l 85 64 q 81 71 83 66 q 72 83 78 75 q 63 95 68 87 q 52 114 58 102 q 41 135 45 125 q 35 151 37 144 l 33 151 q 28 166 31 161 q 25 176 26 172 l 25 179 q 20 191 22 183 q 17 208 18 199 q 14 215 14 212 q 12 222 14 218 q 8 248 8 241 q 5 274 5 263 q 1 292 4 285 q 1 308 1 301 q 0 321 0 315 l 0 322 l 0 335 l 0 346 q 0 361 0 353 q 1 376 0 370 l 1 385 l 1 392 q 4 414 4 397 q 5 422 5 416 l 9 446 l 9 454 q 14 472 14 463 l 14 476 q 17 486 16 481 q 21 496 18 490 l 22 504 l 25 510 q 26 517 25 515 q 26 521 26 518 l 29 529 l 31 539 l 33 542 l 33 546 l 35 551 l 39 567 q 41 568 41 567 l 41 571 q 43 576 43 572 q 46 583 43 581 l 47 585 q 54 608 52 602 l 56 610 q 57 617 56 612 q 60 627 58 623 q 74 659 66 642 q 89 692 82 676 l 89 696 q 104 729 97 715 q 118 758 111 743 q 150 814 134 786 q 180 871 165 843 l 183 871 q 200 896 193 884 q 214 921 207 908 l 216 921 l 222 929 l 224 929 l 224 930 q 225 933 224 930 l 231 942 q 237 949 233 946 q 243 958 241 953 q 244 959 244 958 q 245 960 244 960 l 248 960 q 249 964 248 964 l 250 964 q 285 1007 267 987 q 321 1042 302 1026 l 322 1042 q 339 1059 330 1051 q 359 1076 349 1067 q 369 1081 365 1079 q 375 1084 372 1083 q 379 1089 376 1088 l 380 1089 q 389 1096 387 1096 l 392 1097 q 398 1099 395 1097 q 406 1104 401 1101 l 412 1108 q 415 1109 412 1108 l 416 1109 l 425 1114 l 427 1117 l 431 1117 q 434 1119 433 1117 q 437 1121 435 1121 l 443 1122 l 446 1122 l 452 1122 l 452 1126 l 454 1126 l 463 1126 q 467 1129 464 1129 l 476 1129 l 479 1129 q 488 1133 484 1132 q 496 1133 493 1133 l 497 1133 l 510 1133 q 538 1128 526 1131 q 567 1121 551 1125 q 592 1106 579 1113 q 616 1089 604 1099 q 632 1070 623 1080 q 652 1051 642 1061 l 652 1047 q 679 1010 665 1036 q 695 978 688 994 q 710 946 703 961 q 718 922 713 934 q 725 897 722 909 q 726 890 725 893 q 726 885 726 888 l 726 884 l 729 884 q 734 811 736 848 q 722 742 732 774 q 720 737 721 739 q 718 733 718 734 q 733 723 725 728 q 750 708 741 718 q 763 691 757 700 q 777 672 770 682 q 792 645 786 661 q 806 614 799 629 l 806 610 q 889 659 842 659 q 943 639 917 659 m 397 439 q 397 488 396 464 q 404 533 399 511 q 412 571 406 551 q 411 568 412 570 l 411 567 l 410 567 q 388 525 399 546 q 371 485 378 504 l 359 464 l 359 461 q 358 460 359 460 q 351 447 358 454 l 350 441 q 345 428 347 435 q 339 416 342 421 l 343 416 l 346 416 q 350 419 347 416 q 355 421 353 421 l 358 421 q 373 429 365 425 q 393 439 382 432 l 397 439 z "},"I":{"ha":957,"x_min":0,"x_max":1099,"o":"m 985 627 q 1030 608 1008 624 q 1068 564 1053 591 q 1091 502 1084 536 q 1097 433 1099 468 q 1081 355 1095 391 q 1044 296 1067 319 q 1039 286 1043 293 q 1031 267 1035 279 q 1023 251 1028 260 q 1015 233 1018 243 q 1001 204 1008 218 q 986 171 994 191 q 980 159 983 165 q 974 147 977 153 l 970 142 q 963 125 967 132 q 953 109 958 118 q 944 90 949 99 q 935 71 939 81 q 909 29 924 54 q 900 17 904 22 q 893 4 896 11 l 890 4 q 881 -9 886 -1 q 865 -24 875 -17 l 865 -28 q 856 -35 861 -29 q 843 -46 850 -41 q 836 -53 840 -46 l 832 -53 l 831 -54 q 815 -61 820 -61 l 814 -65 l 811 -65 q 808 -66 810 -65 q 803 -66 806 -66 l 802 -66 l 799 -66 q 790 -71 798 -71 l 789 -71 q 785 -74 786 -71 l 782 -74 l 772 -74 l 765 -74 l 757 -74 l 755 -74 l 745 -74 q 738 -70 742 -71 q 728 -66 733 -69 q 722 -64 725 -65 q 714 -61 718 -64 q 700 -52 707 -56 q 685 -40 692 -47 q 670 -25 677 -32 q 660 -11 664 -18 l 659 -11 q 657 -8 657 -11 q 640 21 646 1 l 639 22 q 628 47 633 36 q 627 54 627 50 q 624 60 627 58 q 623 71 623 64 q 619 82 620 77 q 615 89 618 86 l 615 92 q 614 105 614 98 q 611 117 614 111 l 611 122 l 610 129 l 610 142 q 607 165 607 155 q 607 184 607 175 q 610 200 610 193 q 610 214 610 207 q 611 234 611 224 q 614 252 611 244 q 623 309 615 278 q 629 359 625 334 q 639 408 633 385 q 642 425 640 418 q 644 441 643 432 q 650 471 647 455 q 656 501 653 488 q 662 543 659 521 q 668 589 665 566 q 669 602 669 591 l 668 602 l 665 599 q 661 597 664 597 q 660 596 661 596 q 638 578 649 588 q 615 558 627 568 q 595 533 606 546 q 574 504 585 521 q 550 471 562 488 q 528 439 539 454 q 504 402 515 419 q 481 371 493 386 q 455 335 469 351 q 432 304 441 318 l 390 252 l 390 248 l 351 197 l 349 197 l 347 196 q 340 183 345 188 q 330 172 335 178 q 327 169 328 171 q 323 164 326 167 q 319 158 321 161 q 314 151 317 154 q 282 112 298 132 q 252 72 267 92 q 226 45 236 56 q 210 26 216 33 q 203 17 207 22 q 197 9 200 12 l 193 8 q 122 -28 161 -28 q 68 -8 94 -28 q 24 47 41 12 q 2 142 4 90 q 18 241 0 195 l 20 248 q 24 260 22 256 q 28 271 26 265 q 42 302 33 281 q 61 346 50 322 q 86 397 73 371 q 114 446 98 422 q 120 457 117 452 q 126 467 123 461 q 127 471 127 469 q 131 476 127 473 l 139 489 l 139 492 l 140 492 l 149 504 l 149 509 q 169 538 158 524 q 189 571 179 553 q 211 603 200 587 q 235 635 222 619 q 261 674 248 657 q 289 708 273 690 q 318 740 302 724 q 351 772 334 757 q 383 803 367 788 q 415 833 399 818 q 447 859 431 847 q 481 885 463 871 l 485 889 q 516 913 500 900 q 547 939 532 926 q 590 968 571 954 q 631 991 610 982 q 640 996 635 996 l 640 997 q 650 1001 646 1000 q 657 1004 654 1002 q 661 1005 659 1004 q 671 1008 664 1006 q 692 1013 677 1010 q 732 1022 707 1017 l 734 1022 q 744 1022 739 1022 q 753 1021 749 1022 q 844 985 800 1021 q 868 965 857 975 q 889 939 879 954 q 924 879 909 912 q 935 850 930 863 q 945 822 940 838 l 945 821 q 957 766 954 795 q 970 672 968 718 l 970 627 l 985 627 l 985 627 z "},"J":{"ha":928,"x_min":-5,"x_max":1117,"o":"m 994 585 q 1057 559 1027 585 q 1101 492 1086 533 q 1114 435 1111 465 q 1114 376 1117 406 q 1103 320 1111 347 q 1080 272 1095 293 q 1072 263 1075 268 q 1065 254 1068 258 l 1061 248 q 1057 242 1060 246 q 1051 233 1054 237 l 1039 216 l 1023 197 q 1010 178 1017 186 q 997 160 1004 170 q 987 148 991 153 q 978 135 983 143 q 975 131 977 134 q 970 126 972 129 l 970 122 l 943 89 l 916 54 l 889 21 q 878 6 884 13 q 868 -8 872 -1 l 861 -16 q 768 -66 821 -67 q 707 -46 736 -66 q 657 9 677 -25 q 635 72 640 41 q 619 52 625 60 l 603 26 l 586 1 q 539 -48 566 -31 q 485 -65 513 -65 q 430 -48 457 -65 q 382 -3 403 -32 q 352 61 362 25 q 340 136 342 97 q 347 213 339 175 q 372 285 355 252 q 380 302 376 294 q 389 317 383 310 l 390 321 l 395 329 q 406 350 400 338 q 415 372 411 361 q 427 395 422 385 q 436 416 432 406 q 448 437 443 426 q 457 460 453 449 q 476 503 468 482 q 493 546 485 524 l 494 547 q 482 531 488 538 q 472 517 476 524 q 460 499 465 507 q 449 484 454 490 q 436 462 442 471 q 427 446 431 453 q 424 441 424 446 q 414 424 420 435 q 401 404 408 414 l 399 401 q 389 383 395 392 q 378 364 383 374 q 368 343 374 355 q 355 321 363 332 l 353 317 q 344 297 349 307 q 332 277 339 288 l 326 264 q 319 250 323 257 q 311 233 314 243 q 307 226 309 231 q 302 216 306 221 q 295 203 298 210 q 289 189 292 196 l 289 184 q 280 172 283 178 q 273 158 277 165 q 270 151 272 155 q 265 142 268 146 l 220 47 l 220 46 q 176 -9 203 10 q 122 -28 150 -28 q 52 8 82 -28 q 7 96 20 40 q 7 210 -5 153 q 15 241 9 225 q 24 277 20 257 q 33 307 29 292 q 40 335 37 321 q 50 367 45 353 q 60 396 54 380 l 61 397 l 61 401 q 71 428 66 417 q 81 454 75 439 q 90 481 85 467 q 102 510 96 496 q 114 542 109 528 q 123 567 119 555 q 149 622 136 595 q 174 676 161 650 q 203 733 189 707 q 232 783 216 760 l 239 796 l 240 796 l 248 808 q 255 822 252 815 q 264 833 258 828 q 281 859 273 847 q 298 884 289 871 l 298 885 q 339 933 319 907 q 360 955 350 944 q 382 977 371 966 l 385 977 q 439 1019 412 1002 q 494 1046 467 1036 q 535 1056 515 1053 q 574 1060 554 1060 q 602 1059 589 1060 q 628 1051 615 1057 q 637 1049 633 1051 q 643 1047 640 1047 l 647 1046 q 656 1042 651 1043 q 664 1039 661 1042 l 665 1039 l 669 1035 q 675 1033 672 1034 q 681 1029 677 1032 l 685 1026 q 692 1021 688 1023 q 703 1010 696 1018 l 707 1008 l 710 1004 q 717 998 714 1002 q 722 991 720 994 l 724 991 l 726 989 q 736 972 733 979 q 739 971 739 972 l 743 964 q 748 957 746 961 q 753 947 750 953 q 760 935 755 943 q 768 917 765 926 l 770 914 q 778 892 775 903 l 781 885 q 783 872 782 878 q 786 860 785 865 l 786 859 q 789 849 789 856 q 793 833 790 843 l 793 827 q 793 824 793 824 q 794 822 794 823 l 794 821 q 796 811 794 815 q 798 804 798 807 q 798 792 798 798 q 799 783 799 787 l 810 783 l 811 783 l 814 783 l 822 783 l 823 779 l 832 779 q 841 778 838 779 q 847 777 844 777 l 851 777 q 857 773 852 774 q 865 771 861 772 q 870 767 868 768 q 873 764 872 766 q 883 759 879 761 q 893 754 888 757 q 898 749 896 751 q 903 746 900 747 q 906 744 905 746 q 909 742 907 742 q 918 733 912 736 q 931 718 925 725 q 940 708 937 710 l 940 704 l 943 704 l 943 701 q 945 699 945 701 q 947 697 945 697 q 953 689 950 694 l 953 685 q 957 679 956 684 q 961 671 961 675 q 964 667 964 671 l 965 664 q 966 661 965 663 q 968 659 966 660 l 970 654 l 974 647 q 977 642 974 646 q 981 633 977 635 q 988 609 985 621 q 994 585 991 597 z "},"K":{"ha":1090,"x_min":-7,"x_max":1043,"o":"m 979 675 q 1010 639 998 661 q 1031 590 1023 616 q 1041 533 1039 564 q 1038 472 1043 503 q 1013 359 1027 415 q 995 305 1004 332 q 975 254 986 278 q 921 147 950 193 q 902 122 911 135 q 884 97 893 109 q 861 74 873 85 q 838 54 848 64 q 718 9 781 9 l 717 9 l 704 9 l 700 9 l 697 9 l 688 9 l 685 9 l 681 12 l 676 12 l 675 12 l 672 12 l 668 12 q 661 16 665 15 q 654 18 657 17 l 652 18 l 646 18 l 646 20 q 643 22 646 22 l 640 22 q 637 25 637 22 l 631 25 l 629 29 l 627 29 q 617 35 624 31 q 604 43 611 39 l 600 47 q 591 55 595 53 q 585 60 587 57 l 583 62 l 579 66 l 578 66 q 576 68 576 66 q 571 75 574 71 q 567 79 568 79 l 567 81 q 539 118 551 99 q 518 163 528 138 q 514 153 515 157 q 510 143 513 149 q 493 108 500 123 q 475 79 485 93 q 447 37 463 56 q 425 17 436 26 q 401 -3 414 7 q 389 -8 395 -8 l 387 -8 q 380 -12 385 -12 q 374 -17 378 -15 q 367 -20 371 -20 q 355 -21 360 -21 q 347 -21 350 -21 q 345 -23 346 -21 q 342 -25 343 -25 l 334 -25 l 330 -25 l 329 -25 l 326 -25 l 325 -25 q 319 -23 322 -25 q 314 -21 317 -21 l 313 -21 l 310 -21 l 309 -21 l 306 -21 l 304 -20 l 300 -20 q 295 -18 297 -20 q 292 -16 293 -16 l 289 -16 q 272 -8 283 -16 q 269 -6 271 -7 q 264 -3 267 -5 l 260 -3 q 175 104 207 31 q 170 115 172 111 q 164 125 167 119 q 163 130 163 127 q 160 135 163 132 q 141 128 151 131 q 121 125 132 125 q 80 135 100 125 q 46 167 61 144 q 4 261 14 204 q 8 375 -7 318 q 17 406 12 389 q 26 437 22 422 q 30 450 29 444 q 33 460 31 456 l 37 468 q 40 480 39 473 q 43 492 41 486 l 46 500 q 51 514 49 507 q 56 530 53 521 l 64 559 l 75 587 q 79 601 77 594 q 83 616 81 608 l 93 647 l 114 705 l 134 762 q 135 764 134 762 l 135 766 l 154 822 q 158 832 155 827 q 163 842 160 836 q 163 845 163 843 q 164 850 164 847 q 219 932 185 901 q 293 962 253 962 q 363 937 330 962 q 431 817 412 897 q 437 850 433 832 q 443 888 440 868 q 453 938 448 914 q 463 987 457 962 l 500 1192 q 553 1309 513 1263 q 643 1354 593 1354 q 663 1352 652 1354 q 684 1348 673 1350 q 732 1311 710 1337 q 769 1253 754 1286 q 790 1179 783 1219 q 791 1097 796 1139 l 787 1075 l 785 1054 q 784 1033 785 1044 q 783 1013 783 1022 q 779 970 781 991 q 775 929 777 949 l 775 925 q 774 885 775 905 q 771 842 772 865 q 766 755 767 793 q 764 714 764 736 q 762 672 764 693 l 762 631 q 760 611 760 620 q 760 591 760 602 l 760 550 l 760 534 l 760 530 l 760 513 q 761 500 760 506 q 762 488 762 494 l 762 489 q 764 492 762 492 q 777 515 770 503 q 791 543 783 528 q 798 558 794 551 q 804 572 802 566 q 814 604 812 588 l 817 604 q 860 673 832 649 q 921 697 888 697 q 979 675 953 697 z "},"L":{"ha":703,"x_min":1,"x_max":785,"o":"m 785 921 l 785 893 q 784 877 785 884 q 783 864 783 869 l 783 859 q 776 824 781 839 q 768 800 771 810 l 768 796 q 755 767 762 781 q 743 743 749 753 q 734 725 739 734 q 726 708 729 715 q 719 699 722 703 q 710 688 715 694 q 703 674 707 680 q 696 664 699 669 q 690 655 693 660 q 684 646 686 650 q 674 632 678 639 q 664 621 669 625 q 660 614 664 614 q 659 595 659 604 q 656 576 659 586 q 647 497 652 538 q 642 414 643 457 q 637 339 637 376 l 637 330 q 729 245 697 322 q 748 144 749 198 q 726 46 747 90 l 722 39 q 710 14 720 31 q 700 -5 706 4 q 688 -24 694 -14 q 679 -36 681 -33 q 676 -37 677 -36 q 671 -44 673 -40 q 667 -50 668 -49 l 664 -50 q 650 -67 657 -60 q 633 -82 643 -75 q 609 -97 621 -92 q 583 -107 597 -102 q 566 -111 575 -110 q 550 -111 557 -111 q 531 -111 541 -111 q 513 -104 522 -110 q 443 -57 475 -96 l 441 -57 q 400 5 418 -28 q 375 68 388 35 q 368 97 372 83 q 359 125 363 110 q 354 151 357 138 q 350 176 351 163 q 342 171 347 175 q 335 164 338 167 l 335 163 q 326 153 331 157 q 314 143 321 149 q 311 138 313 140 q 310 134 310 136 q 297 121 303 130 q 252 75 271 97 q 244 66 248 70 q 237 58 240 62 q 233 55 235 58 q 229 50 231 52 q 147 -29 200 -14 q 136 -31 140 -29 q 126 -32 132 -32 l 122 -32 q 119 -31 121 -32 q 114 -29 117 -29 q 83 -20 100 -29 q 68 -9 75 -14 q 54 5 61 -4 q 20 58 33 26 q 1 126 7 89 l 1 163 l 1 176 q 3 186 1 182 q 4 196 4 191 l 4 200 q 17 250 9 231 q 33 294 24 270 q 58 346 43 318 q 84 392 71 370 q 114 439 98 415 q 121 451 117 447 q 126 458 125 456 q 131 468 130 464 q 140 480 136 473 q 150 493 144 486 q 169 522 159 509 q 189 550 179 534 q 210 575 199 561 q 233 606 221 589 q 258 638 245 621 q 283 668 271 654 q 309 697 296 684 q 339 726 322 711 l 372 758 q 376 775 375 768 q 379 793 376 783 q 416 918 397 861 q 423 933 419 925 q 431 951 427 942 q 439 971 436 964 q 447 989 443 979 q 457 1007 452 998 q 468 1025 461 1017 q 482 1045 475 1036 q 496 1064 489 1054 l 497 1064 q 516 1083 507 1074 q 538 1101 526 1092 q 563 1118 550 1111 q 591 1126 576 1125 q 598 1128 595 1126 q 604 1131 602 1131 l 612 1131 l 614 1131 l 616 1131 l 623 1131 l 633 1131 l 639 1131 l 642 1131 l 643 1131 l 646 1131 q 652 1126 647 1126 l 654 1126 l 659 1126 q 700 1105 675 1124 q 704 1101 701 1105 q 710 1098 707 1100 q 717 1093 714 1096 q 718 1090 717 1092 q 721 1089 718 1089 q 728 1080 724 1085 q 734 1071 732 1075 q 738 1066 737 1068 q 742 1064 739 1064 q 747 1053 743 1060 q 758 1034 751 1046 q 765 1018 761 1027 q 772 996 770 1008 q 775 988 775 990 q 777 981 775 986 l 777 975 q 781 958 781 964 l 781 956 q 783 944 783 951 q 785 930 783 937 l 785 921 z "},"M":{"ha":983,"x_min":1,"x_max":1104,"o":"m 990 696 q 1037 676 1015 693 q 1074 633 1059 660 q 1097 573 1089 607 q 1103 501 1104 539 q 1085 424 1100 460 q 1048 364 1071 387 q 1045 354 1047 360 q 1040 342 1043 349 q 1028 305 1034 326 q 1015 260 1022 283 q 1009 241 1013 250 q 1003 221 1006 232 l 990 183 l 989 179 q 981 156 986 168 q 974 134 977 144 q 964 105 970 118 q 951 77 958 92 q 942 58 946 67 q 935 41 939 49 q 931 34 932 36 q 928 29 930 32 q 925 23 926 26 q 922 17 924 20 q 918 11 920 14 q 914 8 916 8 l 914 4 q 907 -4 907 0 l 905 -4 q 901 -9 903 -7 q 897 -17 900 -12 l 895 -21 l 893 -21 q 888 -26 890 -24 q 885 -29 886 -28 l 884 -29 q 882 -33 882 -29 l 880 -33 q 877 -37 878 -36 q 873 -40 876 -37 l 872 -40 q 871 -41 872 -41 l 869 -41 l 868 -46 l 865 -46 q 863 -50 864 -49 q 860 -53 861 -50 l 857 -53 l 856 -53 l 852 -54 l 848 -54 q 836 -61 842 -61 q 830 -64 833 -64 q 823 -66 827 -65 l 822 -66 l 819 -66 l 818 -66 l 815 -66 l 814 -71 l 811 -71 l 802 -71 l 798 -71 l 793 -71 l 790 -71 q 781 -70 787 -71 q 768 -66 775 -69 l 764 -66 q 751 -61 757 -66 q 730 -53 743 -61 q 714 -41 722 -47 q 699 -28 707 -35 q 692 -19 696 -22 q 686 -11 689 -16 l 686 -9 l 685 -8 q 680 -2 682 -5 q 676 4 677 1 q 665 25 669 16 q 660 39 661 35 l 659 39 q 657 41 657 39 q 656 45 656 43 q 654 47 654 46 q 653 52 654 49 l 653 54 l 652 58 q 650 62 652 60 q 647 71 648 65 q 644 78 644 75 q 643 85 644 81 l 643 89 l 640 92 l 640 96 l 640 97 q 640 101 640 100 q 639 104 639 102 l 639 109 l 639 110 l 636 114 l 636 121 q 627 111 632 115 q 618 102 623 107 q 608 95 612 99 q 599 89 604 92 q 572 71 585 73 l 570 71 q 567 67 568 68 q 564 64 566 66 l 557 64 q 547 58 555 61 l 545 58 l 543 58 l 541 58 l 539 58 q 534 54 539 58 l 532 54 l 528 54 l 526 54 l 524 54 l 511 54 l 497 54 q 490 56 494 54 q 478 58 485 58 q 457 71 470 60 l 456 71 q 445 76 450 72 q 435 85 439 81 l 432 85 q 423 97 428 90 q 414 109 418 103 l 411 109 l 411 110 q 404 121 407 115 q 395 135 400 127 q 385 160 385 157 q 382 161 382 160 l 382 164 q 378 178 379 171 q 374 189 376 184 q 370 210 371 200 q 366 227 368 220 l 366 229 q 365 236 366 233 q 364 241 364 239 l 364 245 l 364 260 q 361 279 361 267 q 361 288 361 283 q 364 296 361 293 q 365 317 364 307 q 366 334 366 328 l 366 335 q 370 358 370 352 q 373 369 372 365 q 376 379 374 374 q 344 317 358 346 q 319 267 330 289 q 291 204 304 232 q 268 154 278 176 l 222 52 l 222 47 q 178 -9 204 10 q 122 -29 151 -29 q 56 1 85 -29 q 28 38 40 17 q 11 85 17 60 q 3 138 4 110 q 5 192 1 165 l 5 196 l 7 201 l 7 204 q 9 218 9 211 q 11 233 9 225 q 22 283 16 258 q 35 335 28 307 q 57 410 45 372 q 81 484 68 447 q 114 577 96 532 q 151 664 132 623 q 177 715 163 689 q 203 764 191 741 q 238 820 221 794 q 273 867 254 846 q 318 917 292 892 q 343 940 330 930 q 368 960 355 950 q 396 978 382 969 q 427 996 411 987 q 459 1007 444 1002 q 490 1017 475 1011 l 510 1017 l 511 1017 q 517 1019 514 1017 q 522 1021 519 1021 l 526 1021 l 528 1021 l 539 1021 l 551 1017 l 557 1017 l 559 1017 l 561 1017 l 566 1017 l 568 1017 q 602 1004 585 1011 q 632 983 618 997 l 635 983 q 653 965 644 975 q 669 942 663 954 q 685 919 677 932 q 699 892 692 905 q 713 844 707 868 q 722 791 720 819 q 725 759 724 776 q 726 722 726 742 l 726 721 q 725 715 726 718 q 724 710 724 713 q 732 714 728 714 l 743 714 l 745 714 q 749 717 745 717 l 753 717 l 755 717 l 760 717 l 764 717 l 768 717 l 774 717 q 777 715 775 717 l 777 714 l 781 714 l 782 714 l 785 714 l 786 714 q 798 710 793 714 q 806 708 803 710 l 807 708 q 836 694 823 703 q 861 672 848 685 q 885 647 875 663 q 901 664 892 656 q 930 684 915 675 q 961 696 946 693 l 965 696 l 981 696 l 990 696 m 724 708 q 739 713 732 712 q 753 717 746 714 q 739 713 746 714 q 724 708 732 712 z "},"N":{"ha":798,"x_min":1,"x_max":1055,"o":"m 669 -78 l 668 -78 l 669 -78 m 935 604 q 990 584 964 604 q 1035 529 1017 564 q 1054 424 1055 481 q 1035 322 1054 367 q 1022 295 1028 309 q 1007 267 1015 281 q 1001 255 1004 261 q 993 241 997 249 q 987 229 990 233 q 978 216 983 224 l 972 204 l 965 192 l 964 192 q 958 180 961 186 q 949 168 954 174 q 935 145 942 157 q 920 122 928 134 l 918 122 l 916 118 q 909 109 913 114 q 901 97 905 104 l 895 87 l 893 87 l 886 79 q 880 70 884 74 q 873 60 876 65 q 871 57 873 60 l 869 56 q 865 54 868 54 q 861 47 865 52 q 855 40 859 45 q 847 31 851 36 q 827 8 838 20 q 806 -12 817 -3 l 803 -12 l 802 -16 q 793 -21 799 -20 l 790 -25 l 782 -32 q 770 -40 777 -33 l 768 -40 q 756 -47 762 -44 q 749 -53 751 -50 l 743 -57 q 741 -58 742 -57 l 739 -58 q 732 -62 735 -58 l 730 -62 l 724 -65 q 711 -69 718 -69 l 710 -69 l 707 -71 l 705 -71 q 694 -75 699 -71 l 686 -75 l 681 -78 l 677 -78 l 664 -78 l 661 -78 l 660 -78 l 652 -78 q 574 -46 610 -74 q 518 17 542 -25 q 500 45 509 31 q 485 79 492 60 q 479 92 482 86 q 473 106 476 98 q 469 104 472 106 l 456 92 l 453 92 l 436 79 q 400 54 416 64 q 368 35 383 45 q 333 14 353 25 q 289 -7 313 3 l 281 -8 l 279 -8 q 278 -12 278 -8 l 269 -12 q 268 -14 268 -12 l 268 -16 l 265 -16 l 257 -20 l 252 -20 l 243 -21 l 240 -21 l 239 -21 q 227 -25 232 -21 l 214 -25 q 205 -28 207 -25 l 203 -28 l 201 -28 l 195 -28 q 190 -26 192 -28 q 184 -25 187 -25 l 178 -25 q 165 -23 171 -25 q 157 -21 160 -21 l 157 -20 l 155 -20 q 146 -18 150 -20 q 139 -12 142 -16 q 119 -3 134 -12 l 115 0 q 112 3 114 3 q 107 5 110 4 q 104 9 106 8 q 102 12 103 9 q 98 17 99 12 q 90 22 96 17 q 86 25 89 25 l 85 29 q 82 31 85 29 q 78 37 81 33 q 69 47 75 40 l 65 54 q 56 72 57 64 q 46 86 50 79 q 40 97 43 93 l 40 100 q 39 103 39 101 l 39 106 q 27 134 32 121 q 20 163 22 147 q 9 210 13 186 q 3 260 5 233 l 3 262 q 1 301 1 282 q 1 342 1 319 l 1 343 q 5 416 3 379 q 16 488 8 453 q 30 552 22 519 q 49 616 37 585 q 70 674 58 646 q 93 730 81 703 q 118 785 105 760 q 133 811 125 800 q 149 835 142 822 q 182 883 164 860 q 220 929 200 907 q 267 971 243 953 q 315 1000 290 989 q 346 1012 331 1007 q 376 1017 361 1017 l 382 1017 l 382 1018 l 393 1018 l 395 1018 q 411 1017 407 1018 l 414 1017 l 431 1017 q 439 1013 432 1013 l 440 1013 q 518 937 489 1000 q 537 874 532 909 q 539 804 543 839 q 508 710 532 749 q 447 656 484 671 l 440 656 l 439 654 l 436 654 l 435 654 l 435 650 l 432 650 l 431 650 q 429 647 431 648 l 428 647 l 424 643 q 399 612 410 629 l 397 610 q 382 585 389 599 q 376 574 379 581 q 370 559 372 567 l 368 559 q 355 529 361 546 q 340 497 349 513 q 333 472 336 485 q 323 447 329 458 q 335 461 330 454 q 345 472 340 468 q 347 475 345 475 q 369 503 358 488 q 393 534 380 518 q 415 565 403 550 q 439 597 427 581 q 451 614 446 607 q 461 629 457 621 q 467 636 464 633 q 472 643 469 639 l 481 660 q 531 709 503 693 q 589 725 558 725 q 694 663 650 725 q 727 588 715 629 q 739 500 739 547 l 739 485 l 739 472 l 739 450 q 741 443 741 448 q 744 445 743 443 q 747 450 745 447 l 751 454 l 760 463 l 761 463 q 777 479 765 468 q 791 494 783 486 q 806 505 799 501 l 865 572 q 935 604 897 604 z "},"O":{"ha":791,"x_min":0,"x_max":1013,"o":"m 943 639 q 995 562 978 612 q 1008 454 1013 511 l 1008 452 l 1008 447 l 1008 441 l 1008 439 q 1005 420 1006 429 q 1002 401 1004 411 q 990 337 998 370 q 972 272 982 304 q 958 225 966 248 q 939 183 950 203 l 939 179 l 935 171 q 933 164 933 171 l 929 158 q 923 145 926 150 q 917 135 920 140 l 914 134 q 910 124 911 128 q 905 117 908 119 l 904 117 l 904 114 q 899 107 901 111 q 893 97 896 103 l 888 92 l 888 90 q 885 89 888 89 q 884 85 884 86 q 882 82 884 83 l 879 79 l 876 77 l 872 72 q 867 64 869 69 l 864 60 l 863 60 l 860 58 q 850 47 859 56 l 847 46 l 839 39 l 838 35 q 834 33 835 33 q 831 29 833 32 l 829 29 l 827 29 l 822 26 l 818 22 q 812 18 815 18 q 806 14 808 17 l 804 14 l 802 9 q 789 4 799 9 l 787 4 q 785 1 787 4 l 775 -3 l 772 -3 q 762 -4 768 -4 l 760 -4 l 760 -8 l 755 -8 l 754 -8 l 750 -8 l 747 -11 l 734 -11 l 733 -11 l 729 -16 l 725 -16 l 717 -16 l 713 -16 l 708 -16 l 700 -16 l 697 -16 l 696 -16 l 693 -16 l 688 -16 l 685 -11 l 684 -11 l 675 -11 q 639 1 658 -7 l 637 1 q 620 11 628 7 q 604 21 611 16 q 567 48 585 32 q 529 85 549 65 q 517 74 522 78 q 504 64 511 69 q 475 42 488 52 q 450 22 463 32 q 432 13 441 18 q 416 4 424 8 l 412 1 l 410 1 l 408 1 q 404 -3 406 -3 l 397 -4 l 396 -4 l 393 -7 q 389 -8 392 -8 l 383 -11 q 374 -15 378 -14 q 367 -16 370 -16 l 367 -17 q 358 -19 361 -17 q 351 -21 354 -21 l 350 -21 l 346 -21 q 330 -26 338 -24 q 313 -28 322 -28 l 310 -28 q 295 -29 303 -29 q 279 -29 286 -29 q 256 -29 269 -29 q 233 -28 244 -29 q 225 -24 231 -25 q 212 -21 220 -24 q 204 -17 205 -21 l 200 -17 l 193 -16 q 184 -12 189 -13 q 176 -8 179 -11 l 175 -8 q 166 -3 170 -5 q 160 1 163 -1 l 158 1 q 152 6 155 4 q 143 9 149 8 l 142 9 q 134 17 139 12 q 122 26 129 22 l 121 26 q 115 31 118 29 q 110 35 113 33 q 109 37 110 35 l 109 39 l 102 46 q 94 54 98 50 q 87 60 90 58 l 87 64 l 85 64 q 81 71 83 66 q 72 83 78 75 q 63 95 68 87 q 52 114 58 102 q 41 135 45 125 q 35 151 37 144 l 33 151 q 28 166 31 161 q 25 176 26 172 l 25 179 q 20 191 22 183 q 17 208 18 199 q 14 215 14 212 q 12 222 14 218 q 8 248 8 241 q 5 274 5 263 q 1 292 4 285 q 1 308 1 301 q 0 321 0 315 l 0 322 l 0 335 l 0 346 q 0 361 0 353 q 1 376 0 370 l 1 385 l 1 392 q 4 414 4 397 q 5 422 5 416 l 9 446 l 9 454 q 14 472 14 463 l 14 476 q 17 486 16 481 q 21 496 18 490 l 22 504 l 25 510 q 26 517 25 515 q 26 521 26 518 l 29 529 l 31 539 l 33 542 l 33 546 l 35 551 l 39 567 q 41 568 41 567 l 41 571 q 43 576 43 572 q 46 583 43 581 l 47 585 q 54 608 52 602 l 56 610 q 57 617 56 612 q 60 627 58 623 q 74 659 66 642 q 89 692 82 676 l 89 696 q 104 729 97 715 q 118 758 111 743 q 150 814 134 786 q 180 871 165 843 l 183 871 q 200 896 193 884 q 214 921 207 908 l 216 921 l 222 929 l 224 929 l 224 930 q 225 933 224 930 l 231 942 q 237 949 233 946 q 243 958 241 953 q 244 959 244 958 q 245 960 244 960 l 248 960 q 249 964 248 964 l 250 964 q 285 1007 267 987 q 321 1042 302 1026 l 322 1042 q 339 1059 330 1051 q 359 1076 349 1067 q 369 1081 365 1079 q 375 1084 372 1083 q 379 1089 376 1088 l 380 1089 q 389 1096 387 1096 l 392 1097 q 398 1099 395 1097 q 406 1104 401 1101 l 412 1108 q 415 1109 412 1108 l 416 1109 l 425 1114 l 427 1117 l 431 1117 q 434 1119 433 1117 q 437 1121 435 1121 l 443 1122 l 446 1122 l 452 1122 l 452 1126 l 454 1126 l 463 1126 q 467 1129 464 1129 l 476 1129 l 479 1129 q 488 1133 484 1132 q 496 1133 493 1133 l 497 1133 l 510 1133 q 538 1128 526 1131 q 567 1121 551 1125 q 592 1106 579 1113 q 616 1089 604 1099 q 632 1070 623 1080 q 652 1051 642 1061 l 652 1047 q 679 1010 665 1036 q 695 978 688 994 q 710 946 703 961 q 718 922 713 934 q 725 897 722 909 q 726 890 725 893 q 726 885 726 888 l 726 884 l 729 884 q 734 811 736 848 q 722 742 732 774 q 720 737 721 739 q 718 733 718 734 q 733 723 725 728 q 750 708 741 718 q 763 691 757 700 q 777 672 770 682 q 792 645 786 661 q 806 614 799 629 l 806 610 q 889 659 842 659 q 943 639 917 659 m 397 439 q 397 488 396 464 q 404 533 399 511 q 412 571 406 551 q 411 568 412 570 l 411 567 l 410 567 q 388 525 399 546 q 371 485 378 504 l 359 464 l 359 461 q 358 460 359 460 q 351 447 358 454 l 350 441 q 345 428 347 435 q 339 416 342 421 l 343 416 l 346 416 q 350 419 347 416 q 355 421 353 421 l 358 421 q 373 429 365 425 q 393 439 382 432 l 397 439 z "},"P":{"ha":957,"x_min":0,"x_max":1099,"o":"m 985 627 q 1030 608 1008 624 q 1068 564 1053 591 q 1091 502 1084 536 q 1097 433 1099 468 q 1081 355 1095 391 q 1044 296 1067 319 q 1039 286 1043 293 q 1031 267 1035 279 q 1023 251 1028 260 q 1015 233 1018 243 q 1001 204 1008 218 q 986 171 994 191 q 980 159 983 165 q 974 147 977 153 l 970 142 q 963 125 967 132 q 953 109 958 118 q 944 90 949 99 q 935 71 939 81 q 909 29 924 54 q 900 17 904 22 q 893 4 896 11 l 890 4 q 881 -9 886 -1 q 865 -24 875 -17 l 865 -28 q 856 -35 861 -29 q 843 -46 850 -41 q 836 -53 840 -46 l 832 -53 l 831 -54 q 815 -61 820 -61 l 814 -65 l 811 -65 q 808 -66 810 -65 q 803 -66 806 -66 l 802 -66 l 799 -66 q 790 -71 798 -71 l 789 -71 q 785 -74 786 -71 l 782 -74 l 772 -74 l 765 -74 l 757 -74 l 755 -74 l 745 -74 q 738 -70 742 -71 q 728 -66 733 -69 q 722 -64 725 -65 q 714 -61 718 -64 q 700 -52 707 -56 q 685 -40 692 -47 q 670 -25 677 -32 q 660 -11 664 -18 l 659 -11 q 657 -8 657 -11 q 640 21 646 1 l 639 22 q 628 47 633 36 q 627 54 627 50 q 624 60 627 58 q 623 71 623 64 q 619 82 620 77 q 615 89 618 86 l 615 92 q 614 105 614 98 q 611 117 614 111 l 611 122 l 610 129 l 610 142 q 607 165 607 155 q 607 184 607 175 q 610 200 610 193 q 610 214 610 207 q 611 234 611 224 q 614 252 611 244 q 623 309 615 278 q 629 359 625 334 q 639 408 633 385 q 642 425 640 418 q 644 441 643 432 q 650 471 647 455 q 656 501 653 488 q 662 543 659 521 q 668 589 665 566 q 669 602 669 591 l 668 602 l 665 599 q 661 597 664 597 q 660 596 661 596 q 638 578 649 588 q 615 558 627 568 q 595 533 606 546 q 574 504 585 521 q 550 471 562 488 q 528 439 539 454 q 504 402 515 419 q 481 371 493 386 q 455 335 469 351 q 432 304 441 318 l 390 252 l 390 248 l 351 197 l 349 197 l 347 196 q 340 183 345 188 q 330 172 335 178 q 327 169 328 171 q 323 164 326 167 q 319 158 321 161 q 314 151 317 154 q 282 112 298 132 q 252 72 267 92 q 226 45 236 56 q 210 26 216 33 q 203 17 207 22 q 197 9 200 12 l 193 8 q 122 -28 161 -28 q 68 -8 94 -28 q 24 47 41 12 q 2 142 4 90 q 18 241 0 195 l 20 248 q 24 260 22 256 q 28 271 26 265 q 42 302 33 281 q 61 346 50 322 q 86 397 73 371 q 114 446 98 422 q 120 457 117 452 q 126 467 123 461 q 127 471 127 469 q 131 476 127 473 l 139 489 l 139 492 l 140 492 l 149 504 l 149 509 q 169 538 158 524 q 189 571 179 553 q 211 603 200 587 q 235 635 222 619 q 261 674 248 657 q 289 708 273 690 q 318 740 302 724 q 351 772 334 757 q 383 803 367 788 q 415 833 399 818 q 447 859 431 847 q 481 885 463 871 l 485 889 q 516 913 500 900 q 547 939 532 926 q 590 968 571 954 q 631 991 610 982 q 640 996 635 996 l 640 997 q 650 1001 646 1000 q 657 1004 654 1002 q 661 1005 659 1004 q 671 1008 664 1006 q 692 1013 677 1010 q 732 1022 707 1017 l 734 1022 q 744 1022 739 1022 q 753 1021 749 1022 q 844 985 800 1021 q 868 965 857 975 q 889 939 879 954 q 924 879 909 912 q 935 850 930 863 q 945 822 940 838 l 945 821 q 957 766 954 795 q 970 672 968 718 l 970 627 l 985 627 l 985 627 z "},"Q":{"ha":928,"x_min":-5,"x_max":1117,"o":"m 994 585 q 1057 559 1027 585 q 1101 492 1086 533 q 1114 435 1111 465 q 1114 376 1117 406 q 1103 320 1111 347 q 1080 272 1095 293 q 1072 263 1075 268 q 1065 254 1068 258 l 1061 248 q 1057 242 1060 246 q 1051 233 1054 237 l 1039 216 l 1023 197 q 1010 178 1017 186 q 997 160 1004 170 q 987 148 991 153 q 978 135 983 143 q 975 131 977 134 q 970 126 972 129 l 970 122 l 943 89 l 916 54 l 889 21 q 878 6 884 13 q 868 -8 872 -1 l 861 -16 q 768 -66 821 -67 q 707 -46 736 -66 q 657 9 677 -25 q 635 72 640 41 q 619 52 625 60 l 603 26 l 586 1 q 539 -48 566 -31 q 485 -65 513 -65 q 430 -48 457 -65 q 382 -3 403 -32 q 352 61 362 25 q 340 136 342 97 q 347 213 339 175 q 372 285 355 252 q 380 302 376 294 q 389 317 383 310 l 390 321 l 395 329 q 406 350 400 338 q 415 372 411 361 q 427 395 422 385 q 436 416 432 406 q 448 437 443 426 q 457 460 453 449 q 476 503 468 482 q 493 546 485 524 l 494 547 q 482 531 488 538 q 472 517 476 524 q 460 499 465 507 q 449 484 454 490 q 436 462 442 471 q 427 446 431 453 q 424 441 424 446 q 414 424 420 435 q 401 404 408 414 l 399 401 q 389 383 395 392 q 378 364 383 374 q 368 343 374 355 q 355 321 363 332 l 353 317 q 344 297 349 307 q 332 277 339 288 l 326 264 q 319 250 323 257 q 311 233 314 243 q 307 226 309 231 q 302 216 306 221 q 295 203 298 210 q 289 189 292 196 l 289 184 q 280 172 283 178 q 273 158 277 165 q 270 151 272 155 q 265 142 268 146 l 220 47 l 220 46 q 176 -9 203 10 q 122 -28 150 -28 q 52 8 82 -28 q 7 96 20 40 q 7 210 -5 153 q 15 241 9 225 q 24 277 20 257 q 33 307 29 292 q 40 335 37 321 q 50 367 45 353 q 60 396 54 380 l 61 397 l 61 401 q 71 428 66 417 q 81 454 75 439 q 90 481 85 467 q 102 510 96 496 q 114 542 109 528 q 123 567 119 555 q 149 622 136 595 q 174 676 161 650 q 203 733 189 707 q 232 783 216 760 l 239 796 l 240 796 l 248 808 q 255 822 252 815 q 264 833 258 828 q 281 859 273 847 q 298 884 289 871 l 298 885 q 339 933 319 907 q 360 955 350 944 q 382 977 371 966 l 385 977 q 439 1019 412 1002 q 494 1046 467 1036 q 535 1056 515 1053 q 574 1060 554 1060 q 602 1059 589 1060 q 628 1051 615 1057 q 637 1049 633 1051 q 643 1047 640 1047 l 647 1046 q 656 1042 651 1043 q 664 1039 661 1042 l 665 1039 l 669 1035 q 675 1033 672 1034 q 681 1029 677 1032 l 685 1026 q 692 1021 688 1023 q 703 1010 696 1018 l 707 1008 l 710 1004 q 717 998 714 1002 q 722 991 720 994 l 724 991 l 726 989 q 736 972 733 979 q 739 971 739 972 l 743 964 q 748 957 746 961 q 753 947 750 953 q 760 935 755 943 q 768 917 765 926 l 770 914 q 778 892 775 903 l 781 885 q 783 872 782 878 q 786 860 785 865 l 786 859 q 789 849 789 856 q 793 833 790 843 l 793 827 q 793 824 793 824 q 794 822 794 823 l 794 821 q 796 811 794 815 q 798 804 798 807 q 798 792 798 798 q 799 783 799 787 l 810 783 l 811 783 l 814 783 l 822 783 l 823 779 l 832 779 q 841 778 838 779 q 847 777 844 777 l 851 777 q 857 773 852 774 q 865 771 861 772 q 870 767 868 768 q 873 764 872 766 q 883 759 879 761 q 893 754 888 757 q 898 749 896 751 q 903 746 900 747 q 906 744 905 746 q 909 742 907 742 q 918 733 912 736 q 931 718 925 725 q 940 708 937 710 l 940 704 l 943 704 l 943 701 q 945 699 945 701 q 947 697 945 697 q 953 689 950 694 l 953 685 q 957 679 956 684 q 961 671 961 675 q 964 667 964 671 l 965 664 q 966 661 965 663 q 968 659 966 660 l 970 654 l 974 647 q 977 642 974 646 q 981 633 977 635 q 988 609 985 621 q 994 585 991 597 z "},"R":{"ha":1090,"x_min":-7,"x_max":1043,"o":"m 979 675 q 1010 639 998 661 q 1031 590 1023 616 q 1041 533 1039 564 q 1038 472 1043 503 q 1013 359 1027 415 q 995 305 1004 332 q 975 254 986 278 q 921 147 950 193 q 902 122 911 135 q 884 97 893 109 q 861 74 873 85 q 838 54 848 64 q 718 9 781 9 l 717 9 l 704 9 l 700 9 l 697 9 l 688 9 l 685 9 l 681 12 l 676 12 l 675 12 l 672 12 l 668 12 q 661 16 665 15 q 654 18 657 17 l 652 18 l 646 18 l 646 20 q 643 22 646 22 l 640 22 q 637 25 637 22 l 631 25 l 629 29 l 627 29 q 617 35 624 31 q 604 43 611 39 l 600 47 q 591 55 595 53 q 585 60 587 57 l 583 62 l 579 66 l 578 66 q 576 68 576 66 q 571 75 574 71 q 567 79 568 79 l 567 81 q 539 118 551 99 q 518 163 528 138 q 514 153 515 157 q 510 143 513 149 q 493 108 500 123 q 475 79 485 93 q 447 37 463 56 q 425 17 436 26 q 401 -3 414 7 q 389 -8 395 -8 l 387 -8 q 380 -12 385 -12 q 374 -17 378 -15 q 367 -20 371 -20 q 355 -21 360 -21 q 347 -21 350 -21 q 345 -23 346 -21 q 342 -25 343 -25 l 334 -25 l 330 -25 l 329 -25 l 326 -25 l 325 -25 q 319 -23 322 -25 q 314 -21 317 -21 l 313 -21 l 310 -21 l 309 -21 l 306 -21 l 304 -20 l 300 -20 q 295 -18 297 -20 q 292 -16 293 -16 l 289 -16 q 272 -8 283 -16 q 269 -6 271 -7 q 264 -3 267 -5 l 260 -3 q 175 104 207 31 q 170 115 172 111 q 164 125 167 119 q 163 130 163 127 q 160 135 163 132 q 141 128 151 131 q 121 125 132 125 q 80 135 100 125 q 46 167 61 144 q 4 261 14 204 q 8 375 -7 318 q 17 406 12 389 q 26 437 22 422 q 30 450 29 444 q 33 460 31 456 l 37 468 q 40 480 39 473 q 43 492 41 486 l 46 500 q 51 514 49 507 q 56 530 53 521 l 64 559 l 75 587 q 79 601 77 594 q 83 616 81 608 l 93 647 l 114 705 l 134 762 q 135 764 134 762 l 135 766 l 154 822 q 158 832 155 827 q 163 842 160 836 q 163 845 163 843 q 164 850 164 847 q 219 932 185 901 q 293 962 253 962 q 363 937 330 962 q 431 817 412 897 q 437 850 433 832 q 443 888 440 868 q 453 938 448 914 q 463 987 457 962 l 500 1192 q 553 1309 513 1263 q 643 1354 593 1354 q 663 1352 652 1354 q 684 1348 673 1350 q 732 1311 710 1337 q 769 1253 754 1286 q 790 1179 783 1219 q 791 1097 796 1139 l 787 1075 l 785 1054 q 784 1033 785 1044 q 783 1013 783 1022 q 779 970 781 991 q 775 929 777 949 l 775 925 q 774 885 775 905 q 771 842 772 865 q 766 755 767 793 q 764 714 764 736 q 762 672 764 693 l 762 631 q 760 611 760 620 q 760 591 760 602 l 760 550 l 760 534 l 760 530 l 760 513 q 761 500 760 506 q 762 488 762 494 l 762 489 q 764 492 762 492 q 777 515 770 503 q 791 543 783 528 q 798 558 794 551 q 804 572 802 566 q 814 604 812 588 l 817 604 q 860 673 832 649 q 921 697 888 697 q 979 675 953 697 z "},"S":{"ha":703,"x_min":1,"x_max":785,"o":"m 785 921 l 785 893 q 784 877 785 884 q 783 864 783 869 l 783 859 q 776 824 781 839 q 768 800 771 810 l 768 796 q 755 767 762 781 q 743 743 749 753 q 734 725 739 734 q 726 708 729 715 q 719 699 722 703 q 710 688 715 694 q 703 674 707 680 q 696 664 699 669 q 690 655 693 660 q 684 646 686 650 q 674 632 678 639 q 664 621 669 625 q 660 614 664 614 q 659 595 659 604 q 656 576 659 586 q 647 497 652 538 q 642 414 643 457 q 637 339 637 376 l 637 330 q 729 245 697 322 q 748 144 749 198 q 726 46 747 90 l 722 39 q 710 14 720 31 q 700 -5 706 4 q 688 -24 694 -14 q 679 -36 681 -33 q 676 -37 677 -36 q 671 -44 673 -40 q 667 -50 668 -49 l 664 -50 q 650 -67 657 -60 q 633 -82 643 -75 q 609 -97 621 -92 q 583 -107 597 -102 q 566 -111 575 -110 q 550 -111 557 -111 q 531 -111 541 -111 q 513 -104 522 -110 q 443 -57 475 -96 l 441 -57 q 400 5 418 -28 q 375 68 388 35 q 368 97 372 83 q 359 125 363 110 q 354 151 357 138 q 350 176 351 163 q 342 171 347 175 q 335 164 338 167 l 335 163 q 326 153 331 157 q 314 143 321 149 q 311 138 313 140 q 310 134 310 136 q 297 121 303 130 q 252 75 271 97 q 244 66 248 70 q 237 58 240 62 q 233 55 235 58 q 229 50 231 52 q 147 -29 200 -14 q 136 -31 140 -29 q 126 -32 132 -32 l 122 -32 q 119 -31 121 -32 q 114 -29 117 -29 q 83 -20 100 -29 q 68 -9 75 -14 q 54 5 61 -4 q 20 58 33 26 q 1 126 7 89 l 1 163 l 1 176 q 3 186 1 182 q 4 196 4 191 l 4 200 q 17 250 9 231 q 33 294 24 270 q 58 346 43 318 q 84 392 71 370 q 114 439 98 415 q 121 451 117 447 q 126 458 125 456 q 131 468 130 464 q 140 480 136 473 q 150 493 144 486 q 169 522 159 509 q 189 550 179 534 q 210 575 199 561 q 233 606 221 589 q 258 638 245 621 q 283 668 271 654 q 309 697 296 684 q 339 726 322 711 l 372 758 q 376 775 375 768 q 379 793 376 783 q 416 918 397 861 q 423 933 419 925 q 431 951 427 942 q 439 971 436 964 q 447 989 443 979 q 457 1007 452 998 q 468 1025 461 1017 q 482 1045 475 1036 q 496 1064 489 1054 l 497 1064 q 516 1083 507 1074 q 538 1101 526 1092 q 563 1118 550 1111 q 591 1126 576 1125 q 598 1128 595 1126 q 604 1131 602 1131 l 612 1131 l 614 1131 l 616 1131 l 623 1131 l 633 1131 l 639 1131 l 642 1131 l 643 1131 l 646 1131 q 652 1126 647 1126 l 654 1126 l 659 1126 q 700 1105 675 1124 q 704 1101 701 1105 q 710 1098 707 1100 q 717 1093 714 1096 q 718 1090 717 1092 q 721 1089 718 1089 q 728 1080 724 1085 q 734 1071 732 1075 q 738 1066 737 1068 q 742 1064 739 1064 q 747 1053 743 1060 q 758 1034 751 1046 q 765 1018 761 1027 q 772 996 770 1008 q 775 988 775 990 q 777 981 775 986 l 777 975 q 781 958 781 964 l 781 956 q 783 944 783 951 q 785 930 783 937 l 785 921 z "},"T":{"ha":983,"x_min":1,"x_max":1104,"o":"m 990 696 q 1037 676 1015 693 q 1074 633 1059 660 q 1097 573 1089 607 q 1103 501 1104 539 q 1085 424 1100 460 q 1048 364 1071 387 q 1045 354 1047 360 q 1040 342 1043 349 q 1028 305 1034 326 q 1015 260 1022 283 q 1009 241 1013 250 q 1003 221 1006 232 l 990 183 l 989 179 q 981 156 986 168 q 974 134 977 144 q 964 105 970 118 q 951 77 958 92 q 942 58 946 67 q 935 41 939 49 q 931 34 932 36 q 928 29 930 32 q 925 23 926 26 q 922 17 924 20 q 918 11 920 14 q 914 8 916 8 l 914 4 q 907 -4 907 0 l 905 -4 q 901 -9 903 -7 q 897 -17 900 -12 l 895 -21 l 893 -21 q 888 -26 890 -24 q 885 -29 886 -28 l 884 -29 q 882 -33 882 -29 l 880 -33 q 877 -37 878 -36 q 873 -40 876 -37 l 872 -40 q 871 -41 872 -41 l 869 -41 l 868 -46 l 865 -46 q 863 -50 864 -49 q 860 -53 861 -50 l 857 -53 l 856 -53 l 852 -54 l 848 -54 q 836 -61 842 -61 q 830 -64 833 -64 q 823 -66 827 -65 l 822 -66 l 819 -66 l 818 -66 l 815 -66 l 814 -71 l 811 -71 l 802 -71 l 798 -71 l 793 -71 l 790 -71 q 781 -70 787 -71 q 768 -66 775 -69 l 764 -66 q 751 -61 757 -66 q 730 -53 743 -61 q 714 -41 722 -47 q 699 -28 707 -35 q 692 -19 696 -22 q 686 -11 689 -16 l 686 -9 l 685 -8 q 680 -2 682 -5 q 676 4 677 1 q 665 25 669 16 q 660 39 661 35 l 659 39 q 657 41 657 39 q 656 45 656 43 q 654 47 654 46 q 653 52 654 49 l 653 54 l 652 58 q 650 62 652 60 q 647 71 648 65 q 644 78 644 75 q 643 85 644 81 l 643 89 l 640 92 l 640 96 l 640 97 q 640 101 640 100 q 639 104 639 102 l 639 109 l 639 110 l 636 114 l 636 121 q 627 111 632 115 q 618 102 623 107 q 608 95 612 99 q 599 89 604 92 q 572 71 585 73 l 570 71 q 567 67 568 68 q 564 64 566 66 l 557 64 q 547 58 555 61 l 545 58 l 543 58 l 541 58 l 539 58 q 534 54 539 58 l 532 54 l 528 54 l 526 54 l 524 54 l 511 54 l 497 54 q 490 56 494 54 q 478 58 485 58 q 457 71 470 60 l 456 71 q 445 76 450 72 q 435 85 439 81 l 432 85 q 423 97 428 90 q 414 109 418 103 l 411 109 l 411 110 q 404 121 407 115 q 395 135 400 127 q 385 160 385 157 q 382 161 382 160 l 382 164 q 378 178 379 171 q 374 189 376 184 q 370 210 371 200 q 366 227 368 220 l 366 229 q 365 236 366 233 q 364 241 364 239 l 364 245 l 364 260 q 361 279 361 267 q 361 288 361 283 q 364 296 361 293 q 365 317 364 307 q 366 334 366 328 l 366 335 q 370 358 370 352 q 373 369 372 365 q 376 379 374 374 q 344 317 358 346 q 319 267 330 289 q 291 204 304 232 q 268 154 278 176 l 222 52 l 222 47 q 178 -9 204 10 q 122 -29 151 -29 q 56 1 85 -29 q 28 38 40 17 q 11 85 17 60 q 3 138 4 110 q 5 192 1 165 l 5 196 l 7 201 l 7 204 q 9 218 9 211 q 11 233 9 225 q 22 283 16 258 q 35 335 28 307 q 57 410 45 372 q 81 484 68 447 q 114 577 96 532 q 151 664 132 623 q 177 715 163 689 q 203 764 191 741 q 238 820 221 794 q 273 867 254 846 q 318 917 292 892 q 343 940 330 930 q 368 960 355 950 q 396 978 382 969 q 427 996 411 987 q 459 1007 444 1002 q 490 1017 475 1011 l 510 1017 l 511 1017 q 517 1019 514 1017 q 522 1021 519 1021 l 526 1021 l 528 1021 l 539 1021 l 551 1017 l 557 1017 l 559 1017 l 561 1017 l 566 1017 l 568 1017 q 602 1004 585 1011 q 632 983 618 997 l 635 983 q 653 965 644 975 q 669 942 663 954 q 685 919 677 932 q 699 892 692 905 q 713 844 707 868 q 722 791 720 819 q 725 759 724 776 q 726 722 726 742 l 726 721 q 725 715 726 718 q 724 710 724 713 q 732 714 728 714 l 743 714 l 745 714 q 749 717 745 717 l 753 717 l 755 717 l 760 717 l 764 717 l 768 717 l 774 717 q 777 715 775 717 l 777 714 l 781 714 l 782 714 l 785 714 l 786 714 q 798 710 793 714 q 806 708 803 710 l 807 708 q 836 694 823 703 q 861 672 848 685 q 885 647 875 663 q 901 664 892 656 q 930 684 915 675 q 961 696 946 693 l 965 696 l 981 696 l 990 696 m 724 708 q 739 713 732 712 q 753 717 746 714 q 739 713 746 714 q 724 708 732 712 z "},"U":{"ha":798,"x_min":1,"x_max":1055,"o":"m 669 -78 l 668 -78 l 669 -78 m 935 604 q 990 584 964 604 q 1035 529 1017 564 q 1054 424 1055 481 q 1035 322 1054 367 q 1022 295 1028 309 q 1007 267 1015 281 q 1001 255 1004 261 q 993 241 997 249 q 987 229 990 233 q 978 216 983 224 l 972 204 l 965 192 l 964 192 q 958 180 961 186 q 949 168 954 174 q 935 145 942 157 q 920 122 928 134 l 918 122 l 916 118 q 909 109 913 114 q 901 97 905 104 l 895 87 l 893 87 l 886 79 q 880 70 884 74 q 873 60 876 65 q 871 57 873 60 l 869 56 q 865 54 868 54 q 861 47 865 52 q 855 40 859 45 q 847 31 851 36 q 827 8 838 20 q 806 -12 817 -3 l 803 -12 l 802 -16 q 793 -21 799 -20 l 790 -25 l 782 -32 q 770 -40 777 -33 l 768 -40 q 756 -47 762 -44 q 749 -53 751 -50 l 743 -57 q 741 -58 742 -57 l 739 -58 q 732 -62 735 -58 l 730 -62 l 724 -65 q 711 -69 718 -69 l 710 -69 l 707 -71 l 705 -71 q 694 -75 699 -71 l 686 -75 l 681 -78 l 677 -78 l 664 -78 l 661 -78 l 660 -78 l 652 -78 q 574 -46 610 -74 q 518 17 542 -25 q 500 45 509 31 q 485 79 492 60 q 479 92 482 86 q 473 106 476 98 q 469 104 472 106 l 456 92 l 453 92 l 436 79 q 400 54 416 64 q 368 35 383 45 q 333 14 353 25 q 289 -7 313 3 l 281 -8 l 279 -8 q 278 -12 278 -8 l 269 -12 q 268 -14 268 -12 l 268 -16 l 265 -16 l 257 -20 l 252 -20 l 243 -21 l 240 -21 l 239 -21 q 227 -25 232 -21 l 214 -25 q 205 -28 207 -25 l 203 -28 l 201 -28 l 195 -28 q 190 -26 192 -28 q 184 -25 187 -25 l 178 -25 q 165 -23 171 -25 q 157 -21 160 -21 l 157 -20 l 155 -20 q 146 -18 150 -20 q 139 -12 142 -16 q 119 -3 134 -12 l 115 0 q 112 3 114 3 q 107 5 110 4 q 104 9 106 8 q 102 12 103 9 q 98 17 99 12 q 90 22 96 17 q 86 25 89 25 l 85 29 q 82 31 85 29 q 78 37 81 33 q 69 47 75 40 l 65 54 q 56 72 57 64 q 46 86 50 79 q 40 97 43 93 l 40 100 q 39 103 39 101 l 39 106 q 27 134 32 121 q 20 163 22 147 q 9 210 13 186 q 3 260 5 233 l 3 262 q 1 301 1 282 q 1 342 1 319 l 1 343 q 5 416 3 379 q 16 488 8 453 q 30 552 22 519 q 49 616 37 585 q 70 674 58 646 q 93 730 81 703 q 118 785 105 760 q 133 811 125 800 q 149 835 142 822 q 182 883 164 860 q 220 929 200 907 q 267 971 243 953 q 315 1000 290 989 q 346 1012 331 1007 q 376 1017 361 1017 l 382 1017 l 382 1018 l 393 1018 l 395 1018 q 411 1017 407 1018 l 414 1017 l 431 1017 q 439 1013 432 1013 l 440 1013 q 518 937 489 1000 q 537 874 532 909 q 539 804 543 839 q 508 710 532 749 q 447 656 484 671 l 440 656 l 439 654 l 436 654 l 435 654 l 435 650 l 432 650 l 431 650 q 429 647 431 648 l 428 647 l 424 643 q 399 612 410 629 l 397 610 q 382 585 389 599 q 376 574 379 581 q 370 559 372 567 l 368 559 q 355 529 361 546 q 340 497 349 513 q 333 472 336 485 q 323 447 329 458 q 335 461 330 454 q 345 472 340 468 q 347 475 345 475 q 369 503 358 488 q 393 534 380 518 q 415 565 403 550 q 439 597 427 581 q 451 614 446 607 q 461 629 457 621 q 467 636 464 633 q 472 643 469 639 l 481 660 q 531 709 503 693 q 589 725 558 725 q 694 663 650 725 q 727 588 715 629 q 739 500 739 547 l 739 485 l 739 472 l 739 450 q 741 443 741 448 q 744 445 743 443 q 747 450 745 447 l 751 454 l 760 463 l 761 463 q 777 479 765 468 q 791 494 783 486 q 806 505 799 501 l 865 572 q 935 604 897 604 z "},"V":{"ha":957,"x_min":0,"x_max":1099,"o":"m 985 627 q 1030 608 1008 624 q 1068 564 1053 591 q 1091 502 1084 536 q 1097 433 1099 468 q 1081 355 1095 391 q 1044 296 1067 319 q 1039 286 1043 293 q 1031 267 1035 279 q 1023 251 1028 260 q 1015 233 1018 243 q 1001 204 1008 218 q 986 171 994 191 q 980 159 983 165 q 974 147 977 153 l 970 142 q 963 125 967 132 q 953 109 958 118 q 944 90 949 99 q 935 71 939 81 q 909 29 924 54 q 900 17 904 22 q 893 4 896 11 l 890 4 q 881 -9 886 -1 q 865 -24 875 -17 l 865 -28 q 856 -35 861 -29 q 843 -46 850 -41 q 836 -53 840 -46 l 832 -53 l 831 -54 q 815 -61 820 -61 l 814 -65 l 811 -65 q 808 -66 810 -65 q 803 -66 806 -66 l 802 -66 l 799 -66 q 790 -71 798 -71 l 789 -71 q 785 -74 786 -71 l 782 -74 l 772 -74 l 765 -74 l 757 -74 l 755 -74 l 745 -74 q 738 -70 742 -71 q 728 -66 733 -69 q 722 -64 725 -65 q 714 -61 718 -64 q 700 -52 707 -56 q 685 -40 692 -47 q 670 -25 677 -32 q 660 -11 664 -18 l 659 -11 q 657 -8 657 -11 q 640 21 646 1 l 639 22 q 628 47 633 36 q 627 54 627 50 q 624 60 627 58 q 623 71 623 64 q 619 82 620 77 q 615 89 618 86 l 615 92 q 614 105 614 98 q 611 117 614 111 l 611 122 l 610 129 l 610 142 q 607 165 607 155 q 607 184 607 175 q 610 200 610 193 q 610 214 610 207 q 611 234 611 224 q 614 252 611 244 q 623 309 615 278 q 629 359 625 334 q 639 408 633 385 q 642 425 640 418 q 644 441 643 432 q 650 471 647 455 q 656 501 653 488 q 662 543 659 521 q 668 589 665 566 q 669 602 669 591 l 668 602 l 665 599 q 661 597 664 597 q 660 596 661 596 q 638 578 649 588 q 615 558 627 568 q 595 533 606 546 q 574 504 585 521 q 550 471 562 488 q 528 439 539 454 q 504 402 515 419 q 481 371 493 386 q 455 335 469 351 q 432 304 441 318 l 390 252 l 390 248 l 351 197 l 349 197 l 347 196 q 340 183 345 188 q 330 172 335 178 q 327 169 328 171 q 323 164 326 167 q 319 158 321 161 q 314 151 317 154 q 282 112 298 132 q 252 72 267 92 q 226 45 236 56 q 210 26 216 33 q 203 17 207 22 q 197 9 200 12 l 193 8 q 122 -28 161 -28 q 68 -8 94 -28 q 24 47 41 12 q 2 142 4 90 q 18 241 0 195 l 20 248 q 24 260 22 256 q 28 271 26 265 q 42 302 33 281 q 61 346 50 322 q 86 397 73 371 q 114 446 98 422 q 120 457 117 452 q 126 467 123 461 q 127 471 127 469 q 131 476 127 473 l 139 489 l 139 492 l 140 492 l 149 504 l 149 509 q 169 538 158 524 q 189 571 179 553 q 211 603 200 587 q 235 635 222 619 q 261 674 248 657 q 289 708 273 690 q 318 740 302 724 q 351 772 334 757 q 383 803 367 788 q 415 833 399 818 q 447 859 431 847 q 481 885 463 871 l 485 889 q 516 913 500 900 q 547 939 532 926 q 590 968 571 954 q 631 991 610 982 q 640 996 635 996 l 640 997 q 650 1001 646 1000 q 657 1004 654 1002 q 661 1005 659 1004 q 671 1008 664 1006 q 692 1013 677 1010 q 732 1022 707 1017 l 734 1022 q 744 1022 739 1022 q 753 1021 749 1022 q 844 985 800 1021 q 868 965 857 975 q 889 939 879 954 q 924 879 909 912 q 935 850 930 863 q 945 822 940 838 l 945 821 q 957 766 954 795 q 970 672 968 718 l 970 627 l 985 627 l 985 627 z "},"W":{"ha":928,"x_min":-5,"x_max":1117,"o":"m 994 585 q 1057 559 1027 585 q 1101 492 1086 533 q 1114 435 1111 465 q 1114 376 1117 406 q 1103 320 1111 347 q 1080 272 1095 293 q 1072 263 1075 268 q 1065 254 1068 258 l 1061 248 q 1057 242 1060 246 q 1051 233 1054 237 l 1039 216 l 1023 197 q 1010 178 1017 186 q 997 160 1004 170 q 987 148 991 153 q 978 135 983 143 q 975 131 977 134 q 970 126 972 129 l 970 122 l 943 89 l 916 54 l 889 21 q 878 6 884 13 q 868 -8 872 -1 l 861 -16 q 768 -66 821 -67 q 707 -46 736 -66 q 657 9 677 -25 q 635 72 640 41 q 619 52 625 60 l 603 26 l 586 1 q 539 -48 566 -31 q 485 -65 513 -65 q 430 -48 457 -65 q 382 -3 403 -32 q 352 61 362 25 q 340 136 342 97 q 347 213 339 175 q 372 285 355 252 q 380 302 376 294 q 389 317 383 310 l 390 321 l 395 329 q 406 350 400 338 q 415 372 411 361 q 427 395 422 385 q 436 416 432 406 q 448 437 443 426 q 457 460 453 449 q 476 503 468 482 q 493 546 485 524 l 494 547 q 482 531 488 538 q 472 517 476 524 q 460 499 465 507 q 449 484 454 490 q 436 462 442 471 q 427 446 431 453 q 424 441 424 446 q 414 424 420 435 q 401 404 408 414 l 399 401 q 389 383 395 392 q 378 364 383 374 q 368 343 374 355 q 355 321 363 332 l 353 317 q 344 297 349 307 q 332 277 339 288 l 326 264 q 319 250 323 257 q 311 233 314 243 q 307 226 309 231 q 302 216 306 221 q 295 203 298 210 q 289 189 292 196 l 289 184 q 280 172 283 178 q 273 158 277 165 q 270 151 272 155 q 265 142 268 146 l 220 47 l 220 46 q 176 -9 203 10 q 122 -28 150 -28 q 52 8 82 -28 q 7 96 20 40 q 7 210 -5 153 q 15 241 9 225 q 24 277 20 257 q 33 307 29 292 q 40 335 37 321 q 50 367 45 353 q 60 396 54 380 l 61 397 l 61 401 q 71 428 66 417 q 81 454 75 439 q 90 481 85 467 q 102 510 96 496 q 114 542 109 528 q 123 567 119 555 q 149 622 136 595 q 174 676 161 650 q 203 733 189 707 q 232 783 216 760 l 239 796 l 240 796 l 248 808 q 255 822 252 815 q 264 833 258 828 q 281 859 273 847 q 298 884 289 871 l 298 885 q 339 933 319 907 q 360 955 350 944 q 382 977 371 966 l 385 977 q 439 1019 412 1002 q 494 1046 467 1036 q 535 1056 515 1053 q 574 1060 554 1060 q 602 1059 589 1060 q 628 1051 615 1057 q 637 1049 633 1051 q 643 1047 640 1047 l 647 1046 q 656 1042 651 1043 q 664 1039 661 1042 l 665 1039 l 669 1035 q 675 1033 672 1034 q 681 1029 677 1032 l 685 1026 q 692 1021 688 1023 q 703 1010 696 1018 l 707 1008 l 710 1004 q 717 998 714 1002 q 722 991 720 994 l 724 991 l 726 989 q 736 972 733 979 q 739 971 739 972 l 743 964 q 748 957 746 961 q 753 947 750 953 q 760 935 755 943 q 768 917 765 926 l 770 914 q 778 892 775 903 l 781 885 q 783 872 782 878 q 786 860 785 865 l 786 859 q 789 849 789 856 q 793 833 790 843 l 793 827 q 793 824 793 824 q 794 822 794 823 l 794 821 q 796 811 794 815 q 798 804 798 807 q 798 792 798 798 q 799 783 799 787 l 810 783 l 811 783 l 814 783 l 822 783 l 823 779 l 832 779 q 841 778 838 779 q 847 777 844 777 l 851 777 q 857 773 852 774 q 865 771 861 772 q 870 767 868 768 q 873 764 872 766 q 883 759 879 761 q 893 754 888 757 q 898 749 896 751 q 903 746 900 747 q 906 744 905 746 q 909 742 907 742 q 918 733 912 736 q 931 718 925 725 q 940 708 937 710 l 940 704 l 943 704 l 943 701 q 945 699 945 701 q 947 697 945 697 q 953 689 950 694 l 953 685 q 957 679 956 684 q 961 671 961 675 q 964 667 964 671 l 965 664 q 966 661 965 663 q 968 659 966 660 l 970 654 l 974 647 q 977 642 974 646 q 981 633 977 635 q 988 609 985 621 q 994 585 991 597 z "},"X":{"ha":1090,"x_min":-7,"x_max":1043,"o":"m 979 675 q 1010 639 998 661 q 1031 590 1023 616 q 1041 533 1039 564 q 1038 472 1043 503 q 1013 359 1027 415 q 995 305 1004 332 q 975 254 986 278 q 921 147 950 193 q 902 122 911 135 q 884 97 893 109 q 861 74 873 85 q 838 54 848 64 q 718 9 781 9 l 717 9 l 704 9 l 700 9 l 697 9 l 688 9 l 685 9 l 681 12 l 676 12 l 675 12 l 672 12 l 668 12 q 661 16 665 15 q 654 18 657 17 l 652 18 l 646 18 l 646 20 q 643 22 646 22 l 640 22 q 637 25 637 22 l 631 25 l 629 29 l 627 29 q 617 35 624 31 q 604 43 611 39 l 600 47 q 591 55 595 53 q 585 60 587 57 l 583 62 l 579 66 l 578 66 q 576 68 576 66 q 571 75 574 71 q 567 79 568 79 l 567 81 q 539 118 551 99 q 518 163 528 138 q 514 153 515 157 q 510 143 513 149 q 493 108 500 123 q 475 79 485 93 q 447 37 463 56 q 425 17 436 26 q 401 -3 414 7 q 389 -8 395 -8 l 387 -8 q 380 -12 385 -12 q 374 -17 378 -15 q 367 -20 371 -20 q 355 -21 360 -21 q 347 -21 350 -21 q 345 -23 346 -21 q 342 -25 343 -25 l 334 -25 l 330 -25 l 329 -25 l 326 -25 l 325 -25 q 319 -23 322 -25 q 314 -21 317 -21 l 313 -21 l 310 -21 l 309 -21 l 306 -21 l 304 -20 l 300 -20 q 295 -18 297 -20 q 292 -16 293 -16 l 289 -16 q 272 -8 283 -16 q 269 -6 271 -7 q 264 -3 267 -5 l 260 -3 q 175 104 207 31 q 170 115 172 111 q 164 125 167 119 q 163 130 163 127 q 160 135 163 132 q 141 128 151 131 q 121 125 132 125 q 80 135 100 125 q 46 167 61 144 q 4 261 14 204 q 8 375 -7 318 q 17 406 12 389 q 26 437 22 422 q 30 450 29 444 q 33 460 31 456 l 37 468 q 40 480 39 473 q 43 492 41 486 l 46 500 q 51 514 49 507 q 56 530 53 521 l 64 559 l 75 587 q 79 601 77 594 q 83 616 81 608 l 93 647 l 114 705 l 134 762 q 135 764 134 762 l 135 766 l 154 822 q 158 832 155 827 q 163 842 160 836 q 163 845 163 843 q 164 850 164 847 q 219 932 185 901 q 293 962 253 962 q 363 937 330 962 q 431 817 412 897 q 437 850 433 832 q 443 888 440 868 q 453 938 448 914 q 463 987 457 962 l 500 1192 q 553 1309 513 1263 q 643 1354 593 1354 q 663 1352 652 1354 q 684 1348 673 1350 q 732 1311 710 1337 q 769 1253 754 1286 q 790 1179 783 1219 q 791 1097 796 1139 l 787 1075 l 785 1054 q 784 1033 785 1044 q 783 1013 783 1022 q 779 970 781 991 q 775 929 777 949 l 775 925 q 774 885 775 905 q 771 842 772 865 q 766 755 767 793 q 764 714 764 736 q 762 672 764 693 l 762 631 q 760 611 760 620 q 760 591 760 602 l 760 550 l 760 534 l 760 530 l 760 513 q 761 500 760 506 q 762 488 762 494 l 762 489 q 764 492 762 492 q 777 515 770 503 q 791 543 783 528 q 798 558 794 551 q 804 572 802 566 q 814 604 812 588 l 817 604 q 860 673 832 649 q 921 697 888 697 q 979 675 953 697 z "},"Y":{"ha":703,"x_min":1,"x_max":785,"o":"m 785 921 l 785 893 q 784 877 785 884 q 783 864 783 869 l 783 859 q 776 824 781 839 q 768 800 771 810 l 768 796 q 755 767 762 781 q 743 743 749 753 q 734 725 739 734 q 726 708 729 715 q 719 699 722 703 q 710 688 715 694 q 703 674 707 680 q 696 664 699 669 q 690 655 693 660 q 684 646 686 650 q 674 632 678 639 q 664 621 669 625 q 660 614 664 614 q 659 595 659 604 q 656 576 659 586 q 647 497 652 538 q 642 414 643 457 q 637 339 637 376 l 637 330 q 729 245 697 322 q 748 144 749 198 q 726 46 747 90 l 722 39 q 710 14 720 31 q 700 -5 706 4 q 688 -24 694 -14 q 679 -36 681 -33 q 676 -37 677 -36 q 671 -44 673 -40 q 667 -50 668 -49 l 664 -50 q 650 -67 657 -60 q 633 -82 643 -75 q 609 -97 621 -92 q 583 -107 597 -102 q 566 -111 575 -110 q 550 -111 557 -111 q 531 -111 541 -111 q 513 -104 522 -110 q 443 -57 475 -96 l 441 -57 q 400 5 418 -28 q 375 68 388 35 q 368 97 372 83 q 359 125 363 110 q 354 151 357 138 q 350 176 351 163 q 342 171 347 175 q 335 164 338 167 l 335 163 q 326 153 331 157 q 314 143 321 149 q 311 138 313 140 q 310 134 310 136 q 297 121 303 130 q 252 75 271 97 q 244 66 248 70 q 237 58 240 62 q 233 55 235 58 q 229 50 231 52 q 147 -29 200 -14 q 136 -31 140 -29 q 126 -32 132 -32 l 122 -32 q 119 -31 121 -32 q 114 -29 117 -29 q 83 -20 100 -29 q 68 -9 75 -14 q 54 5 61 -4 q 20 58 33 26 q 1 126 7 89 l 1 163 l 1 176 q 3 186 1 182 q 4 196 4 191 l 4 200 q 17 250 9 231 q 33 294 24 270 q 58 346 43 318 q 84 392 71 370 q 114 439 98 415 q 121 451 117 447 q 126 458 125 456 q 131 468 130 464 q 140 480 136 473 q 150 493 144 486 q 169 522 159 509 q 189 550 179 534 q 210 575 199 561 q 233 606 221 589 q 258 638 245 621 q 283 668 271 654 q 309 697 296 684 q 339 726 322 711 l 372 758 q 376 775 375 768 q 379 793 376 783 q 416 918 397 861 q 423 933 419 925 q 431 951 427 942 q 439 971 436 964 q 447 989 443 979 q 457 1007 452 998 q 468 1025 461 1017 q 482 1045 475 1036 q 496 1064 489 1054 l 497 1064 q 516 1083 507 1074 q 538 1101 526 1092 q 563 1118 550 1111 q 591 1126 576 1125 q 598 1128 595 1126 q 604 1131 602 1131 l 612 1131 l 614 1131 l 616 1131 l 623 1131 l 633 1131 l 639 1131 l 642 1131 l 643 1131 l 646 1131 q 652 1126 647 1126 l 654 1126 l 659 1126 q 700 1105 675 1124 q 704 1101 701 1105 q 710 1098 707 1100 q 717 1093 714 1096 q 718 1090 717 1092 q 721 1089 718 1089 q 728 1080 724 1085 q 734 1071 732 1075 q 738 1066 737 1068 q 742 1064 739 1064 q 747 1053 743 1060 q 758 1034 751 1046 q 765 1018 761 1027 q 772 996 770 1008 q 775 988 775 990 q 777 981 775 986 l 777 975 q 781 958 781 964 l 781 956 q 783 944 783 951 q 785 930 783 937 l 785 921 z "},"Z":{"ha":798,"x_min":1,"x_max":1055,"o":"m 669 -78 l 668 -78 l 669 -78 m 935 604 q 990 584 964 604 q 1035 529 1017 564 q 1054 424 1055 481 q 1035 322 1054 367 q 1022 295 1028 309 q 1007 267 1015 281 q 1001 255 1004 261 q 993 241 997 249 q 987 229 990 233 q 978 216 983 224 l 972 204 l 965 192 l 964 192 q 958 180 961 186 q 949 168 954 174 q 935 145 942 157 q 920 122 928 134 l 918 122 l 916 118 q 909 109 913 114 q 901 97 905 104 l 895 87 l 893 87 l 886 79 q 880 70 884 74 q 873 60 876 65 q 871 57 873 60 l 869 56 q 865 54 868 54 q 861 47 865 52 q 855 40 859 45 q 847 31 851 36 q 827 8 838 20 q 806 -12 817 -3 l 803 -12 l 802 -16 q 793 -21 799 -20 l 790 -25 l 782 -32 q 770 -40 777 -33 l 768 -40 q 756 -47 762 -44 q 749 -53 751 -50 l 743 -57 q 741 -58 742 -57 l 739 -58 q 732 -62 735 -58 l 730 -62 l 724 -65 q 711 -69 718 -69 l 710 -69 l 707 -71 l 705 -71 q 694 -75 699 -71 l 686 -75 l 681 -78 l 677 -78 l 664 -78 l 661 -78 l 660 -78 l 652 -78 q 574 -46 610 -74 q 518 17 542 -25 q 500 45 509 31 q 485 79 492 60 q 479 92 482 86 q 473 106 476 98 q 469 104 472 106 l 456 92 l 453 92 l 436 79 q 400 54 416 64 q 368 35 383 45 q 333 14 353 25 q 289 -7 313 3 l 281 -8 l 279 -8 q 278 -12 278 -8 l 269 -12 q 268 -14 268 -12 l 268 -16 l 265 -16 l 257 -20 l 252 -20 l 243 -21 l 240 -21 l 239 -21 q 227 -25 232 -21 l 214 -25 q 205 -28 207 -25 l 203 -28 l 201 -28 l 195 -28 q 190 -26 192 -28 q 184 -25 187 -25 l 178 -25 q 165 -23 171 -25 q 157 -21 160 -21 l 157 -20 l 155 -20 q 146 -18 150 -20 q 139 -12 142 -16 q 119 -3 134 -12 l 115 0 q 112 3 114 3 q 107 5 110 4 q 104 9 106 8 q 102 12 103 9 q 98 17 99 12 q 90 22 96 17 q 86 25 89 25 l 85 29 q 82 31 85 29 q 78 37 81 33 q 69 47 75 40 l 65 54 q 56 72 57 64 q 46 86 50 79 q 40 97 43 93 l 40 100 q 39 103 39 101 l 39 106 q 27 134 32 121 q 20 163 22 147 q 9 210 13 186 q 3 260 5 233 l 3 262 q 1 301 1 282 q 1 342 1 319 l 1 343 q 5 416 3 379 q 16 488 8 453 q 30 552 22 519 q 49 616 37 585 q 70 674 58 646 q 93 730 81 703 q 118 785 105 760 q 133 811 125 800 q 149 835 142 822 q 182 883 164 860 q 220 929 200 907 q 267 971 243 953 q 315 1000 290 989 q 346 1012 331 1007 q 376 1017 361 1017 l 382 1017 l 382 1018 l 393 1018 l 395 1018 q 411 1017 407 1018 l 414 1017 l 431 1017 q 439 1013 432 1013 l 440 1013 q 518 937 489 1000 q 537 874 532 909 q 539 804 543 839 q 508 710 532 749 q 447 656 484 671 l 440 656 l 439 654 l 436 654 l 435 654 l 435 650 l 432 650 l 431 650 q 429 647 431 648 l 428 647 l 424 643 q 399 612 410 629 l 397 610 q 382 585 389 599 q 376 574 379 581 q 370 559 372 567 l 368 559 q 355 529 361 546 q 340 497 349 513 q 333 472 336 485 q 323 447 329 458 q 335 461 330 454 q 345 472 340 468 q 347 475 345 475 q 369 503 358 488 q 393 534 380 518 q 415 565 403 550 q 439 597 427 581 q 451 614 446 607 q 461 629 457 621 q 467 636 464 633 q 472 643 469 639 l 481 660 q 531 709 503 693 q 589 725 558 725 q 694 663 650 725 q 727 588 715 629 q 739 500 739 547 l 739 485 l 739 472 l 739 450 q 741 443 741 448 q 744 445 743 443 q 747 450 745 447 l 751 454 l 760 463 l 761 463 q 777 479 765 468 q 791 494 783 486 q 806 505 799 501 l 865 572 q 935 604 897 604 z "},"[":{"ha":928,"x_min":-5,"x_max":1117,"o":"m 994 585 q 1057 559 1027 585 q 1101 492 1086 533 q 1114 435 1111 465 q 1114 376 1117 406 q 1103 320 1111 347 q 1080 272 1095 293 q 1072 263 1075 268 q 1065 254 1068 258 l 1061 248 q 1057 242 1060 246 q 1051 233 1054 237 l 1039 216 l 1023 197 q 1010 178 1017 186 q 997 160 1004 170 q 987 148 991 153 q 978 135 983 143 q 975 131 977 134 q 970 126 972 129 l 970 122 l 943 89 l 916 54 l 889 21 q 878 6 884 13 q 868 -8 872 -1 l 861 -16 q 768 -66 821 -67 q 707 -46 736 -66 q 657 9 677 -25 q 635 72 640 41 q 619 52 625 60 l 603 26 l 586 1 q 539 -48 566 -31 q 485 -65 513 -65 q 430 -48 457 -65 q 382 -3 403 -32 q 352 61 362 25 q 340 136 342 97 q 347 213 339 175 q 372 285 355 252 q 380 302 376 294 q 389 317 383 310 l 390 321 l 395 329 q 406 350 400 338 q 415 372 411 361 q 427 395 422 385 q 436 416 432 406 q 448 437 443 426 q 457 460 453 449 q 476 503 468 482 q 493 546 485 524 l 494 547 q 482 531 488 538 q 472 517 476 524 q 460 499 465 507 q 449 484 454 490 q 436 462 442 471 q 427 446 431 453 q 424 441 424 446 q 414 424 420 435 q 401 404 408 414 l 399 401 q 389 383 395 392 q 378 364 383 374 q 368 343 374 355 q 355 321 363 332 l 353 317 q 344 297 349 307 q 332 277 339 288 l 326 264 q 319 250 323 257 q 311 233 314 243 q 307 226 309 231 q 302 216 306 221 q 295 203 298 210 q 289 189 292 196 l 289 184 q 280 172 283 178 q 273 158 277 165 q 270 151 272 155 q 265 142 268 146 l 220 47 l 220 46 q 176 -9 203 10 q 122 -28 150 -28 q 52 8 82 -28 q 7 96 20 40 q 7 210 -5 153 q 15 241 9 225 q 24 277 20 257 q 33 307 29 292 q 40 335 37 321 q 50 367 45 353 q 60 396 54 380 l 61 397 l 61 401 q 71 428 66 417 q 81 454 75 439 q 90 481 85 467 q 102 510 96 496 q 114 542 109 528 q 123 567 119 555 q 149 622 136 595 q 174 676 161 650 q 203 733 189 707 q 232 783 216 760 l 239 796 l 240 796 l 248 808 q 255 822 252 815 q 264 833 258 828 q 281 859 273 847 q 298 884 289 871 l 298 885 q 339 933 319 907 q 360 955 350 944 q 382 977 371 966 l 385 977 q 439 1019 412 1002 q 494 1046 467 1036 q 535 1056 515 1053 q 574 1060 554 1060 q 602 1059 589 1060 q 628 1051 615 1057 q 637 1049 633 1051 q 643 1047 640 1047 l 647 1046 q 656 1042 651 1043 q 664 1039 661 1042 l 665 1039 l 669 1035 q 675 1033 672 1034 q 681 1029 677 1032 l 685 1026 q 692 1021 688 1023 q 703 1010 696 1018 l 707 1008 l 710 1004 q 717 998 714 1002 q 722 991 720 994 l 724 991 l 726 989 q 736 972 733 979 q 739 971 739 972 l 743 964 q 748 957 746 961 q 753 947 750 953 q 760 935 755 943 q 768 917 765 926 l 770 914 q 778 892 775 903 l 781 885 q 783 872 782 878 q 786 860 785 865 l 786 859 q 789 849 789 856 q 793 833 790 843 l 793 827 q 793 824 793 824 q 794 822 794 823 l 794 821 q 796 811 794 815 q 798 804 798 807 q 798 792 798 798 q 799 783 799 787 l 810 783 l 811 783 l 814 783 l 822 783 l 823 779 l 832 779 q 841 778 838 779 q 847 777 844 777 l 851 777 q 857 773 852 774 q 865 771 861 772 q 870 767 868 768 q 873 764 872 766 q 883 759 879 761 q 893 754 888 757 q 898 749 896 751 q 903 746 900 747 q 906 744 905 746 q 909 742 907 742 q 918 733 912 736 q 931 718 925 725 q 940 708 937 710 l 940 704 l 943 704 l 943 701 q 945 699 945 701 q 947 697 945 697 q 953 689 950 694 l 953 685 q 957 679 956 684 q 961 671 961 675 q 964 667 964 671 l 965 664 q 966 661 965 663 q 968 659 966 660 l 970 654 l 974 647 q 977 642 974 646 q 981 633 977 635 q 988 609 985 621 q 994 585 991 597 z "},"\\":{"ha":703,"x_min":1,"x_max":785,"o":"m 785 921 l 785 893 q 784 877 785 884 q 783 864 783 869 l 783 859 q 776 824 781 839 q 768 800 771 810 l 768 796 q 755 767 762 781 q 743 743 749 753 q 734 725 739 734 q 726 708 729 715 q 719 699 722 703 q 710 688 715 694 q 703 674 707 680 q 696 664 699 669 q 690 655 693 660 q 684 646 686 650 q 674 632 678 639 q 664 621 669 625 q 660 614 664 614 q 659 595 659 604 q 656 576 659 586 q 647 497 652 538 q 642 414 643 457 q 637 339 637 376 l 637 330 q 729 245 697 322 q 748 144 749 198 q 726 46 747 90 l 722 39 q 710 14 720 31 q 700 -5 706 4 q 688 -24 694 -14 q 679 -36 681 -33 q 676 -37 677 -36 q 671 -44 673 -40 q 667 -50 668 -49 l 664 -50 q 650 -67 657 -60 q 633 -82 643 -75 q 609 -97 621 -92 q 583 -107 597 -102 q 566 -111 575 -110 q 550 -111 557 -111 q 531 -111 541 -111 q 513 -104 522 -110 q 443 -57 475 -96 l 441 -57 q 400 5 418 -28 q 375 68 388 35 q 368 97 372 83 q 359 125 363 110 q 354 151 357 138 q 350 176 351 163 q 342 171 347 175 q 335 164 338 167 l 335 163 q 326 153 331 157 q 314 143 321 149 q 311 138 313 140 q 310 134 310 136 q 297 121 303 130 q 252 75 271 97 q 244 66 248 70 q 237 58 240 62 q 233 55 235 58 q 229 50 231 52 q 147 -29 200 -14 q 136 -31 140 -29 q 126 -32 132 -32 l 122 -32 q 119 -31 121 -32 q 114 -29 117 -29 q 83 -20 100 -29 q 68 -9 75 -14 q 54 5 61 -4 q 20 58 33 26 q 1 126 7 89 l 1 163 l 1 176 q 3 186 1 182 q 4 196 4 191 l 4 200 q 17 250 9 231 q 33 294 24 270 q 58 346 43 318 q 84 392 71 370 q 114 439 98 415 q 121 451 117 447 q 126 458 125 456 q 131 468 130 464 q 140 480 136 473 q 150 493 144 486 q 169 522 159 509 q 189 550 179 534 q 210 575 199 561 q 233 606 221 589 q 258 638 245 621 q 283 668 271 654 q 309 697 296 684 q 339 726 322 711 l 372 758 q 376 775 375 768 q 379 793 376 783 q 416 918 397 861 q 423 933 419 925 q 431 951 427 942 q 439 971 436 964 q 447 989 443 979 q 457 1007 452 998 q 468 1025 461 1017 q 482 1045 475 1036 q 496 1064 489 1054 l 497 1064 q 516 1083 507 1074 q 538 1101 526 1092 q 563 1118 550 1111 q 591 1126 576 1125 q 598 1128 595 1126 q 604 1131 602 1131 l 612 1131 l 614 1131 l 616 1131 l 623 1131 l 633 1131 l 639 1131 l 642 1131 l 643 1131 l 646 1131 q 652 1126 647 1126 l 654 1126 l 659 1126 q 700 1105 675 1124 q 704 1101 701 1105 q 710 1098 707 1100 q 717 1093 714 1096 q 718 1090 717 1092 q 721 1089 718 1089 q 728 1080 724 1085 q 734 1071 732 1075 q 738 1066 737 1068 q 742 1064 739 1064 q 747 1053 743 1060 q 758 1034 751 1046 q 765 1018 761 1027 q 772 996 770 1008 q 775 988 775 990 q 777 981 775 986 l 777 975 q 781 958 781 964 l 781 956 q 783 944 783 951 q 785 930 783 937 l 785 921 z "},"]":{"ha":798,"x_min":1,"x_max":1055,"o":"m 669 -78 l 668 -78 l 669 -78 m 935 604 q 990 584 964 604 q 1035 529 1017 564 q 1054 424 1055 481 q 1035 322 1054 367 q 1022 295 1028 309 q 1007 267 1015 281 q 1001 255 1004 261 q 993 241 997 249 q 987 229 990 233 q 978 216 983 224 l 972 204 l 965 192 l 964 192 q 958 180 961 186 q 949 168 954 174 q 935 145 942 157 q 920 122 928 134 l 918 122 l 916 118 q 909 109 913 114 q 901 97 905 104 l 895 87 l 893 87 l 886 79 q 880 70 884 74 q 873 60 876 65 q 871 57 873 60 l 869 56 q 865 54 868 54 q 861 47 865 52 q 855 40 859 45 q 847 31 851 36 q 827 8 838 20 q 806 -12 817 -3 l 803 -12 l 802 -16 q 793 -21 799 -20 l 790 -25 l 782 -32 q 770 -40 777 -33 l 768 -40 q 756 -47 762 -44 q 749 -53 751 -50 l 743 -57 q 741 -58 742 -57 l 739 -58 q 732 -62 735 -58 l 730 -62 l 724 -65 q 711 -69 718 -69 l 710 -69 l 707 -71 l 705 -71 q 694 -75 699 -71 l 686 -75 l 681 -78 l 677 -78 l 664 -78 l 661 -78 l 660 -78 l 652 -78 q 574 -46 610 -74 q 518 17 542 -25 q 500 45 509 31 q 485 79 492 60 q 479 92 482 86 q 473 106 476 98 q 469 104 472 106 l 456 92 l 453 92 l 436 79 q 400 54 416 64 q 368 35 383 45 q 333 14 353 25 q 289 -7 313 3 l 281 -8 l 279 -8 q 278 -12 278 -8 l 269 -12 q 268 -14 268 -12 l 268 -16 l 265 -16 l 257 -20 l 252 -20 l 243 -21 l 240 -21 l 239 -21 q 227 -25 232 -21 l 214 -25 q 205 -28 207 -25 l 203 -28 l 201 -28 l 195 -28 q 190 -26 192 -28 q 184 -25 187 -25 l 178 -25 q 165 -23 171 -25 q 157 -21 160 -21 l 157 -20 l 155 -20 q 146 -18 150 -20 q 139 -12 142 -16 q 119 -3 134 -12 l 115 0 q 112 3 114 3 q 107 5 110 4 q 104 9 106 8 q 102 12 103 9 q 98 17 99 12 q 90 22 96 17 q 86 25 89 25 l 85 29 q 82 31 85 29 q 78 37 81 33 q 69 47 75 40 l 65 54 q 56 72 57 64 q 46 86 50 79 q 40 97 43 93 l 40 100 q 39 103 39 101 l 39 106 q 27 134 32 121 q 20 163 22 147 q 9 210 13 186 q 3 260 5 233 l 3 262 q 1 301 1 282 q 1 342 1 319 l 1 343 q 5 416 3 379 q 16 488 8 453 q 30 552 22 519 q 49 616 37 585 q 70 674 58 646 q 93 730 81 703 q 118 785 105 760 q 133 811 125 800 q 149 835 142 822 q 182 883 164 860 q 220 929 200 907 q 267 971 243 953 q 315 1000 290 989 q 346 1012 331 1007 q 376 1017 361 1017 l 382 1017 l 382 1018 l 393 1018 l 395 1018 q 411 1017 407 1018 l 414 1017 l 431 1017 q 439 1013 432 1013 l 440 1013 q 518 937 489 1000 q 537 874 532 909 q 539 804 543 839 q 508 710 532 749 q 447 656 484 671 l 440 656 l 439 654 l 436 654 l 435 654 l 435 650 l 432 650 l 431 650 q 429 647 431 648 l 428 647 l 424 643 q 399 612 410 629 l 397 610 q 382 585 389 599 q 376 574 379 581 q 370 559 372 567 l 368 559 q 355 529 361 546 q 340 497 349 513 q 333 472 336 485 q 323 447 329 458 q 335 461 330 454 q 345 472 340 468 q 347 475 345 475 q 369 503 358 488 q 393 534 380 518 q 415 565 403 550 q 439 597 427 581 q 451 614 446 607 q 461 629 457 621 q 467 636 464 633 q 472 643 469 639 l 481 660 q 531 709 503 693 q 589 725 558 725 q 694 663 650 725 q 727 588 715 629 q 739 500 739 547 l 739 485 l 739 472 l 739 450 q 741 443 741 448 q 744 445 743 443 q 747 450 745 447 l 751 454 l 760 463 l 761 463 q 777 479 765 468 q 791 494 783 486 q 806 505 799 501 l 865 572 q 935 604 897 604 z "},"^":{"ha":954,"x_min":0,"x_max":1099,"o":"m 985 418 q 1030 406 1008 415 q 1068 376 1053 396 q 1091 335 1084 357 q 1097 289 1099 313 q 1081 237 1095 261 q 1044 197 1067 212 q 1039 190 1043 195 q 1031 178 1035 186 q 1023 168 1028 174 q 1015 155 1018 163 q 1001 136 1008 146 q 986 114 994 126 q 980 106 983 111 q 974 98 977 102 l 970 94 q 963 83 967 87 q 953 72 958 79 q 944 60 949 65 q 935 47 939 54 q 923 35 929 42 q 909 20 917 28 q 900 12 904 16 q 893 3 896 8 l 890 3 q 881 -5 886 0 q 865 -16 875 -11 l 865 -18 q 856 -24 861 -20 q 843 -31 850 -28 q 836 -35 840 -31 l 832 -35 l 831 -36 q 815 -40 820 -40 l 814 -43 l 811 -43 q 808 -44 810 -43 q 803 -45 806 -45 l 802 -45 l 799 -45 q 790 -47 798 -47 l 789 -47 q 785 -49 786 -47 l 782 -49 l 772 -49 l 765 -49 l 757 -49 l 755 -49 l 745 -49 q 738 -47 742 -47 q 728 -45 733 -47 q 722 -43 725 -43 q 714 -40 718 -43 q 700 -34 707 -37 q 685 -26 692 -31 q 660 -7 665 -16 l 659 -7 q 657 -5 657 -7 q 640 14 646 3 l 639 16 q 633 23 636 18 q 628 32 631 28 q 627 37 627 35 q 624 40 627 39 q 623 47 623 43 q 619 54 620 52 q 615 60 618 57 l 615 61 q 614 71 614 66 q 611 78 614 75 l 611 82 l 610 86 l 610 94 q 607 110 607 104 q 607 123 607 117 q 610 143 610 130 q 611 156 611 150 q 614 168 611 163 q 623 205 615 186 q 629 240 625 222 q 639 272 633 257 q 642 283 640 279 q 644 294 643 288 q 650 314 647 304 q 656 335 653 325 q 662 362 659 347 q 668 393 665 378 q 669 401 669 395 l 668 401 q 665 400 667 400 q 661 399 664 399 q 660 397 661 397 q 638 386 649 392 q 615 372 627 379 q 595 356 606 364 q 574 336 585 347 q 550 315 562 326 q 528 293 539 304 q 504 270 515 281 q 481 248 493 258 q 455 224 469 235 q 432 203 441 212 l 390 168 l 390 165 l 351 132 l 349 132 l 347 131 q 340 122 345 125 q 330 115 335 118 q 327 113 328 114 q 323 110 326 111 q 319 105 321 107 q 314 102 317 103 q 282 75 298 90 q 252 49 267 61 q 226 30 236 38 q 210 18 216 22 q 197 7 201 10 l 193 5 q 122 -18 161 -18 q 68 -5 94 -18 q 24 32 41 8 q 2 94 4 60 q 18 161 0 129 l 20 165 q 28 180 26 178 q 42 201 33 187 q 61 231 50 215 q 86 265 73 248 q 114 297 98 282 q 126 311 118 302 q 131 318 129 317 l 139 326 q 140 328 139 328 l 149 336 l 149 339 q 169 360 158 350 q 189 380 179 370 q 211 402 200 391 q 235 424 222 412 q 261 450 248 439 q 289 472 273 461 q 318 493 302 483 q 351 515 334 504 q 383 535 367 525 q 415 555 399 546 q 447 573 431 565 q 481 590 463 581 l 485 593 q 516 609 500 600 q 547 627 532 618 q 590 646 571 637 q 631 661 610 654 q 640 664 635 664 l 640 665 q 650 668 646 668 q 657 669 654 668 q 661 670 659 669 q 671 672 664 671 q 692 675 677 673 q 732 682 707 677 l 734 682 q 744 682 739 682 q 753 681 749 682 q 844 657 800 681 q 889 627 872 644 q 924 586 910 607 q 945 549 936 566 l 945 547 q 957 511 954 530 q 970 449 966 479 l 970 418 l 985 418 l 985 418 z "},"_":{"ha":960,"x_min":3,"x_max":1093,"o":"m 990 435 q 1037 419 1015 432 q 1074 383 1059 406 q 1093 313 1093 351 q 1071 245 1093 275 l 1071 243 q 1061 231 1063 235 l 1059 229 q 1054 223 1056 227 q 1048 216 1051 220 l 1046 212 q 1034 198 1039 205 q 1021 183 1029 191 q 1010 168 1014 175 q 999 154 1006 161 q 990 144 994 149 q 982 135 986 140 q 978 131 979 134 q 974 126 977 129 l 974 125 l 965 117 q 958 107 962 111 q 949 97 953 103 q 945 94 946 96 q 942 89 945 92 l 924 71 q 920 66 921 68 q 917 62 920 64 q 909 53 913 57 q 900 43 905 49 q 896 39 897 41 q 892 35 895 37 q 883 26 888 31 q 875 17 878 21 q 766 -29 829 -29 q 665 9 707 -29 q 624 77 635 37 q 624 155 614 117 l 628 172 l 632 187 q 635 200 633 194 q 640 214 637 207 q 644 236 642 224 q 650 258 647 248 q 645 253 647 256 q 640 248 643 250 l 604 200 l 603 200 l 583 175 l 566 150 q 458 100 523 100 q 415 106 432 100 l 403 93 q 388 78 395 86 q 374 64 380 71 q 356 48 364 54 q 338 35 347 41 l 338 33 q 327 26 334 31 q 313 17 321 21 q 296 6 306 12 q 273 -4 286 0 l 271 -7 l 267 -7 q 263 -8 265 -8 q 258 -11 261 -8 l 257 -11 l 254 -11 l 253 -12 l 250 -12 l 244 -12 l 244 -16 l 241 -16 q 229 -17 233 -16 l 228 -17 l 225 -17 l 212 -17 l 211 -17 l 208 -17 l 196 -17 l 187 -17 q 186 -16 186 -17 q 184 -16 186 -16 l 183 -16 q 151 -8 166 -13 q 123 4 136 -3 q 99 19 111 11 q 78 37 87 28 q 63 53 70 44 q 50 72 57 62 q 46 78 47 75 q 41 85 45 82 q 40 89 40 87 q 36 96 36 93 q 32 106 32 101 q 26 119 29 113 q 20 134 22 125 l 20 135 q 16 149 17 142 q 12 163 16 155 q 11 164 12 163 q 8 176 8 171 q 7 189 8 182 q 3 243 3 218 q 40 326 3 293 q 123 363 72 362 l 125 363 q 212 322 176 363 q 220 333 215 328 q 229 343 225 339 q 242 358 236 350 q 258 375 249 366 q 276 392 268 385 q 294 408 285 400 l 296 408 q 321 427 307 419 q 343 439 332 435 q 366 450 354 444 q 384 454 375 453 q 403 458 393 456 q 407 459 404 458 q 412 460 410 460 l 415 460 l 416 460 l 419 460 l 428 460 l 432 460 l 433 460 l 446 460 q 453 458 448 458 q 461 456 458 458 l 463 456 l 465 456 q 478 452 471 456 l 484 460 q 485 463 484 463 q 488 467 486 464 q 489 468 488 468 q 490 471 490 468 q 504 492 497 480 q 516 512 509 501 q 529 538 522 522 q 532 541 532 539 q 536 546 533 543 q 550 572 543 558 q 567 602 557 586 l 570 602 q 607 647 588 627 q 669 688 636 672 q 673 689 671 689 q 679 692 676 689 l 681 692 q 682 693 681 692 l 686 693 l 686 694 q 688 696 686 694 q 707 700 694 696 l 713 701 q 721 704 717 704 l 729 705 q 746 708 736 708 l 749 710 l 758 710 l 761 710 l 770 713 l 774 713 l 782 713 l 790 713 l 803 713 l 804 713 q 817 710 808 710 l 819 710 q 823 708 821 709 l 829 708 l 829 707 q 832 705 829 705 l 833 705 l 836 705 q 842 703 839 704 q 852 700 846 703 q 880 687 866 694 q 907 668 895 679 l 908 668 q 913 664 911 665 q 917 660 916 663 l 920 660 l 920 659 l 921 656 q 924 653 924 654 q 928 650 925 652 l 929 647 l 932 646 q 936 639 932 643 l 942 633 l 945 629 l 946 627 l 949 625 q 950 621 949 623 q 951 618 950 618 q 953 616 951 616 l 954 614 l 957 608 l 958 608 q 961 603 961 606 q 962 597 961 600 l 962 596 q 966 585 966 592 q 986 526 980 555 q 989 504 987 515 q 990 479 990 492 q 990 435 991 457 z "},"`":{"ha":671,"x_min":-1,"x_max":789,"o":"m 696 215 q 766 155 743 199 q 772 64 789 108 q 741 13 763 33 q 692 -16 720 -8 q 672 -20 680 -20 q 667 -22 671 -22 l 664 -22 q 658 -23 661 -22 q 650 -24 654 -24 q 606 -28 625 -28 l 604 -28 q 559 -24 582 -28 l 555 -24 l 550 -22 l 547 -22 q 541 -21 545 -22 q 534 -20 538 -20 l 533 -20 l 530 -18 q 525 -16 526 -18 l 521 -16 l 519 -16 q 518 -14 518 -16 q 514 -12 517 -14 q 505 -9 511 -11 q 479 3 492 -4 q 454 18 467 9 q 430 38 442 28 q 408 61 418 49 q 375 115 387 83 q 363 140 368 127 q 355 168 358 153 q 354 174 355 172 q 351 170 354 172 l 350 168 q 336 150 343 159 q 322 135 329 142 q 295 101 309 117 q 267 69 281 85 q 251 56 258 62 q 233 39 243 49 q 215 24 225 32 q 193 7 205 16 q 121 -18 161 -18 q 67 -6 93 -18 q 25 31 41 7 q 3 81 7 53 q 5 136 -1 109 q 14 164 8 152 q 22 186 20 176 q 33 208 28 197 q 43 231 39 220 q 87 307 62 269 l 113 345 q 125 364 118 350 q 133 373 129 368 q 142 382 136 378 q 175 419 155 400 q 194 436 184 429 q 210 452 203 444 l 227 468 q 232 471 229 469 q 237 476 235 473 q 250 487 244 483 q 262 498 256 492 l 275 511 q 289 528 281 517 q 300 537 294 533 q 313 547 306 542 q 313 549 313 549 q 314 551 314 549 q 321 555 317 551 q 322 557 322 555 l 326 559 q 334 564 329 559 l 335 564 l 338 566 q 341 569 339 568 q 346 572 343 570 l 347 572 q 359 576 354 575 q 367 581 364 578 l 368 581 q 374 581 371 581 q 379 582 376 582 q 385 585 380 585 q 390 585 387 585 q 393 586 392 586 l 396 586 l 397 586 l 400 586 q 408 589 406 586 l 421 589 l 422 589 l 425 589 l 429 589 q 447 586 433 586 q 463 583 455 585 q 479 581 471 582 l 481 581 q 506 574 493 578 q 533 566 518 571 q 581 545 561 556 q 593 540 587 542 q 604 534 599 538 l 606 534 q 611 530 608 532 q 616 526 614 529 l 618 526 l 623 524 l 625 524 q 631 519 629 519 q 669 485 653 506 q 692 439 685 464 q 688 339 707 386 l 681 323 q 680 321 681 322 q 679 318 679 319 q 675 309 676 313 q 672 301 675 304 l 672 298 q 669 292 671 296 q 668 282 668 288 q 665 273 667 278 q 663 264 664 268 q 661 256 663 261 q 660 248 660 252 l 659 235 l 659 232 l 656 232 l 656 231 l 656 228 q 663 225 659 227 q 671 222 668 224 l 681 220 q 687 217 684 218 q 696 215 690 215 z "},"a":{"ha":635,"x_min":-3,"x_max":781,"o":"m 689 214 q 733 192 714 207 q 763 158 751 178 q 777 114 774 138 q 775 66 781 90 q 743 12 766 35 q 688 -20 720 -11 l 684 -20 q 677 -21 681 -21 q 668 -24 673 -21 l 667 -24 q 638 -26 651 -25 q 610 -28 625 -28 l 606 -28 q 582 -26 593 -28 q 558 -24 571 -25 l 555 -24 q 544 -20 551 -21 q 529 -17 536 -20 q 500 -4 512 -12 q 468 9 483 1 q 451 21 458 15 q 435 33 443 26 q 407 61 421 45 q 380 93 393 77 q 372 109 376 101 q 363 126 367 117 q 356 140 360 133 q 350 154 353 147 l 342 146 q 288 87 313 114 q 263 64 275 75 q 239 43 252 53 q 220 26 228 32 q 205 14 212 20 q 201 10 204 12 q 196 5 199 8 l 192 4 q 121 -20 160 -20 q 66 -6 93 -20 q 25 31 40 7 q 1 85 5 54 q 8 143 -3 115 l 9 147 q 13 153 12 150 q 17 163 14 157 q 23 178 18 170 q 35 201 28 187 q 50 231 41 217 q 66 260 58 244 q 89 293 77 275 q 113 326 100 310 q 126 345 119 336 q 139 364 132 354 q 157 388 149 376 q 175 408 165 399 q 194 428 184 418 q 214 447 203 437 q 230 462 222 455 q 245 476 237 469 l 254 484 q 270 499 261 490 q 288 514 278 507 q 301 530 294 522 q 317 547 309 538 q 350 585 330 564 l 350 587 l 358 596 l 358 597 q 368 608 359 600 q 380 623 374 616 q 388 632 383 628 q 400 642 393 636 q 409 651 404 646 q 421 659 414 656 q 439 668 431 667 q 446 671 441 671 q 484 681 461 679 q 500 684 489 684 l 501 684 l 514 684 l 517 684 q 526 681 521 681 q 534 679 530 681 q 544 676 540 676 q 551 675 547 676 q 553 672 551 672 l 554 672 q 560 671 557 671 q 567 668 564 671 q 576 663 570 664 q 578 660 576 660 l 579 660 q 584 657 582 659 q 589 654 586 656 l 589 652 q 633 600 616 632 l 633 596 q 637 583 636 589 q 642 568 639 576 l 643 568 l 643 567 l 643 562 q 646 554 646 558 l 646 551 q 647 533 647 542 q 647 522 647 525 l 647 521 l 647 500 q 643 437 647 464 l 642 433 q 639 410 639 421 q 637 389 639 399 q 635 366 635 376 q 635 346 635 355 q 635 268 633 298 q 635 257 635 261 q 637 245 635 253 q 638 242 637 243 q 639 239 639 241 l 639 237 l 642 235 l 642 233 l 643 233 q 647 229 646 231 q 656 225 648 228 q 668 222 663 222 q 679 218 673 221 q 682 217 680 218 q 685 216 684 216 l 688 216 l 689 214 l 689 214 z "}}}
